<svg width="188" height="43" viewBox="0 0 188 43" fill="none" xmlns="http://www.w3.org/2000/svg">
  <g clip-path="url(#clip0_26_143)">
    <path
      d="M28.3313 0H5.13135C2.30204 0 0 2.27774 0 5.08006V33.9526C0 36.9889 2.25941 38.4899 4.48068 38.9123V39.0122C4.48068 40.2454 4.8823 41.2741 5.64516 41.9894C6.34295 42.6412 7.33243 43 8.43184 43H25.0263C27.546 43 29.2422 41.5012 29.2422 39.2643V39.1508C31.3872 38.6557 33.4626 36.7708 33.4626 33.9526V5.08006C33.4626 2.28001 31.1606 0 28.3335 0H28.3313ZM32.4507 33.9526C32.4507 36.4802 30.4246 38.0585 28.5197 38.2606L28.2325 38.2901V39.2643C28.2325 41.1197 26.7786 42.0008 25.0263 42.0008H8.43184C6.50001 42.0008 5.49034 40.6155 5.49034 39.0145V38.0403L5.20539 38.0085C3.17709 37.7928 1.00967 36.6164 1.00967 33.9504V5.08006C1.00967 2.82958 2.85848 0.999208 5.13135 0.999208H28.3313C30.6019 0.999208 32.4507 2.82958 32.4507 5.08006V33.9526Z"
      fill="white" />
    <path
      d="M28.1562 1.79175H5.30412C3.47101 1.79175 1.98792 3.26558 1.98792 5.07778V28.1141L2.1921 27.9982L10.1752 23.5518C10.339 23.386 11.1086 22.6775 12.107 22.4504C13.1077 22.2233 16.314 22.1801 16.314 22.1801H18.6878C19.6167 22.3005 19.5629 23.5926 18.7798 23.6721C18.7798 23.6721 16.3072 23.9923 16.1076 24.0582C16.047 24.0786 15.1091 24.2648 14.7905 24.367C14.602 24.4283 13.9155 24.9234 13.8908 24.9507C13.8549 24.987 14.9835 24.4488 15.2168 24.4283C15.4501 24.4056 15.8428 24.3966 15.9572 24.4102L20.6107 24.3966C21.4767 24.3511 22.3451 23.9878 22.8499 23.5177L26.5924 21.0015C26.9289 20.8017 27.5931 21.5079 27.3261 21.9076L23.3121 25.6024C22.9105 25.9998 22.3092 26.1293 21.9748 26.1293L18.966 26.8832L11.9253 27.4578C11.5259 27.4578 11.1916 27.4578 10.9246 27.787C10.7429 28.0141 4.73197 34.7815 3.21523 36.4915C3.78737 36.9548 4.51433 37.2318 5.30861 37.2318H5.4724C5.8628 35.8329 7.06094 34.811 8.47447 34.811H25.1789C26.5924 34.811 27.7905 35.8329 28.1787 37.2318C30.0051 37.2205 31.4792 35.7557 31.4792 33.9458V5.08005C31.4792 3.26785 29.9938 1.79402 28.1607 1.79402L28.1562 1.79175ZM21.2524 5.85671L22.7556 4.53503L24.2567 5.85671C24.306 5.89304 24.3375 5.9589 24.3375 6.0293C24.3375 6.14739 24.25 6.24504 24.1445 6.24504H21.3601C21.2546 6.24504 21.1694 6.14966 21.1694 6.0293C21.1694 5.95663 21.2008 5.89304 21.2501 5.85671H21.2524ZM19.7625 8.39106L21.645 6.81277H23.8618L25.7443 8.39106C25.7891 8.4274 25.8183 8.49098 25.8183 8.55684C25.8183 8.67493 25.7353 8.77031 25.6253 8.77031H19.8815C19.776 8.77031 19.6908 8.6772 19.6908 8.55684C19.6908 8.49098 19.7177 8.4274 19.7625 8.39106ZM17.4134 12.3538L17.4179 12.347L20.5142 9.40844H24.8513L28.0867 12.347L28.0912 12.3538C28.1203 12.3879 28.1383 12.4401 28.1383 12.4901C28.1383 12.6036 28.0575 12.6967 27.9566 12.6967H17.5458C17.4426 12.6967 17.364 12.6059 17.364 12.4901C17.364 12.4401 17.382 12.3879 17.4111 12.3538H17.4134ZM9.21265 5.85217L10.7159 4.53049L12.2192 5.85217C12.2641 5.89077 12.2977 5.95663 12.2977 6.02703C12.2977 6.14511 12.2102 6.24049 12.107 6.24049H9.32259C9.21714 6.24049 9.12963 6.14511 9.12963 6.02476C9.12963 5.95436 9.16105 5.8885 9.21041 5.84989L9.21265 5.85217ZM7.72283 8.39106L9.6053 6.8105H11.8198L13.7068 8.39106C13.7517 8.42967 13.7808 8.49098 13.7808 8.55684C13.7808 8.67493 13.6956 8.77031 13.5879 8.77031H7.84399C7.73854 8.77031 7.65103 8.6772 7.65103 8.55911C7.65103 8.49098 7.67796 8.42967 7.72283 8.39333V8.39106ZM5.37592 12.3516L5.3804 12.3447L8.47223 9.40617H12.816L16.0537 12.3447V12.3516C16.0851 12.3879 16.1031 12.4379 16.1031 12.4878C16.1031 12.6014 16.0223 12.6922 15.9213 12.6922H15.9168L5.51503 12.6945H5.50829C5.40957 12.6922 5.32655 12.6014 5.32655 12.4878C5.32655 12.4379 5.34675 12.3856 5.37592 12.3516ZM29.0492 17.2568L23.2134 17.2341L23.615 19.7275C23.615 19.8706 23.7002 19.9932 23.8124 20.0386C23.9314 20.0818 24.0166 20.2044 24.0166 20.3475C24.0166 20.5314 21.4117 20.5292 21.4117 20.3475C21.4117 20.2044 21.4969 20.0795 21.6158 20.0364C21.7303 19.991 21.8111 19.8706 21.8111 19.7275L22.2059 17.2341L17.4448 17.2499C17.4448 17.2499 17.4291 17.2568 17.4179 17.2568H16.6057H16.0604H16.0559C16.0559 17.2568 16.0447 17.2545 16.0358 17.2499L11.1759 17.2341L11.5842 19.7275C11.5842 19.8729 11.665 19.9932 11.7794 20.0386C11.8984 20.0818 11.9836 20.2044 11.9836 20.3498C11.9836 20.5292 9.37644 20.5292 9.37644 20.3498C9.37644 20.2044 9.46395 20.0818 9.58062 20.0364C9.69505 19.9932 9.77806 19.8729 9.77806 19.7275L10.1707 17.2341L4.40664 17.2545C4.40664 17.2545 3.80981 17.3135 3.78513 17.0683C3.76269 16.8525 3.89732 16.7481 3.89732 16.7481L6.93529 13.3303H14.5078L16.738 15.9442L18.9728 13.3326H26.543L27.6447 14.6543L29.5025 16.7503C29.5025 16.7503 29.6393 16.8548 29.6191 17.0705C29.5945 17.2681 29.2063 17.2681 29.0537 17.2613L29.0492 17.2568Z"
      fill="white" />
    <path
      d="M23.4041 38.574C23.247 38.574 23.1214 38.6672 23.0698 38.7852C23.0496 38.8193 23.0428 38.8647 23.0428 38.9306C23.0541 39.1872 23.1797 39.4188 23.4445 39.4188C23.6442 39.4188 23.7698 39.2372 23.7698 38.9874C23.7698 38.7671 23.6509 38.5718 23.4041 38.5718V38.574Z"
      fill="white" />
    <path
      d="M21.4722 37.7473C21.2815 37.7473 21.1424 37.9199 21.1424 38.172C21.1424 38.3809 21.2591 38.558 21.488 38.558C21.6495 38.558 21.755 38.4876 21.8088 38.4013C21.8245 38.365 21.8335 38.3309 21.8335 38.2583C21.838 38.0017 21.7415 37.7473 21.47 37.7473H21.4722Z"
      fill="white" />
    <path
      d="M14.8197 37.7019C14.694 37.7019 14.6065 37.7133 14.5594 37.7246V39.3688C14.6065 39.3778 14.6918 39.3778 14.7591 39.3778C15.2841 39.3847 15.6229 39.1008 15.6229 38.499C15.6229 37.9767 15.3155 37.7019 14.8197 37.7019Z"
      fill="white" />
    <path
      d="M25.208 38.2582L24.8827 38.7874V38.7964H25.4324V38.2582C25.4324 38.1152 25.4414 37.963 25.4481 37.8086H25.4346C25.3584 37.963 25.2888 38.1061 25.208 38.2582Z"
      fill="white" />
    <path
      d="M25.1744 35.5242H8.46999C7.1821 35.5242 6.13878 36.8186 6.13878 38.2584V39.0123C6.13878 40.4521 7.1821 41.3014 8.46999 41.3014H25.1744C26.4623 41.3014 27.5056 40.4521 27.5056 39.0123V38.2584C27.5056 36.8186 26.4623 35.5242 25.1744 35.5242ZM9.71749 39.5006C9.45273 39.7186 9.03989 39.823 8.54403 39.823C8.24786 39.823 8.03247 39.8026 7.89336 39.7867V37.3227C8.10202 37.2864 8.37575 37.266 8.66519 37.266C9.14983 37.266 9.46619 37.3545 9.70627 37.5339C9.97103 37.7292 10.1348 38.0381 10.1348 38.4809C10.1348 38.9624 9.95981 39.2916 9.71749 39.5006ZM11.941 39.7981H10.3255V37.2864H11.8871V37.752H10.8977V38.2743H11.8288V38.7375H10.8977V39.3325H11.941V39.7981ZM12.7644 39.8344C12.475 39.8344 12.19 39.7572 12.0442 39.68L12.1609 39.2144C12.3135 39.2916 12.5535 39.3689 12.7958 39.3689C13.0606 39.3689 13.1997 39.2598 13.1997 39.0963C13.1997 38.9328 13.0786 38.8488 12.7757 38.7443C12.3538 38.5967 12.0756 38.3651 12.0756 38.0018C12.0756 37.5725 12.4413 37.2478 13.0359 37.2478C13.3276 37.2478 13.5318 37.3068 13.6821 37.375L13.5542 37.8292C13.4577 37.7815 13.2693 37.7088 13.027 37.7088C12.7846 37.7088 12.659 37.8246 12.659 37.9518C12.659 38.113 12.7981 38.1834 13.1302 38.3061C13.5789 38.4696 13.7853 38.6989 13.7853 39.0555C13.7853 39.4756 13.4622 39.8321 12.7667 39.8321L12.7644 39.8344ZM15.8136 39.5006C15.5444 39.7186 15.136 39.823 14.6402 39.823C14.344 39.823 14.1286 39.8026 13.9873 39.7867V37.3227C14.2004 37.2864 14.4764 37.266 14.7613 37.266C15.246 37.266 15.5646 37.3545 15.8024 37.5339C16.0672 37.7292 16.2332 38.0381 16.2332 38.4809C16.2332 38.9624 16.056 39.2916 15.8159 39.5006H15.8136ZM18.0349 39.7981H16.4217V37.2864H17.9855V37.752H16.9938V38.2743H17.9272V38.7375H16.9938V39.3325H18.0349V39.7981ZM20.1866 39.7981H19.6347V37.8791H19.6279L19.1612 38.0994L19.067 37.6725L19.7177 37.375H20.1889V39.7981H20.1866ZM21.995 39.496C21.7617 39.7027 21.4364 39.8162 21.0572 39.8321C20.9629 39.8412 20.862 39.8344 20.7991 39.8321V39.3938C20.8732 39.4029 20.9338 39.3938 21.0437 39.3938C21.2232 39.3802 21.3982 39.3348 21.5261 39.2439C21.6899 39.1349 21.7931 38.9737 21.8357 38.792L21.8268 38.7875C21.7191 38.901 21.5575 38.9646 21.3331 38.9646C20.9203 38.9646 20.5748 38.6808 20.5748 38.2061C20.5748 37.7315 20.9562 37.3341 21.4969 37.3341C22.1252 37.3341 22.4213 37.811 22.4213 38.3765C22.4213 38.8851 22.2598 39.2485 21.9928 39.496H21.995ZM26.2626 39.2212H25.9754V39.7981H25.4324V39.2212H24.3464V38.9692C24.3464 39.4483 23.974 39.8412 23.449 39.8412C22.796 39.8412 22.4729 39.3598 22.4729 38.783C22.4729 38.3288 22.6435 37.945 22.9105 37.6997C23.1505 37.4817 23.4714 37.3659 23.8506 37.3477C23.956 37.3364 24.0301 37.3409 24.0839 37.3455V37.7792C24.0189 37.7769 23.9493 37.7792 23.8596 37.7883C23.3525 37.8292 23.1259 38.0858 23.063 38.3651H23.072C23.1932 38.2447 23.3659 38.1766 23.5926 38.1766C24.0009 38.1766 24.3464 38.4628 24.3464 38.9624V38.8533L25.2686 37.3772H25.9731V38.7988H26.2603V39.2235L26.2626 39.2212Z"
      fill="white" />
    <path
      d="M8.72353 37.7019C8.59788 37.7019 8.51486 37.7133 8.46326 37.7246V39.3688C8.51262 39.3778 8.59339 39.3778 8.66295 39.3778C9.18573 39.3847 9.52902 39.1008 9.52902 38.499C9.52902 37.9767 9.21939 37.7019 8.72353 37.7019Z"
      fill="white" />
    <path
      d="M57.2302 8.68628V7.60986H51.7151V8.68628C52.0674 8.69764 52.4959 8.72489 53.0053 8.77485C53.2319 8.79075 53.3755 8.80891 53.4271 8.83389C53.4966 8.86796 53.5527 8.91792 53.5976 8.98605C53.6402 9.05644 53.6627 9.16091 53.6627 9.29943C53.6627 9.39708 53.6537 9.497 53.638 9.59465C53.5617 9.93075 53.3441 10.5893 52.994 11.5704C52.5004 12.9602 52.2245 13.7346 52.1616 13.889L49.5544 20.645L46.5905 13.0669C46.5591 12.9783 46.5322 12.9011 46.5142 12.8421C46.494 12.7785 46.337 12.372 46.0386 11.618C45.5225 10.31 45.2645 9.53334 45.2645 9.28808C45.2645 9.16318 45.2959 9.06553 45.3655 8.98605C45.4305 8.9111 45.5494 8.84979 45.7222 8.80891C46.0184 8.73851 46.4963 8.69764 47.1514 8.68628V7.60986C47.1514 7.60986 41.3941 7.67345 39.5161 7.60986V8.68628C40.2498 8.70218 40.7344 8.77712 40.97 8.90656C41.1249 8.9974 41.3537 9.35394 41.6544 9.98071C41.955 10.6052 42.756 12.5514 44.0641 15.8193L45.7289 19.9773C46.3392 21.5238 46.9876 23.47 47.6495 25.1891H49.4378C49.9157 23.7902 55.6887 9.11549 55.8996 8.9429C56.0253 8.84525 56.4651 8.75895 57.2257 8.68401L57.2302 8.68628Z"
      fill="white" />
    <path
      d="M68.6776 24.0309C68.5878 23.9968 68.507 23.9492 68.4375 23.8787C68.3679 23.8129 68.2916 23.7039 68.2176 23.554L67.7464 22.4049L67.0195 20.6949L61.7737 7.64844H60.1111L59.0812 10.4848L56.0163 18.5307C55.4397 20.0568 55.0448 21.0764 54.8429 21.5942C54.3986 22.6933 54.1294 23.3269 54.0396 23.4995C53.9499 23.6721 53.8646 23.7925 53.7771 23.8719C53.6919 23.9537 53.5886 24.0127 53.4652 24.0468C53.3441 24.0854 52.9649 24.1286 52.3344 24.1785V25.2209H57.7372V24.1785C56.8084 24.1467 56.2474 24.074 56.0612 23.956C55.9356 23.8719 55.875 23.7334 55.875 23.5336C55.875 23.2474 56.0679 22.5344 56.4606 21.3898L56.9766 19.8933H63.0122L64.0196 22.6343C64.1969 23.1066 64.2889 23.4473 64.2889 23.6539C64.2889 23.8242 64.2283 23.9401 64.1071 24.0127C63.986 24.0831 63.452 24.1399 62.5051 24.1785V25.2209H69.8824V24.1785C69.6558 24.1558 69.4853 24.1308 69.3686 24.1195C69.0007 24.0922 68.7718 24.0627 68.6798 24.0309H68.6776ZM60.0124 18.4921C59.0835 18.4921 58.2555 18.4717 57.5241 18.4353L59.9249 12.0132L62.4199 18.4353C61.7109 18.4717 60.9076 18.4921 60.0124 18.4921Z"
      fill="white" />
    <path
      d="M110.532 24.0309C110.442 23.9968 110.361 23.9492 110.292 23.8787C110.22 23.8129 110.146 23.7039 110.069 23.554L109.598 22.4049L108.874 20.6949L103.625 7.64844H101.965L100.933 10.4848L97.8704 18.5307C97.2938 20.0568 96.8989 21.0764 96.6969 21.5942C96.2504 22.6933 95.9834 23.3269 95.8914 23.4995C95.8039 23.6721 95.7142 23.7925 95.6289 23.8719C95.5414 23.9537 95.4405 24.0127 95.3171 24.0468C95.1959 24.0854 94.8167 24.1286 94.184 24.1785V25.2209H99.5891V24.1785C98.6557 24.1467 98.097 24.074 97.9108 23.956C97.7874 23.8719 97.7245 23.7334 97.7245 23.5336C97.7245 23.2474 97.9197 22.5344 98.3102 21.3898L98.8262 19.8933H104.864L105.869 22.6343C106.051 23.1066 106.136 23.4473 106.136 23.6539C106.136 23.8242 106.078 23.9401 105.957 24.0127C105.836 24.0831 105.302 24.1399 104.355 24.1785V25.2209H111.734V24.1785C111.508 24.1558 111.335 24.1308 111.216 24.1195C110.85 24.0922 110.621 24.0627 110.532 24.0309ZM101.864 18.4921C100.938 18.4921 100.107 18.4717 99.3782 18.4353L101.777 12.0132L104.272 18.4353C103.565 18.4717 102.762 18.4921 101.864 18.4921Z"
      fill="white" />
    <path
      d="M80.2775 22.8454C80.2079 23.0975 80.1429 23.2497 80.0801 23.311C80.0195 23.37 78.8572 23.7038 77.6726 23.7038C77.2866 23.7038 76.5507 23.672 75.476 23.6107C75.467 23.3587 75.4558 22.6479 75.4513 21.4692C75.4468 20.2952 75.4378 19.1075 75.4244 17.9107C75.4176 15.6466 75.4131 14.4362 75.4131 14.2863C75.4131 12.8829 75.4333 11.7202 75.4648 10.8004C75.4984 9.8807 75.5365 9.3652 75.5747 9.25166C75.6151 9.13584 75.6779 9.05636 75.7632 9.0064C75.9606 8.89739 76.5036 8.82245 77.3943 8.7793V7.68018C76.1177 7.74603 70.9325 7.74603 69.934 7.68018V8.7793C70.9616 8.82472 71.5652 8.90648 71.7447 9.03365C71.8322 9.08134 71.8905 9.15855 71.9219 9.2562C71.9915 9.48329 72.0409 10.3826 72.0633 11.9586C72.0745 12.5763 72.0812 14.2091 72.0812 16.8547C72.0812 18.6556 72.0678 20.1953 72.0364 21.4829C72.005 22.7659 71.9713 23.5153 71.9309 23.7243C71.9242 23.7742 71.904 23.8197 71.8726 23.8628C71.8255 23.9309 71.3049 24.5123 71.1008 24.6031V25.2526C72.6624 25.1913 79.4967 25.2526 79.638 25.2526C80.6387 25.2526 81.0538 25.2889 81.2804 25.2254C81.2894 25.0641 81.3163 24.426 81.3769 23.6289L81.6731 21.0877C81.6731 21.0446 81.6843 20.9083 81.7045 20.6721H80.7307C80.5826 21.4874 80.4323 22.2164 80.2753 22.8477L80.2775 22.8454Z"
      fill="white" />
    <path
      d="M159.321 22.8454C159.249 23.0975 159.184 23.2497 159.124 23.311C159.063 23.37 157.898 23.7038 156.716 23.7038C156.326 23.7038 155.592 23.672 154.519 23.6107C154.506 23.3587 154.501 22.6479 154.493 21.4692C154.488 20.2952 154.479 19.1075 154.466 17.9107C154.459 15.6466 154.454 14.4362 154.454 14.2863C154.454 12.8829 154.47 11.7202 154.504 10.8004C154.54 9.8807 154.573 9.3652 154.616 9.25166C154.656 9.13584 154.719 9.05636 154.807 9.0064C155.002 8.89739 155.545 8.82245 156.436 8.7793V7.68018C155.159 7.74603 149.971 7.74603 148.98 7.68018V8.7793C150.003 8.82472 150.606 8.90648 150.788 9.03365C150.878 9.08134 150.936 9.15855 150.965 9.2562C151.039 9.48329 151.089 10.3826 151.111 11.9586C151.125 12.5763 151.129 14.2091 151.129 16.8547C151.129 18.6556 151.114 20.1953 151.084 21.4829C151.055 22.7659 151.019 23.5153 150.979 23.7243C150.97 23.7742 150.952 23.8197 150.918 23.8628C150.873 23.9309 150.355 24.5123 150.149 24.6031V25.2526C151.717 25.1913 158.545 25.2526 158.686 25.2526C159.687 25.2526 160.106 25.2889 160.331 25.2254C160.335 25.0641 160.364 24.426 160.427 23.6289L160.719 21.0877C160.719 21.0446 160.73 20.9083 160.755 20.6721H159.779C159.631 21.4874 159.48 22.2164 159.323 22.8477L159.321 22.8454Z"
      fill="white" />
    <path
      d="M92.398 22.8454C92.3284 23.0975 92.2634 23.2497 92.2006 23.311C92.1377 23.37 90.9755 23.7038 89.7931 23.7038C89.4027 23.7038 88.6712 23.672 87.5987 23.6107C87.5875 23.3587 87.5763 22.6479 87.5718 21.4692C87.5673 20.2952 87.5583 19.1075 87.5449 17.9107C87.5359 15.6466 87.5314 14.4362 87.5314 14.2863C87.5314 12.8829 87.5471 11.7202 87.583 10.8004C87.6167 9.8807 87.6526 9.3652 87.693 9.25166C87.7311 9.13584 87.7939 9.05636 87.8814 9.0064C88.0789 8.89739 88.6196 8.82245 89.5104 8.7793V7.68018C88.2337 7.74603 83.0485 7.74603 82.0545 7.68018V8.7793C83.0776 8.82472 83.6835 8.90648 83.8652 9.03365C83.9527 9.08134 84.011 9.15855 84.0424 9.2562C84.1142 9.48329 84.1614 10.3826 84.186 11.9586C84.1995 12.5763 84.204 14.2091 84.204 16.8547C84.204 18.6556 84.1883 20.1953 84.1591 21.4829C84.1277 22.7659 84.0941 23.5153 84.0559 23.7243C84.0492 23.7742 84.029 23.8197 83.9953 23.8628C83.9504 23.9309 83.4322 24.5123 83.2235 24.6031V25.2526C84.7896 25.1913 91.6194 25.2526 91.7585 25.2526C92.7592 25.2526 93.1788 25.2889 93.4054 25.2254C93.4122 25.0641 93.4391 24.426 93.5019 23.6289L93.7981 21.0877C93.7981 21.0446 93.8093 20.9083 93.8317 20.6721H92.858C92.7099 21.4874 92.5573 22.2164 92.4002 22.8477L92.398 22.8454Z"
      fill="white" />
    <path
      d="M128.625 10.185C128.201 9.6468 127.68 9.17672 127.063 8.78385C126.446 8.38871 125.719 8.1003 124.889 7.92317C124.057 7.74604 122.951 7.65747 121.568 7.65747C120.969 7.65747 120.166 7.6711 119.168 7.70062C117.783 7.74831 116.843 7.77102 116.345 7.77102L112.091 7.67791V8.69528C112.939 8.8111 113.428 8.88604 113.558 8.92011C113.693 8.9519 113.787 9.00186 113.85 9.06999C113.888 9.11086 113.917 9.16991 113.944 9.24258C114.018 9.56732 114.07 10.3145 114.092 11.4885C114.126 13.6073 114.146 15.2174 114.146 16.312V18.3558C114.146 20.8584 114.104 22.6683 114.018 23.7811C113.769 23.9695 113.5 24.1512 113.208 24.3261C113.051 24.4169 112.944 24.485 112.881 24.5259V25.1209L116.43 25.0255L119.91 25.1209C121.488 25.1209 122.836 24.937 123.951 24.5645C125.071 24.1944 126.107 23.5903 127.061 22.7501C128.021 21.9144 128.773 20.8675 129.32 19.623C129.866 18.3762 130.142 16.9569 130.142 15.3695C130.142 14.1251 129.953 12.9783 129.59 11.9291C129.37 11.3068 129.047 10.7255 128.623 10.185H128.625ZM126.195 18.8781C125.968 19.7751 125.65 20.5495 125.244 21.1967C124.831 21.844 124.407 22.3367 123.962 22.6683C123.518 22.9976 123 23.2519 122.41 23.4268C121.607 23.6584 120.687 23.7765 119.654 23.7765C118.993 23.7765 118.302 23.7107 117.577 23.5835C117.492 22.7955 117.449 21.1695 117.449 18.6987V15.8396C117.449 12.5831 117.492 10.3644 117.577 9.19035C118.302 9.06317 118.961 8.99505 119.56 8.99505C121.156 8.99505 122.347 9.1472 123.13 9.44696C123.915 9.74672 124.568 10.2282 125.08 10.8935C125.596 11.5589 125.966 12.331 126.193 13.219C126.417 14.1069 126.529 15.0198 126.529 15.9691C126.529 17.0069 126.417 17.9766 126.193 18.8781H126.195Z"
      fill="white" />
    <path
      d="M186.479 10.185C186.055 9.6468 185.534 9.17672 184.917 8.78385C184.298 8.38871 183.575 8.1003 182.743 7.92317C181.908 7.74604 180.802 7.65747 179.42 7.65747C178.817 7.65747 178.018 7.6711 177.019 7.70062C175.635 7.74831 174.695 7.77102 174.197 7.77102L169.943 7.67791V8.69528C170.789 8.8111 171.28 8.88604 171.41 8.92011C171.542 8.9519 171.641 9.00186 171.704 9.06999C171.742 9.11086 171.774 9.16991 171.796 9.24258C171.874 9.56732 171.922 10.3145 171.951 11.4885C171.984 13.6073 172.005 15.2174 172.005 16.312V18.3558C172.005 20.8584 171.96 22.6683 171.879 23.7811C171.63 23.9695 171.361 24.1512 171.065 24.3261C170.912 24.4169 170.8 24.485 170.739 24.5259V25.1209L174.291 25.0255L177.769 25.1209C179.348 25.1209 180.694 24.937 181.812 24.5645C182.929 24.1944 183.966 23.5903 184.922 22.7501C185.88 21.9144 186.631 20.8675 187.177 19.623C187.726 18.3762 188 16.9569 188 15.3695C188 14.1251 187.816 12.9783 187.448 11.9291C187.228 11.3068 186.905 10.7255 186.479 10.185ZM184.049 18.8781C183.822 19.7751 183.506 20.5495 183.095 21.1967C182.687 21.844 182.265 22.3367 181.816 22.6683C181.372 22.9976 180.856 23.2519 180.264 23.4268C179.463 23.6584 178.543 23.7765 177.508 23.7765C176.847 23.7765 176.153 23.7107 175.431 23.5835C175.348 22.7955 175.305 21.1695 175.305 18.6987V15.8396C175.305 12.5831 175.348 10.3644 175.431 9.19035C176.153 9.06317 176.815 8.99505 177.414 8.99505C179.009 8.99505 180.201 9.1472 180.986 9.44696C181.771 9.74672 182.422 10.2282 182.936 10.8935C183.45 11.5589 183.818 12.331 184.047 13.219C184.273 14.1069 184.383 15.0198 184.383 15.9691C184.383 17.0069 184.271 17.9766 184.047 18.8781H184.049Z"
      fill="white" />
    <path
      d="M148.52 11.3638C148.176 10.7416 147.672 10.1352 147.014 9.5425C146.35 8.94752 145.589 8.49561 144.73 8.17995C143.572 7.76891 142.28 7.56226 140.855 7.56226C139.431 7.56226 138.104 7.77572 136.888 8.20266C135.939 8.54103 135.067 9.09286 134.259 9.8627C133.453 10.628 132.83 11.5591 132.399 12.6582C131.963 13.7573 131.746 15.0427 131.746 16.5188C131.746 18.4309 132.105 20.0296 132.825 21.3104C133.545 22.5958 134.541 23.5655 135.802 24.2218C137.068 24.8803 138.578 25.2096 140.339 25.2096C141.966 25.2096 143.415 24.9394 144.683 24.3966C145.607 23.9924 146.431 23.4179 147.153 22.6662C147.876 21.9145 148.428 21.0561 148.802 20.0887C149.312 18.7874 149.568 17.3817 149.568 15.8648C149.568 14.9677 149.48 14.1479 149.303 13.4054C149.126 12.6628 148.868 11.9792 148.522 11.3615L148.52 11.3638ZM145.291 20.6632C144.849 21.8237 144.237 22.6389 143.458 23.1272C142.679 23.6109 141.795 23.8539 140.808 23.8539C139.742 23.8539 138.816 23.6018 138.033 23.0909C137.25 22.5822 136.608 21.7101 136.108 20.477C135.605 19.2439 135.354 17.6838 135.354 15.8034C135.354 14.4909 135.535 13.2918 135.901 12.2086C136.267 11.1253 136.848 10.3078 137.651 9.75597C138.452 9.19959 139.428 8.92254 140.57 8.92254C141.573 8.92254 142.379 9.09513 142.985 9.44031C143.59 9.79004 144.118 10.2942 144.564 10.9527C145.013 11.6113 145.354 12.4084 145.596 13.3486C145.834 14.2865 145.953 15.3243 145.953 16.4529C145.953 18.1039 145.731 19.5051 145.289 20.6632H145.291Z"
      fill="white" />
    <path
      d="M161.536 7.69629V8.79542C162.399 8.82948 162.897 8.86582 163.034 8.90215C163.173 8.94076 163.265 8.98845 163.319 9.04749C163.373 9.10426 163.409 9.18602 163.431 9.29729C163.483 9.56526 163.535 10.2284 163.573 11.2912C163.584 11.7681 163.588 12.8377 163.588 14.5023V19.7436C163.588 20.5974 163.559 21.5262 163.501 22.5277C163.461 23.2135 163.431 23.6087 163.407 23.7063C163.391 23.7813 163.353 23.8494 163.292 23.9062C163.234 23.9629 163.122 24.0129 162.956 24.0447C162.828 24.0697 162.357 24.0992 161.533 24.1287V25.2301C162.518 25.1665 163.64 25.1347 164.903 25.1347C166.35 25.1347 167.712 25.1665 168.989 25.2301V24.1287C168.226 24.1151 167.766 24.0878 167.609 24.047C167.448 24.0106 167.333 23.9607 167.259 23.8971C167.183 23.8358 167.129 23.7427 167.102 23.6291C167.021 23.368 166.983 22.8116 166.983 21.9486L166.927 19.655V14.5976C166.927 14.4409 166.941 13.335 166.959 11.2775C166.963 10.6757 166.97 10.267 166.981 10.0467C167.003 9.64702 167.046 9.37677 167.1 9.23598C167.12 9.14968 167.167 9.08383 167.23 9.02705C167.293 8.97255 167.401 8.92486 167.551 8.88853C167.701 8.85219 168.179 8.81813 168.985 8.79542V7.69629C167.706 7.76215 166.35 7.79167 164.921 7.79167C163.645 7.79167 162.514 7.75988 161.527 7.69629H161.536Z"
      fill="white" />
    <path
      d="M47.2883 36.1351C46.3886 36.1351 45.7065 35.6627 45.2398 34.718L46.2831 34.0867C46.5905 34.6681 46.9383 34.9565 47.322 34.9565C47.5261 34.9565 47.7034 34.8974 47.856 34.7771C47.9928 34.6476 48.0624 34.5068 48.0624 34.357C48.0624 34.2071 48.013 34.0572 47.9165 33.9073C47.7954 33.7597 47.5576 33.5394 47.203 33.2442C46.521 32.6674 46.0745 32.2268 45.868 31.9203C45.6482 31.6023 45.5382 31.2912 45.5382 30.9892C45.5382 30.5395 45.7065 30.1489 46.0453 29.8174C46.3998 29.4972 46.8126 29.3359 47.2883 29.3359C47.6181 29.3359 47.9255 29.4177 48.2127 29.5767C48.4932 29.722 48.8095 29.9922 49.164 30.3851L48.2396 31.1958C47.9345 30.7575 47.6181 30.5373 47.2883 30.5373C47.1088 30.5373 46.9809 30.5781 46.9046 30.6576C46.8059 30.7348 46.7588 30.8348 46.7588 30.9574C46.7588 31.0505 46.788 31.1481 46.8463 31.2549C46.9069 31.3162 47.0123 31.4138 47.1604 31.5478C47.3085 31.6818 47.5015 31.8567 47.7393 32.0679C47.8829 32.1837 48.0063 32.2904 48.114 32.3835C48.2217 32.4766 48.3114 32.5584 48.3832 32.6265C48.4326 32.6719 48.473 32.7105 48.5089 32.7423C48.5448 32.7718 48.574 32.7968 48.5986 32.8173C49.0362 33.2487 49.2538 33.7415 49.2538 34.2888C49.2538 34.8361 49.0743 35.2767 48.7175 35.6128C48.3608 35.9557 47.8851 36.126 47.2906 36.126L47.2883 36.1351Z"
      fill="white" />
    <path
      d="M55.5115 35.9443H52.036V29.479H55.5115V30.6826H53.2252V32.1269H55.5115V33.2987H53.2252V34.743H55.5115V35.9466V35.9443Z"
      fill="white" />
    <path
      d="M62.3974 35.9533H61.0938L59.9316 33.7551H59.5165V35.9533H58.3004V29.5198H60.3489C60.9098 29.5198 61.3922 29.7219 61.7983 30.1261C62.1977 30.5303 62.3974 31.0209 62.3974 31.5931V31.6522C62.3974 32.5219 61.9823 33.1646 61.1544 33.5779L62.3974 35.951V35.9533ZM60.23 32.556C60.4678 32.556 60.6765 32.4629 60.856 32.279C61.0333 32.0995 61.1208 31.8793 61.1208 31.6204C61.1208 31.3615 61.031 31.1503 60.856 30.9822C60.6832 30.8097 60.4746 30.7234 60.23 30.7234H59.5165V32.556H60.23Z"
      fill="white" />
    <path
      d="M68.1121 35.9533H66.9544L64.695 29.5198H65.9425L68.1705 35.8602L68.1121 35.9533ZM68.6147 34.5976L67.9932 32.824L69.1824 29.5198H70.4254L68.6147 34.5976Z"
      fill="white" />
    <path d="M74.4035 35.9443H73.2143V29.479H74.4035V35.9443Z" fill="white" />
    <path
      d="M80.5782 36.0941C79.5977 36.0941 78.7854 35.7853 78.1415 35.163C77.5065 34.5067 77.1902 33.6824 77.1902 32.6968C77.1902 32.07 77.3405 31.5 77.6389 30.9845C77.9104 30.494 78.3165 30.0921 78.855 29.7809C79.398 29.4812 79.9813 29.3313 80.6073 29.3313C81.1077 29.3313 81.6125 29.4426 82.1241 29.6606C82.5997 29.8945 83.0148 30.2147 83.3671 30.6235L82.5347 31.4387C81.9468 30.8142 81.2939 30.5031 80.5759 30.5031C79.9544 30.5031 79.4383 30.7143 79.03 31.1367C78.6149 31.575 78.4085 32.095 78.4085 32.6968C78.4085 33.151 78.496 33.5325 78.6732 33.8391C78.8505 34.1729 79.1175 34.4341 79.4787 34.6203C79.813 34.8201 80.1877 34.9223 80.6028 34.9223C80.9349 34.9223 81.2513 34.8496 81.5542 34.7089C81.8481 34.5908 82.1734 34.3523 82.5324 33.9912L83.3379 34.861C83.1001 35.0995 82.869 35.297 82.6468 35.456C82.4247 35.615 82.2093 35.7376 82.0029 35.8239C81.5901 36.0033 81.1166 36.0918 80.5759 36.0918L80.5782 36.0941Z"
      fill="white" />
    <path d="M87.3452 35.9443H86.156V29.479H87.3452V35.9443Z" fill="white" />
    <path
      d="M93.4615 36.094C92.5102 36.094 91.7182 35.7648 91.0832 35.1039C90.4482 34.4204 90.1319 33.6278 90.1319 32.7308C90.1319 32.0995 90.2822 31.5295 90.5806 31.0185C90.8678 30.503 91.2717 30.092 91.7922 29.7877C92.3105 29.4856 92.8669 29.3335 93.4615 29.3335C94.3523 29.3335 95.1218 29.6651 95.7748 30.3236C96.4299 30.9958 96.7575 31.7997 96.7575 32.7308C96.7575 33.6619 96.4412 34.4908 95.8062 35.1334C95.1622 35.7738 94.3814 36.0963 93.4593 36.0963L93.4615 36.094ZM93.4615 34.9245C94.0224 34.9245 94.5071 34.7133 94.9154 34.2955C95.3305 33.8844 95.5369 33.3621 95.5369 32.7308C95.5369 32.0995 95.3305 31.6044 94.9154 31.1661C94.5183 30.746 94.0224 30.5348 93.4301 30.5348C92.8378 30.5348 92.3419 30.746 91.9493 31.1661C91.5521 31.5772 91.3547 32.0972 91.3547 32.7308C91.3547 33.453 91.6127 34.023 92.1265 34.4431C92.5124 34.7633 92.9589 34.9245 93.4615 34.9245Z"
      fill="white" />
    <path
      d="M101.079 36.1351C100.179 36.1351 99.4971 35.6627 99.0304 34.718L100.074 34.0867C100.381 34.6681 100.729 34.9565 101.113 34.9565C101.317 34.9565 101.494 34.8974 101.647 34.7771C101.783 34.6476 101.853 34.5068 101.853 34.357C101.853 34.2071 101.804 34.0572 101.707 33.9073C101.586 33.7597 101.348 33.5394 100.994 33.2442C100.312 32.6674 99.865 32.2268 99.6586 31.9203C99.4387 31.6023 99.3288 31.2912 99.3288 30.9892C99.3288 30.5395 99.4971 30.1489 99.8359 29.8174C100.19 29.4972 100.603 29.3359 101.079 29.3359C101.409 29.3359 101.716 29.4177 102.003 29.5767C102.284 29.722 102.6 29.9922 102.955 30.3851L102.03 31.1958C101.725 30.7575 101.409 30.5373 101.079 30.5373C100.899 30.5373 100.771 30.5781 100.695 30.6576C100.596 30.7348 100.549 30.8348 100.549 30.9574C100.549 31.0505 100.579 31.1481 100.637 31.2549C100.697 31.3162 100.803 31.4138 100.951 31.5478C101.099 31.6818 101.292 31.8567 101.53 32.0679C101.673 32.1837 101.797 32.2904 101.905 32.3835C102.012 32.4766 102.102 32.5584 102.174 32.6265C102.223 32.6719 102.264 32.7105 102.299 32.7423C102.335 32.7718 102.362 32.7968 102.389 32.8173C102.824 33.2487 103.042 33.7415 103.042 34.2888C103.042 34.8361 102.863 35.2767 102.508 35.6128C102.151 35.9557 101.676 36.126 101.081 36.126L101.079 36.1351Z"
      fill="white" />
    <path d="M111.667 35.9443H110.446V29.479H113.626V30.6826H111.669V32.1269H113.626V33.2987H111.669V35.9443H111.667Z"
      fill="white" />
    <path d="M117.599 35.9443H116.41V29.479H117.599V35.9443Z" fill="white" />
    <path
      d="M125.495 35.9443H124.335L121.573 31.7045V35.9443H120.388V29.479H121.546L124.277 33.7506V29.479H125.497V35.9443H125.495Z"
      fill="white" />
    <path
      d="M134.434 35.9443H133.155L132.679 34.6204H130.07L129.534 35.9443H128.286L130.752 29.479H131.972L131.999 29.5721L131.378 31.1958L130.514 33.4168H132.239L131.824 32.3654L132.45 30.7416L134.438 35.9421L134.434 35.9443Z"
      fill="white" />
    <path
      d="M142.329 35.9443H141.169L138.407 31.7045V35.9443H137.223V29.479H138.38L141.111 33.7506V29.479H142.332V35.9443H142.329Z"
      fill="white" />
    <path
      d="M148.506 36.0941C147.524 36.0941 146.711 35.7853 146.067 35.163C145.435 34.5067 145.116 33.6824 145.116 32.6968C145.116 32.07 145.264 31.5 145.565 30.9845C145.836 30.494 146.24 30.0921 146.781 29.7809C147.324 29.4812 147.907 29.3313 148.533 29.3313C149.034 29.3313 149.541 29.4426 150.052 29.6606C150.528 29.8945 150.943 30.2147 151.295 30.6235L150.463 31.4387C149.873 30.8142 149.222 30.5031 148.506 30.5031C147.885 30.5031 147.369 30.7143 146.96 31.1367C146.545 31.575 146.339 32.095 146.339 32.6968C146.339 33.151 146.426 33.5325 146.604 33.8391C146.781 34.1729 147.048 34.4341 147.407 34.6203C147.743 34.8201 148.118 34.9223 148.531 34.9223C148.863 34.9223 149.182 34.8496 149.482 34.7089C149.776 34.5908 150.102 34.3523 150.461 33.9912L151.264 34.861C151.026 35.0995 150.797 35.297 150.573 35.456C150.351 35.615 150.135 35.7376 149.929 35.8239C149.518 36.0033 149.043 36.0918 148.502 36.0918L148.506 36.0941Z"
      fill="white" />
    <path d="M155.273 35.9443H154.084V29.479H155.273V35.9443Z" fill="white" />
    <path
      d="M161.533 35.9443H158.058V29.479H161.533V30.6826H159.247V32.1269H161.533V33.2987H159.247V34.743H161.533V35.9466V35.9443Z"
      fill="white" />
    <path
      d="M168.421 35.9533H167.118L165.958 33.7551H165.543V35.9533H164.327V29.5198H166.375C166.936 29.5198 167.418 29.7219 167.825 30.1261C168.224 30.5303 168.424 31.0209 168.424 31.5931V31.6522C168.424 32.5219 168.009 33.1646 167.178 33.5779L168.424 35.951L168.421 35.9533ZM166.252 32.556C166.49 32.556 166.698 32.4629 166.88 32.279C167.057 32.0995 167.145 31.8793 167.145 31.6204C167.145 31.3615 167.057 31.1503 166.88 30.9822C166.705 30.8097 166.496 30.7234 166.252 30.7234H165.538V32.556H166.252Z"
      fill="white" />
    <path
      d="M174.322 36.094C173.371 36.094 172.579 35.7648 171.944 35.1039C171.311 34.4204 170.993 33.6278 170.993 32.7308C170.993 32.0995 171.141 31.5295 171.441 31.0185C171.726 30.503 172.133 30.092 172.653 29.7877C173.171 29.4856 173.728 29.3335 174.322 29.3335C175.211 29.3335 175.983 29.6651 176.636 30.3236C177.291 30.9958 177.618 31.7997 177.618 32.7308C177.618 33.6619 177.302 34.4908 176.667 35.1334C176.025 35.7738 175.242 36.0963 174.322 36.0963V36.094ZM174.322 34.9245C174.883 34.9245 175.368 34.7133 175.776 34.2955C176.191 33.8844 176.398 33.3621 176.398 32.7308C176.398 32.0995 176.191 31.6044 175.776 31.1661C175.379 30.746 174.886 30.5348 174.291 30.5348C173.696 30.5348 173.203 30.746 172.81 31.1661C172.413 31.5772 172.216 32.0972 172.216 32.7308C172.216 33.453 172.471 34.023 172.987 34.4431C173.373 34.7633 173.82 34.9245 174.322 34.9245Z"
      fill="white" />
    <path
      d="M181.94 36.1351C181.04 36.1351 180.358 35.6627 179.891 34.718L180.935 34.0867C181.242 34.6681 181.59 34.9565 181.973 34.9565C182.178 34.9565 182.357 34.8974 182.51 34.7771C182.647 34.6476 182.716 34.5068 182.716 34.357C182.716 34.2071 182.667 34.0572 182.57 33.9073C182.449 33.7597 182.209 33.5394 181.857 33.2442C181.172 32.6674 180.728 32.2268 180.522 31.9203C180.302 31.6023 180.192 31.2912 180.192 30.9892C180.192 30.5395 180.36 30.1489 180.699 29.8174C181.051 29.4972 181.466 29.3359 181.942 29.3359C182.272 29.3359 182.579 29.4177 182.866 29.5767C183.147 29.722 183.463 29.9922 183.818 30.3851L182.893 31.1958C182.588 30.7575 182.272 30.5373 181.942 30.5373C181.762 30.5373 181.635 30.5781 181.558 30.6576C181.46 30.7348 181.412 30.8348 181.412 30.9574C181.412 31.0505 181.442 31.1481 181.5 31.2549C181.561 31.3162 181.666 31.4138 181.814 31.5478C181.962 31.6818 182.155 31.8567 182.391 32.0679C182.534 32.1837 182.66 32.2904 182.765 32.3835C182.871 32.4766 182.963 32.5584 183.035 32.6265C183.084 32.6719 183.124 32.7105 183.16 32.7423C183.196 32.7718 183.225 32.7968 183.25 32.8173C183.685 33.2487 183.905 33.7415 183.905 34.2888C183.905 34.8361 183.726 35.2767 183.369 35.6128C183.012 35.9557 182.537 36.126 181.942 36.126L181.94 36.1351Z"
      fill="white" />
  </g>
  <defs>
    <clipPath id="clip0_26_143">
      <rect width="188" height="43" fill="white" />
    </clipPath>
  </defs>
</svg>