<svg width="117" height="26" viewBox="0 0 117 26" fill="none" xmlns="http://www.w3.org/2000/svg">
  <g clip-path="url(#clip0_26_31)">
    <path
      d="M16.8388 0H3.04832C1.36834 0 0 1.37871 0 3.06826V20.5253C0 22.3602 1.34399 23.2676 2.66363 23.5233V23.5835C2.66363 24.3305 2.90223 24.9522 3.3551 25.3833C3.76901 25.7794 4.35822 25.995 5.01074 25.995H14.8715C16.3713 25.995 17.3745 25.0875 17.3745 23.7339V23.6637C18.6503 23.3629 19.8823 22.2248 19.8823 20.5202V3.06826C19.8823 1.3737 18.5139 0 16.8339 0H16.8388ZM19.2882 20.5253C19.2882 22.0544 18.0854 23.0069 16.9508 23.1323L16.7804 23.1523V23.7439C16.7804 24.867 15.9185 25.3984 14.8764 25.3984H5.01074C3.86153 25.3984 3.26258 24.5611 3.26258 23.5935V23.0069L3.09215 22.9869C1.8845 22.8565 0.598951 22.1446 0.598951 20.5353V3.06826C0.598951 1.7096 1.69946 0.606633 3.04832 0.606633H16.8388C18.1877 0.606633 19.2882 1.71462 19.2882 3.07327V20.5303V20.5253Z"
      fill="#76B700" />
    <path
      d="M16.7365 1.08292H3.15058C2.0598 1.08292 1.17842 1.97532 1.17842 3.06826V16.9958L1.30016 16.9256L6.04307 14.2383C6.14046 14.1381 6.5982 13.7119 7.19228 13.5715C7.78636 13.4362 9.69034 13.4061 9.69034 13.4061H11.1025C11.6528 13.4763 11.6235 14.2584 11.1561 14.3085C11.1561 14.3085 9.68548 14.499 9.56861 14.5391C9.53452 14.5492 8.97453 14.6645 8.78461 14.7246C8.67262 14.7597 8.26358 15.0605 8.24897 15.0756C8.22949 15.0956 8.89661 14.7698 9.03783 14.7597C9.17904 14.7447 9.40791 14.7397 9.47609 14.7497L12.242 14.7397C12.7581 14.7146 13.2743 14.494 13.5714 14.2083L15.7967 12.6892C15.9964 12.5688 16.3908 12.995 16.2301 13.2356L13.844 15.4717C13.6054 15.7123 13.25 15.7925 13.0503 15.7925L11.2632 16.2487L7.08028 16.5947C6.84167 16.5947 6.64689 16.5947 6.4862 16.7952C6.37907 16.9306 2.80484 21.0216 1.90398 22.0594C2.24485 22.3401 2.67823 22.5056 3.15058 22.5056H3.24797C3.4817 21.6583 4.19265 21.0417 5.03021 21.0417H14.9592C15.7967 21.0417 16.5125 21.6583 16.7414 22.5056C17.8273 22.5006 18.7038 21.6132 18.7038 20.5202V3.06826C18.7038 1.97031 17.8224 1.08292 16.7317 1.08292H16.7365ZM12.6315 3.53953L13.5227 2.74238L14.4138 3.53953C14.443 3.55958 14.4625 3.59969 14.4625 3.64481C14.4625 3.715 14.4089 3.77516 14.3505 3.77516H12.6948C12.6315 3.77516 12.5828 3.715 12.5828 3.64481C12.5828 3.59969 12.6023 3.55958 12.6315 3.53953ZM11.7453 5.07366L12.8653 4.1211H14.1849L15.3049 5.07366C15.3341 5.09371 15.3487 5.13382 15.3487 5.17393C15.3487 5.24412 15.3 5.30428 15.2319 5.30428H11.8183C11.755 5.30428 11.7063 5.24913 11.7063 5.17393C11.7063 5.13382 11.7209 5.09371 11.7502 5.07366H11.7453ZM10.3477 7.47011L12.1884 5.69032H14.7644L16.6878 7.4651C16.6878 7.4651 16.7171 7.52025 16.7171 7.55033C16.7171 7.62052 16.6684 7.67567 16.6099 7.67567H10.4208C10.3575 7.67567 10.3136 7.62052 10.3136 7.55033C10.3136 7.52025 10.3234 7.49017 10.3429 7.4651L10.3477 7.47011ZM5.47821 3.53953L6.3742 2.74238L7.27019 3.53953C7.29941 3.5646 7.31889 3.59969 7.31889 3.64481C7.31889 3.715 7.26532 3.77516 7.20689 3.77516H5.55125C5.48795 3.77516 5.43925 3.715 5.43925 3.64481C5.43925 3.59969 5.45873 3.5646 5.48795 3.53953H5.47821ZM4.59196 5.07366L5.71195 4.11608H7.02672L8.14671 5.07366C8.17105 5.09873 8.19053 5.13382 8.19053 5.17393C8.19053 5.24412 8.14184 5.30428 8.07366 5.30428H4.66013C4.59683 5.30428 4.54813 5.24913 4.54813 5.17393C4.54813 5.13382 4.56274 5.09371 4.59196 5.07366ZM3.1944 7.47011L5.03021 5.69032H7.61106L9.53452 7.47011C9.554 7.49518 9.56374 7.52526 9.56374 7.55534C9.56374 7.62553 9.51504 7.68068 9.45661 7.68068H3.27232C3.21388 7.68068 3.16519 7.62553 3.16519 7.55534C3.16519 7.52526 3.17492 7.49518 3.1944 7.47011ZM17.2673 10.4331L13.8002 10.418L14.0388 11.9271C14.0388 12.0123 14.0875 12.0875 14.1557 12.1176C14.2287 12.1427 14.2774 12.2179 14.2774 12.3031C14.2774 12.4134 12.7289 12.4134 12.7289 12.3031C12.7289 12.2179 12.7776 12.1427 12.8507 12.1126C12.9188 12.0875 12.9675 12.0123 12.9675 11.9271L13.2013 10.418L10.3721 10.4281C10.3721 10.4281 10.3623 10.4281 10.3575 10.4281H9.87539H9.54913C9.54913 10.4281 9.54426 10.4281 9.53939 10.4281L6.65176 10.418L6.89524 11.9271C6.89524 12.0123 6.94393 12.0875 7.01211 12.1126C7.08515 12.1377 7.13385 12.2129 7.13385 12.3031C7.13385 12.4134 5.58534 12.4134 5.58534 12.3031C5.58534 12.2129 5.6389 12.1427 5.70708 12.1126C5.77525 12.0875 5.82395 12.0123 5.82395 11.9271L6.05768 10.418L2.62954 10.4281C2.62954 10.4281 2.27406 10.4632 2.25945 10.3128C2.24485 10.1824 2.32763 10.1172 2.32763 10.1172L4.13422 8.05168H8.63366L9.95817 9.63093L11.2875 8.05168H15.787L16.4395 8.84882L17.5449 10.1172C17.5449 10.1172 17.6277 10.1824 17.6131 10.3128C17.5984 10.4331 17.3696 10.4331 17.2771 10.4281L17.2673 10.4331Z"
      fill="#76B700" />
    <path
      d="M13.9122 23.3228C13.8197 23.3228 13.7467 23.3779 13.7126 23.4531C13.7028 23.4732 13.698 23.5033 13.698 23.5434C13.7028 23.6988 13.7808 23.8392 13.9366 23.8392C14.0534 23.8392 14.1314 23.7289 14.1314 23.5785C14.1314 23.4431 14.0583 23.3278 13.9122 23.3278V23.3228Z"
      fill="#76B700" />
    <path
      d="M12.763 22.8214C12.651 22.8214 12.5682 22.9267 12.5682 23.0771C12.5682 23.2025 12.6364 23.3128 12.7728 23.3128C12.8701 23.3128 12.9335 23.2676 12.9627 23.2175C12.9724 23.1975 12.9773 23.1724 12.9773 23.1323C12.9773 22.9769 12.9237 22.8214 12.763 22.8214Z"
      fill="#76B700" />
    <path
      d="M8.80896 22.7964C8.73592 22.7964 8.68235 22.8014 8.65314 22.8114V23.8041C8.68235 23.8041 8.73105 23.8041 8.77001 23.8041C9.08165 23.8041 9.28131 23.6386 9.28131 23.2727C9.28131 22.9568 9.09626 22.7914 8.80409 22.7914L8.80896 22.7964Z"
      fill="#76B700" />
    <path
      d="M14.9835 23.1323L14.7887 23.4531L15.115 23.4582V23.1323C15.115 23.047 15.1199 22.9518 15.1247 22.8615H15.115C15.0712 22.9568 15.0273 23.042 14.9787 23.1323H14.9835Z"
      fill="#76B700" />
    <path
      d="M14.964 21.4778H5.03509C4.27058 21.4778 3.64728 22.2599 3.64728 23.1323V23.5885C3.64728 24.4609 4.26571 24.9722 5.03509 24.9722H14.964C15.7286 24.9722 16.3519 24.4609 16.3519 23.5885V23.1323C16.3519 22.2599 15.7334 21.4778 14.964 21.4778ZM5.77526 23.8793C5.61943 24.0096 5.37109 24.0748 5.07892 24.0748C4.90361 24.0748 4.77701 24.0648 4.69423 24.0548V22.5658C4.82083 22.5457 4.98153 22.5307 5.15196 22.5307C5.43926 22.5307 5.62917 22.5858 5.77039 22.6911C5.92621 22.8114 6.0236 22.9969 6.0236 23.2626C6.0236 23.5534 5.92134 23.754 5.77526 23.8793ZM7.09977 24.0598H6.14047V22.5407H7.07055V22.8214H6.48134V23.1373H7.03647V23.418H6.48134V23.779H7.09977V24.0598ZM7.58672 24.0848C7.41629 24.0848 7.24585 24.0397 7.1582 23.9896L7.22638 23.7088C7.3189 23.754 7.46011 23.8041 7.6062 23.8041C7.76202 23.8041 7.84481 23.7389 7.84481 23.6386C7.84481 23.5384 7.77176 23.4882 7.59159 23.4281C7.34325 23.3378 7.17768 23.1975 7.17768 22.9769C7.17768 22.7162 7.39681 22.5206 7.74742 22.5206C7.92272 22.5206 8.04446 22.5557 8.13211 22.5958L8.0542 22.8716C7.99576 22.8415 7.88376 22.8014 7.74255 22.8014C7.60133 22.8014 7.52342 22.8716 7.52342 22.9468C7.52342 23.0471 7.6062 23.0872 7.80098 23.1624C8.0688 23.2626 8.19054 23.398 8.19054 23.6136C8.19054 23.8693 8.00063 24.0848 7.58672 24.0848ZM9.39818 23.8793C9.23749 24.0096 8.99401 24.0748 8.70184 24.0748C8.52654 24.0748 8.39993 24.0648 8.31228 24.0548V22.5658C8.43889 22.5457 8.60445 22.5307 8.77002 22.5307C9.05732 22.5307 9.24723 22.5858 9.38844 22.6911C9.54427 22.8114 9.64653 22.9969 9.64653 23.2626C9.64653 23.5534 9.5394 23.754 9.39818 23.8793ZM10.7178 24.0598H9.75853V22.5407H10.6886V22.8214H10.0994V23.1373H10.6545V23.418H10.0994V23.779H10.7178V24.0598ZM11.9985 24.0598H11.6722V22.9017L11.3947 23.037L11.3363 22.7813L11.7209 22.6008H11.9985V24.0648V24.0598ZM13.0698 23.8793C12.9286 24.0046 12.7387 24.0698 12.5147 24.0798C12.4562 24.0798 12.3978 24.0798 12.3589 24.0798V23.8141C12.4027 23.8191 12.4368 23.8141 12.5049 23.8141C12.6121 23.8041 12.7143 23.779 12.7922 23.7239C12.8896 23.6587 12.9529 23.5584 12.9773 23.4531H12.9724C12.9091 23.5183 12.8117 23.5584 12.6802 23.5584C12.4368 23.5584 12.2274 23.388 12.2274 23.1022C12.2274 22.8164 12.4562 22.5758 12.7776 22.5758C13.1526 22.5758 13.3279 22.8666 13.3279 23.2075C13.3279 23.5133 13.2305 23.7339 13.0747 23.8843L13.0698 23.8793ZM15.6068 23.7138H15.4364V24.0648H15.115V23.7138H14.4722V23.5634C14.4722 23.8542 14.2531 24.0899 13.9366 24.0899C13.547 24.0899 13.3571 23.7991 13.3571 23.4481C13.3571 23.1724 13.4594 22.9418 13.6201 22.7914C13.7613 22.661 13.9512 22.5908 14.1801 22.5758C14.2434 22.5708 14.2872 22.5758 14.3164 22.5758V22.8365C14.2774 22.8365 14.2385 22.8365 14.1849 22.8415C13.883 22.8666 13.7515 23.022 13.7126 23.1924H13.7174C13.7905 23.1223 13.8928 23.0771 14.0291 23.0771C14.2726 23.0771 14.4771 23.2476 14.4771 23.5534V23.4882L15.0274 22.5958H15.4461V23.4531H15.6166V23.7088L15.6068 23.7138Z"
      fill="#76B700" />
    <path
      d="M5.18604 22.7964C5.11299 22.7964 5.05943 22.8014 5.03021 22.8114V23.8041C5.05943 23.8041 5.10812 23.8041 5.15195 23.8041C5.4636 23.8041 5.66812 23.6386 5.66812 23.2727C5.66812 22.9568 5.48308 22.7914 5.19091 22.7914L5.18604 22.7964Z"
      fill="#76B700" />
    <path
      d="M38.9562 9.1747C39.7012 9.1747 40.2807 9.01427 40.5777 8.86386L40.7433 8.77863L40.4755 7.72079L40.2222 7.84612C39.9544 7.98149 39.5259 8.0617 39.112 8.0617C37.8751 8.0617 37.1301 7.26957 37.1301 5.94601C37.1301 4.62244 37.8849 3.77015 39.1461 3.77015C39.6817 3.77015 40.0372 3.90551 40.2076 3.99074L40.456 4.11107L40.7676 3.04319L40.6021 2.95295C40.4365 2.86772 39.969 2.66718 39.1315 2.66718C37.2275 2.66718 35.8932 4.02584 35.8932 5.97108C35.8932 7.91631 37.1009 9.16969 38.9708 9.16969L38.9562 9.1747Z"
      fill="#231F20" />
    <path
      d="M43.3728 7.2445H45.0772L45.6907 9.07944H46.9763L44.858 2.77246H43.6309L41.5175 9.07944H42.7739L43.3728 7.2445ZM44.1471 4.79792C44.1714 4.70767 44.2007 4.62245 44.225 4.53722C44.2493 4.62746 44.2786 4.7177 44.3127 4.81296L44.7753 6.18666H43.6845L44.1471 4.79792Z"
      fill="#231F20" />
    <path
      d="M48.6222 8.06672C48.3495 8.06672 48.1547 8.00154 48.0865 7.97146L47.8236 7.86618L47.6288 8.94408L47.7992 9.01928C48.0183 9.10953 48.3836 9.1747 48.6806 9.1747C49.5815 9.1747 50.6528 8.78365 50.6528 6.91361V2.77246H49.45V6.85345C49.45 7.97648 49.0604 8.06672 48.6222 8.06672Z"
      fill="#231F20" />
    <path
      d="M51.4075 9.07944H52.6639L53.2628 7.2445H54.972L55.5856 9.07944H56.8663L54.7432 2.77246H53.516L51.4027 9.07944H51.4075ZM54.0322 4.79792C54.0614 4.70767 54.0858 4.62245 54.1101 4.53722C54.1345 4.62746 54.1686 4.7177 54.1978 4.81296L54.6555 6.18666H53.5647L54.0273 4.79792H54.0322Z"
      fill="#231F20" />
    <path
      d="M67.589 9.07944H68.7966L67.0533 2.77246H65.7629L64.6818 5.7555C64.5212 6.21674 64.3897 6.6128 64.2825 6.96375C64.1754 6.59776 64.0537 6.2017 63.9027 5.7555L62.8704 2.77246H61.58L59.7928 9.07944H60.9713L61.0248 8.92403C61.1417 8.57809 61.9695 6.17162 62.3591 4.72773C62.4711 5.1238 62.6123 5.57 62.7925 6.10644L63.7761 9.04435H64.6672L65.7385 6.05631C65.9284 5.52989 66.1037 5.01851 66.2547 4.5322L67.5792 9.07944H67.589Z"
      fill="#231F20" />
    <path
      d="M69.1082 5.97609C69.1082 7.86117 70.2672 9.1747 71.9277 9.1747C73.374 9.1747 74.8299 8.15195 74.8299 5.86579C74.8299 3.95565 73.6953 2.67721 72.0154 2.67721C70.3354 2.67721 69.1131 4.03587 69.1131 5.9811L69.1082 5.97609ZM73.5785 5.90089C73.5785 6.99383 73.0818 8.0968 71.9667 8.0968C70.8515 8.0968 70.3646 6.98882 70.3646 5.96105C70.3646 4.86309 70.8613 3.75511 71.9764 3.75511C73.0915 3.75511 73.5785 4.86811 73.5785 5.90089Z"
      fill="#231F20" />
    <path
      d="M79.9088 4.54724C79.9088 4.03085 79.7189 3.5646 79.3829 3.26379C78.9788 2.89279 78.4139 2.72734 77.5617 2.72734C77.0163 2.72734 76.4661 2.77748 76.0911 2.85268L75.9061 2.89279V9.07944H77.1089V6.91863C77.8831 7.77593 78.8278 8.83378 78.9106 8.96413L78.9788 9.08446H80.2643L80.0841 8.74354C79.9819 8.55303 78.8765 7.30467 78.2094 6.55765C79.3342 6.48747 79.9088 5.81566 79.9088 4.55226V4.54724ZM77.6396 5.50983H77.1137V3.80023C77.2355 3.78519 77.4059 3.77015 77.6153 3.77015C78.3409 3.77516 78.7061 4.06595 78.7061 4.62746C78.7061 5.18897 78.297 5.50482 77.6396 5.50482V5.50983Z"
      fill="#231F20" />
    <path
      d="M84.8319 3.87042V2.77246H81.2626V9.07944H84.9585V7.98149H82.4653V6.34207H84.7053V5.24913H82.4653V3.87042H84.8319Z"
      fill="#231F20" />
    <path d="M86.3025 2.77246V9.07944H89.9644V7.98149H87.5053V2.77246H86.3025Z" fill="#231F20" />
    <path d="M92.3797 2.77246H91.1721V9.07944H92.3797V2.77246Z" fill="#231F20" />
    <path
      d="M95.4329 7.2445H97.1372L97.7508 9.07944H99.0315L96.9132 2.77246H95.6812L93.5727 9.07944H94.8291L95.428 7.2445H95.4329ZM96.2023 4.79792C96.2266 4.71269 96.2558 4.62245 96.2802 4.53722C96.3094 4.62746 96.3386 4.7177 96.3678 4.81296L96.8304 6.18666H95.7397L96.2023 4.79792Z"
      fill="#231F20" />
    <path
      d="M115.028 13.9576C115.481 13.9325 115.71 13.6518 115.71 13.1354C115.71 12.9248 115.632 12.7343 115.5 12.6089C115.339 12.4585 115.111 12.3884 114.77 12.3884C114.551 12.3884 114.103 12.4585 114.103 12.4585V14.9904H114.585V14.103C114.896 14.4539 115.335 14.9904 115.335 14.9904H115.753C115.753 14.9904 115.787 14.9904 115.797 14.9803C115.807 14.9753 115.807 14.9653 115.802 14.9553C115.802 14.9502 115.792 14.9352 115.787 14.9302C115.637 14.7397 115.242 14.2032 115.023 13.9576H115.028ZM114.585 13.5314V12.8346C114.633 12.8295 114.702 12.8245 114.789 12.8245C115.081 12.8245 115.227 12.9449 115.227 13.1755C115.227 13.4061 115.062 13.5314 114.799 13.5314H114.585Z"
      fill="#231F20" />
    <path
      d="M114.823 11.2954C113.606 11.2954 112.613 12.3583 112.613 13.6718C112.613 14.9101 113.528 15.9279 114.677 16.0081H114.965C116.099 15.9279 117 14.9101 117 13.6718C117 12.3633 116.021 11.2954 114.823 11.2954ZM114.823 15.4817C113.883 15.4817 113.119 14.6695 113.119 13.6668C113.119 12.6641 113.883 11.8168 114.823 11.8168C115.763 11.8168 116.498 12.6641 116.498 13.6668C116.498 14.6695 115.749 15.4817 114.823 15.4817Z"
      fill="#231F20" />
    <path
      d="M34.0136 11.9171V11.2653H30.7364V11.9171C30.9458 11.9221 31.199 11.9422 31.5058 11.9722C31.6421 11.9823 31.7249 11.9923 31.759 12.0073C31.8028 12.0274 31.8321 12.0575 31.8613 12.0976C31.8856 12.1377 31.9002 12.2029 31.9002 12.2881C31.9002 12.3482 31.8954 12.4084 31.8856 12.4686C31.8418 12.6741 31.7103 13.0702 31.5009 13.6618C31.2088 14.504 31.0432 14.9703 31.0042 15.0605L29.4557 19.1465L27.693 14.5642C27.6735 14.5091 27.6589 14.4639 27.6491 14.4288C27.6394 14.3887 27.542 14.1431 27.3667 13.6868C27.0599 12.8947 26.909 12.4285 26.909 12.2781C26.909 12.2029 26.9285 12.1427 26.9674 12.0926C27.0064 12.0474 27.0745 12.0123 27.1817 11.9873C27.357 11.9422 27.6443 11.9221 28.0338 11.9121V11.2603C28.0338 11.2603 24.6106 11.3004 23.4954 11.2603V11.9121C23.9337 11.9221 24.221 11.9672 24.3622 12.0474C24.4547 12.1026 24.5911 12.3182 24.7664 12.6992C24.9466 13.0752 25.4238 14.2534 26.198 16.2287L27.1865 18.7455C27.5469 19.683 27.9364 20.8562 28.326 21.899H29.3876C29.67 21.0517 33.103 12.1828 33.2296 12.0775C33.3027 12.0174 33.5656 11.9672 34.0185 11.9221L34.0136 11.9171Z"
      fill="#231F20" />
    <path
      d="M40.8212 21.1921C40.7676 21.172 40.7189 21.1419 40.68 21.1018C40.641 21.0617 40.5923 20.9965 40.5485 20.9063L40.2709 20.2144L39.8376 19.1816L36.7211 11.2954H35.7325L35.119 13.01L33.2978 17.8731C32.9569 18.7956 32.7183 19.4123 32.6014 19.7231C32.3385 20.3849 32.1778 20.7709 32.1242 20.8762C32.0707 20.9815 32.022 21.0517 31.9684 21.1018C31.9197 21.1519 31.8564 21.187 31.7834 21.2071C31.7103 21.2322 31.4863 21.2572 31.1114 21.2873V21.919H34.3204V21.2873C33.7701 21.2673 33.4341 21.2221 33.327 21.1519C33.254 21.1018 33.215 21.0166 33.215 20.8963C33.215 20.7258 33.3319 20.2896 33.5607 19.5978L33.8675 18.6953H37.4564L38.0553 20.3548C38.1624 20.6406 38.216 20.8461 38.216 20.9715C38.216 21.0767 38.1819 21.1469 38.1089 21.187C38.0358 21.2271 37.7193 21.2622 37.1545 21.2873V21.919H41.537V21.2873C41.4007 21.2723 41.3033 21.2572 41.2302 21.2522C41.0111 21.2372 40.8748 21.2171 40.8212 21.1971V21.1921ZM35.6692 17.843C35.119 17.843 34.6272 17.833 34.1889 17.8079L35.6157 13.9275L37.1009 17.8079C36.6772 17.828 36.2 17.843 35.6692 17.843Z"
      fill="#231F20" />
    <path
      d="M65.6947 21.1921C65.6412 21.172 65.5925 21.1419 65.5535 21.1018C65.5097 21.0617 65.4659 20.9965 65.422 20.9063L65.1445 20.2144L64.7159 19.1816L61.5994 11.2954H60.6109L59.9974 13.01L58.1762 17.8731C57.8353 18.7956 57.6016 19.4123 57.4798 19.7231C57.2169 20.3849 57.0562 20.7709 57.0026 20.8762C56.9491 20.9815 56.8955 21.0517 56.8468 21.1018C56.7932 21.1519 56.7348 21.187 56.6618 21.2071C56.5887 21.2322 56.3647 21.2572 55.9898 21.2873V21.919H59.2036V21.2873C58.6485 21.2673 58.3174 21.2221 58.2054 21.1519C58.1323 21.1018 58.0934 21.0166 58.0934 20.8963C58.0934 20.7258 58.2103 20.2896 58.4391 19.5978L58.7459 18.6953H62.3347L62.9337 20.3548C63.0408 20.6406 63.0944 20.8461 63.0944 20.9715C63.0944 21.0767 63.0603 21.1469 62.9873 21.187C62.9142 21.2271 62.5977 21.2622 62.0328 21.2873V21.919H66.4203V21.2873C66.2839 21.2723 66.1817 21.2572 66.1135 21.2522C65.8944 21.2372 65.758 21.2171 65.7045 21.1971L65.6947 21.1921ZM60.5428 17.843C59.9925 17.843 59.5007 17.833 59.0624 17.8079L60.4892 13.9275L61.9695 17.8079C61.5508 17.828 61.0735 17.843 60.5379 17.843H60.5428Z"
      fill="#231F20" />
    <path
      d="M47.7116 20.4751C47.6678 20.6255 47.6337 20.7208 47.5947 20.7559C47.5557 20.791 46.8691 20.9915 46.1631 20.9915C45.9342 20.9915 45.4959 20.9715 44.858 20.9364C44.8532 20.786 44.8483 20.3548 44.8434 19.6429C44.8434 18.931 44.8337 18.214 44.8288 17.4921C44.8288 16.1234 44.8239 15.3914 44.8239 15.3012C44.8239 14.4539 44.8337 13.752 44.8532 13.1955C44.8726 12.639 44.897 12.3282 44.9165 12.258C44.9408 12.1878 44.9798 12.1377 45.0285 12.1076C45.1453 12.0424 45.4667 11.9973 45.9975 11.9722V11.3054C45.2379 11.3455 42.1555 11.3455 41.5662 11.3054V11.9722C42.1749 11.9973 42.5353 12.0474 42.6424 12.1276C42.696 12.1577 42.7301 12.2029 42.7495 12.263C42.7885 12.3984 42.8226 12.9448 42.8323 13.8974C42.8372 14.2734 42.8421 15.2561 42.8421 16.8554C42.8421 17.9433 42.8323 18.8758 42.8177 19.6529C42.7982 20.43 42.7788 20.8812 42.7544 21.0066C42.7544 21.0366 42.7398 21.0667 42.7203 21.0918C42.6911 21.1319 42.3843 21.4828 42.2626 21.538V21.929C43.1927 21.8939 47.2538 21.929 47.3366 21.929C47.9307 21.929 48.179 21.9491 48.3154 21.914C48.3154 21.8187 48.3349 21.4327 48.3738 20.9464L48.5491 19.4123C48.5491 19.3872 48.554 19.302 48.5686 19.1616H47.9891C47.9015 19.6529 47.809 20.0941 47.7164 20.4751H47.7116Z"
      fill="#231F20" />
    <path
      d="M94.6927 20.4751C94.6489 20.6255 94.6099 20.7208 94.5758 20.7559C94.5369 20.791 93.8454 20.9915 93.1442 20.9915C92.9105 20.9915 92.4771 20.9715 91.8392 20.9364C91.8294 20.786 91.8294 20.3548 91.8246 19.6429C91.8246 18.931 91.8148 18.214 91.8099 17.4921C91.8099 16.1234 91.8051 15.3914 91.8051 15.3012C91.8051 14.4539 91.8148 13.752 91.8343 13.1955C91.8538 12.639 91.8781 12.3282 91.9025 12.258C91.9268 12.1878 91.9609 12.1377 92.0145 12.1076C92.1313 12.0424 92.4527 11.9973 92.9835 11.9722V11.3054C92.2239 11.3455 89.1415 11.3455 88.5522 11.3054V11.9722C89.1609 11.9973 89.5213 12.0474 89.6284 12.1276C89.682 12.1577 89.7161 12.2029 89.7355 12.263C89.7794 12.3984 89.8086 12.9448 89.8232 13.8974C89.8329 14.2734 89.8329 15.2561 89.8329 16.8554C89.8329 17.9433 89.8232 18.8758 89.8086 19.6529C89.7891 20.43 89.7696 20.8812 89.7453 21.0066C89.7453 21.0366 89.7307 21.0667 89.7112 21.0918C89.6868 21.1319 89.3752 21.4828 89.2535 21.538V21.929C90.1835 21.8939 94.2447 21.929 94.3275 21.929C94.9216 21.929 95.1699 21.9491 95.3063 21.914C95.3063 21.8187 95.3257 21.4327 95.3647 20.9464L95.54 19.4123C95.54 19.3872 95.5449 19.302 95.5595 19.1616H94.98C94.8924 19.6529 94.7998 20.0941 94.7073 20.4751H94.6927Z"
      fill="#231F20" />
    <path
      d="M54.9185 20.4751C54.8795 20.6255 54.8405 20.7208 54.8016 20.7559C54.7626 20.791 54.0712 20.9915 53.3699 20.9915C53.1362 20.9915 52.7028 20.9715 52.0649 20.9364C52.06 20.786 52.0503 20.3548 52.0503 19.6429C52.0503 18.931 52.0406 18.214 52.0357 17.4921C52.0357 16.1234 52.026 15.3914 52.026 15.3012C52.026 14.4539 52.0357 13.752 52.0552 13.1955C52.0747 12.639 52.099 12.3282 52.1185 12.258C52.1428 12.1878 52.1769 12.1377 52.2305 12.1076C52.3473 12.0424 52.6687 11.9973 53.1995 11.9722V11.3054C52.4399 11.3455 49.3575 11.3455 48.7682 11.3054V11.9722C49.3769 11.9973 49.7373 12.0474 49.8444 12.1276C49.898 12.1577 49.9321 12.2029 49.9515 12.263C49.9954 12.3984 50.0246 12.9448 50.0343 13.8974C50.0441 14.2734 50.0441 15.2561 50.0441 16.8554C50.0441 17.9433 50.0343 18.8758 50.0148 19.6529C49.9954 20.43 49.9759 20.8812 49.9515 21.0066C49.9515 21.0366 49.9369 21.0667 49.9175 21.0918C49.8882 21.1319 49.5815 21.4828 49.4597 21.538V21.929C50.3898 21.8939 54.451 21.929 54.5338 21.929C55.1278 21.929 55.3762 21.9491 55.5125 21.914C55.5125 21.8187 55.532 21.4327 55.571 20.9464L55.7463 19.4123C55.7463 19.3872 55.7511 19.302 55.7657 19.1616H55.1863C55.0986 19.6529 55.0061 20.0941 54.9136 20.4751H54.9185Z"
      fill="#231F20" />
    <path
      d="M76.4515 12.8245C76.1983 12.4986 75.8915 12.2129 75.5214 11.9772C75.1562 11.7366 74.7228 11.5661 74.231 11.4558C73.7343 11.3506 73.0769 11.2954 72.2588 11.2954C71.9033 11.2954 71.4261 11.3054 70.8321 11.3205C70.0091 11.3506 69.4491 11.3656 69.1521 11.3656L66.6248 11.3105V11.9271C67.1312 11.9973 67.4185 12.0424 67.4964 12.0625C67.5792 12.0825 67.6328 12.1126 67.6717 12.1527C67.6961 12.1778 67.7107 12.2129 67.7302 12.258C67.774 12.4535 67.8032 12.9047 67.8178 13.6167C67.8373 14.8951 67.8519 15.8727 67.8519 16.5345V17.7678C67.8519 19.2819 67.8276 20.3749 67.774 21.0467C67.6279 21.162 67.4672 21.2723 67.2919 21.3776C67.1994 21.4327 67.1361 21.4728 67.0971 21.4979V21.8588L69.2056 21.7987L71.2752 21.8588C72.2101 21.8588 73.0136 21.7486 73.6759 21.5229C74.343 21.2973 74.9565 20.9314 75.5263 20.425C76.096 19.9186 76.544 19.2869 76.8703 18.5349C77.1916 17.7829 77.3572 16.9256 77.3572 15.963C77.3572 15.211 77.2452 14.5191 77.031 13.8824C76.8995 13.5064 76.7096 13.1554 76.4563 12.8295L76.4515 12.8245ZM75.0052 18.0787C74.8689 18.6201 74.679 19.0914 74.4404 19.4774C74.1969 19.8685 73.9437 20.1693 73.6807 20.3698C73.4178 20.5704 73.111 20.7258 72.7555 20.8311C72.2783 20.9715 71.7329 21.0416 71.1194 21.0416C70.7249 21.0416 70.3159 21.0015 69.8825 20.9263C69.8338 20.4501 69.8046 19.4674 69.8046 17.9734V16.2437C69.8046 14.2734 69.8289 12.9348 69.8825 12.2229C70.311 12.1477 70.7054 12.1076 71.0609 12.1076C72.0105 12.1076 72.7166 12.1978 73.184 12.3783C73.6515 12.5588 74.0411 12.8496 74.343 13.2507C74.6498 13.6518 74.8689 14.118 75.0052 14.6545C75.1367 15.1909 75.2049 15.7424 75.2049 16.3189C75.2049 16.9456 75.1367 17.5322 75.0052 18.0787Z"
      fill="#231F20" />
    <path
      d="M110.835 12.8245C110.582 12.4986 110.275 12.2129 109.905 11.9772C109.535 11.7366 109.107 11.5661 108.615 11.4558C108.118 11.3506 107.461 11.2954 106.643 11.2954C106.282 11.2954 105.81 11.3054 105.216 11.3205C104.393 11.3506 103.833 11.3656 103.536 11.3656L101.008 11.3105V11.9271C101.51 11.9973 101.802 12.0424 101.88 12.0625C101.958 12.0825 102.016 12.1126 102.055 12.1527C102.08 12.1778 102.094 12.2129 102.109 12.258C102.158 12.4535 102.182 12.9047 102.202 13.6167C102.221 14.8951 102.236 15.8727 102.236 16.5345V17.7678C102.236 19.2819 102.211 20.3749 102.163 21.0467C102.016 21.162 101.856 21.2723 101.68 21.3776C101.588 21.4327 101.525 21.4728 101.486 21.4979V21.8588L103.594 21.7987L105.659 21.8588C106.599 21.8588 107.397 21.7486 108.064 21.5229C108.727 21.2973 109.345 20.9314 109.915 20.425C110.485 19.9186 110.933 19.2869 111.254 18.5349C111.58 17.7829 111.741 16.9256 111.741 15.963C111.741 15.211 111.629 14.5191 111.415 13.8824C111.283 13.5064 111.093 13.1554 110.84 12.8295L110.835 12.8245ZM109.389 18.0787C109.253 18.6201 109.068 19.0914 108.824 19.4774C108.581 19.8685 108.332 20.1693 108.064 20.3698C107.801 20.5704 107.495 20.7258 107.144 20.8311C106.667 20.9715 106.121 21.0416 105.508 21.0416C105.113 21.0416 104.704 21.0015 104.271 20.9263C104.222 20.4501 104.198 19.4674 104.198 17.9734V16.2437C104.198 14.2734 104.222 12.9348 104.271 12.2229C104.7 12.1477 105.094 12.1076 105.449 12.1076C106.399 12.1076 107.105 12.1978 107.573 12.3783C108.04 12.5588 108.425 12.8496 108.732 13.2507C109.038 13.6518 109.257 14.118 109.389 14.6545C109.525 15.1909 109.589 15.7424 109.589 16.3189C109.589 16.9456 109.52 17.5322 109.389 18.0787Z"
      fill="#231F20" />
    <path
      d="M88.2747 13.5364C88.0702 13.1604 87.7731 12.7944 87.3787 12.4335C86.9843 12.0725 86.5314 11.8018 86.0201 11.6113C85.3335 11.3606 84.5641 11.2403 83.7168 11.2403C82.8695 11.2403 82.0807 11.3706 81.36 11.6263C80.7951 11.8319 80.2789 12.1627 79.7968 12.629C79.3196 13.0902 78.9496 13.6568 78.6915 14.3185C78.4334 14.9803 78.3019 15.7624 78.3019 16.6548C78.3019 17.813 78.5162 18.7755 78.9447 19.5526C79.3732 20.3297 79.9624 20.9163 80.7123 21.3124C81.4622 21.7084 82.3631 21.909 83.41 21.909C84.3791 21.909 85.241 21.7435 85.9909 21.4177C86.5411 21.172 87.0281 20.8261 87.4566 20.3698C87.8851 19.9136 88.2163 19.3972 88.4354 18.8106C88.7373 18.0235 88.8882 17.1762 88.8882 16.2588C88.8882 15.7173 88.8347 15.221 88.7324 14.7748C88.6253 14.3286 88.4743 13.9125 88.2698 13.5364H88.2747ZM86.3561 19.1566C86.0931 19.8585 85.7279 20.3498 85.2653 20.6456C84.8027 20.9364 84.2768 21.0868 83.6925 21.0868C83.0594 21.0868 82.5092 20.9364 82.0417 20.6255C81.5742 20.3197 81.1944 19.7933 80.8974 19.0463C80.6003 18.2993 80.4494 17.3567 80.4494 16.2187C80.4494 15.4265 80.5565 14.6996 80.7756 14.0478C80.9948 13.3911 81.3405 12.8997 81.8177 12.5638C82.2949 12.2279 82.8744 12.0625 83.5513 12.0625C84.1453 12.0625 84.6274 12.1678 84.9878 12.3733C85.3481 12.5839 85.6598 12.8897 85.9276 13.2858C86.1954 13.6818 86.3951 14.1681 86.5411 14.7347C86.6824 15.3012 86.7554 15.9279 86.7554 16.6097C86.7554 17.6074 86.6239 18.4547 86.361 19.1566H86.3561Z"
      fill="#231F20" />
    <path
      d="M96.0075 11.3205V11.9873C96.5188 12.0073 96.8158 12.0274 96.8986 12.0524C96.9814 12.0775 97.0349 12.1026 97.069 12.1427C97.0983 12.1778 97.1226 12.2279 97.1372 12.2931C97.1664 12.4535 97.1956 12.8546 97.22 13.4963C97.2249 13.7871 97.2297 14.4339 97.2297 15.4366V18.6051C97.2297 19.1215 97.2103 19.683 97.1762 20.2896C97.1518 20.7057 97.1323 20.9414 97.1177 21.0015C97.108 21.0467 97.0836 21.0868 97.0496 21.1219C97.0155 21.157 96.9473 21.187 96.8499 21.2071C96.772 21.2221 96.4944 21.2422 96.0026 21.2572V21.924C96.587 21.8839 97.2541 21.8639 98.004 21.8639C98.8659 21.8639 99.6742 21.8839 100.434 21.924V21.2572C99.981 21.2472 99.7083 21.2322 99.6109 21.2071C99.5135 21.187 99.4454 21.157 99.4015 21.1169C99.3577 21.0818 99.3236 21.0216 99.309 20.9564C99.2603 20.801 99.236 20.4601 99.236 19.9387L99.2019 18.5499V15.4917C99.2019 15.3965 99.2116 14.7297 99.2214 13.4863C99.2214 13.1203 99.2262 12.8747 99.236 12.7393C99.2506 12.4986 99.2749 12.3332 99.309 12.248C99.3236 12.1978 99.348 12.1577 99.3869 12.1226C99.4259 12.0875 99.4892 12.0625 99.5768 12.0374C99.6645 12.0123 99.9518 11.9973 100.429 11.9823V11.3155C99.6694 11.3556 98.8659 11.3756 98.0137 11.3756C97.2541 11.3756 96.5821 11.3556 95.9977 11.3155L96.0075 11.3205Z"
      fill="#231F20" />
  </g>
  <defs>
    <clipPath id="clip0_26_31">
      <rect width="117" height="26" fill="white" />
    </clipPath>
  </defs>
</svg>