<svg width="24" height="24" viewBox="0 0 24 24" fill="none" xmlns="http://www.w3.org/2000/svg">
<g clip-path="url(#clip0_473_51)">
<path fill-rule="evenodd" clip-rule="evenodd" d="M12 1C5.92487 1 1 5.92487 1 12C1 18.0751 5.92487 23 12 23C18.0751 23 23 18.0751 23 12C23 5.92487 18.0751 1 12 1ZM0 12C0 5.37258 5.37258 0 12 0C18.6274 0 24 5.37258 24 12C24 18.6274 18.6274 24 12 24C5.37258 24 0 18.6274 0 12Z" fill="black"/>
<path d="M11.2922 13.526C11.2922 13.0407 11.3996 12.6394 11.6142 12.322C11.8382 12.0047 12.1602 11.6547 12.5802 11.272C12.8882 10.992 13.1122 10.7587 13.2522 10.572C13.4016 10.376 13.4762 10.1567 13.4762 9.91402C13.4762 9.56869 13.3362 9.29802 13.0562 9.10202C12.7856 8.89669 12.4216 8.79402 11.9642 8.79402C11.5256 8.79402 11.1336 8.88736 10.7882 9.07402C10.4522 9.25136 10.1676 9.50336 9.93423 9.83002L8.24023 8.83602C8.63223 8.23869 9.15957 7.77669 9.82223 7.45002C10.4942 7.12336 11.2876 6.96002 12.2022 6.96002C13.2756 6.96002 14.1342 7.18869 14.7782 7.64602C15.4316 8.10336 15.7582 8.73802 15.7582 9.55002C15.7582 9.93269 15.6929 10.2687 15.5622 10.558C15.4409 10.8474 15.2869 11.0947 15.1002 11.3C14.9229 11.496 14.6896 11.7247 14.4002 11.986C14.0549 12.294 13.8029 12.5554 13.6442 12.77C13.4856 12.9754 13.4062 13.2274 13.4062 13.526H11.2922ZM12.3562 17.04C11.9736 17.04 11.6516 16.9187 11.3902 16.676C11.1382 16.424 11.0122 16.1207 11.0122 15.766C11.0122 15.4114 11.1382 15.1174 11.3902 14.884C11.6422 14.6414 11.9642 14.52 12.3562 14.52C12.7482 14.52 13.0702 14.6414 13.3222 14.884C13.5742 15.1174 13.7002 15.4114 13.7002 15.766C13.7002 16.1207 13.5696 16.424 13.3082 16.676C13.0562 16.9187 12.7389 17.04 12.3562 17.04Z" fill="black"/>
</g>
<defs>
<clipPath id="clip0_473_51">
<rect width="24" height="24" fill="white"/>
</clipPath>
</defs>
</svg>
