<svg width="110" height="110" viewBox="0 0 110 110" fill="none" xmlns="http://www.w3.org/2000/svg">
  <mask id="mask0_26_106" style="mask-type:alpha" maskUnits="userSpaceOnUse" x="0" y="0" width="110" height="110">
    <circle cx="55" cy="55" r="55" fill="#D9D9D9" />
  </mask>
  <g mask="url(#mask0_26_106)">
    <circle cx="55" cy="55" r="55" fill="#212529" />
    <path
      d="M0 36.336C0 32.645 2.95208 29.6501 6.59745 29.6501H103.388C107.03 29.6501 109.985 32.645 109.985 36.336V78.6277C109.985 82.3186 107.03 85.3104 103.388 85.3104H6.59745C2.95208 85.3104 0 82.3186 0 78.6277V36.336Z"
      fill="white" />
    <path
      d="M0.0758209 35.6611C0.0758209 32.2663 2.79383 29.5125 6.14427 29.5125H103.935C107.285 29.5125 110 32.2663 110 35.6611V35.8565H0.0758209V35.6611ZM110 79.1862V79.3388C110 82.7336 107.285 85.4874 103.935 85.4874H6.14427C2.79395 85.4874 0.0758209 82.7336 0.0758209 79.3388V79.1862H110Z"
      fill="#FBB110" />
    <path
      d="M76.1526 57.4343C76.1526 66.0282 83.0267 72.9949 91.509 72.9949C99.9884 72.9949 106.865 66.0283 106.865 57.4344C106.865 48.8373 99.9884 41.8707 91.509 41.8707C83.0267 41.8707 76.1526 48.8373 76.1526 57.4343ZM2.93676 57.4343C2.93676 66.0282 9.81373 72.9949 18.2962 72.9949C26.7756 72.9949 33.6527 66.0283 33.6527 57.4344C33.6527 48.8373 26.7756 41.8707 18.2962 41.8707C9.81385 41.8707 2.93676 48.8373 2.93676 57.4343ZM110 76.2402H34.282C35.6471 75.2693 36.9179 73.9413 38.3041 72.1492L46.0174 62.1755L49.386 66.4891L53.1347 61.4366L49.8573 57.2083L57.7073 47.0546C60.2003 43.8337 55.4331 40.0481 52.9401 43.2689L46.0023 52.2443L38.9487 43.1498C36.4528 39.9382 31.6946 43.733 34.1907 46.9476L42.1623 57.2115L33.5371 68.3637C30.4725 72.3264 27.414 75.9592 21.3425 76.2402H0.0758209V38.8025H75.3956C74.1004 39.7611 72.8782 41.0463 71.5526 42.7621L63.8424 52.7329L60.4709 48.4222L56.7253 53.4748L60.0027 57.6999L52.1497 67.8538C49.6597 71.0746 54.4268 74.8603 56.9169 71.6395L63.8577 62.6669L70.9111 71.7584C73.4072 74.9732 78.1652 71.1785 75.6691 67.9638L67.6977 57.6969L76.3228 46.5477C79.1382 42.9025 81.9504 39.5383 87.1006 38.8025H110V76.2402ZM82.3153 57.4343C82.3153 52.2872 86.4318 48.1168 91.509 48.1168C96.5863 48.1168 100.7 52.2872 100.7 57.4343C100.7 62.5784 96.5863 66.7486 91.509 66.7486C86.4318 66.7486 82.3153 62.5784 82.3153 57.4343ZM9.10244 57.4343C9.10244 52.2872 13.2189 48.1168 18.2962 48.1168C23.3704 48.1168 27.487 52.2872 27.487 57.4343C27.487 62.5784 23.3705 66.7486 18.2962 66.7486C13.2189 66.7486 9.10244 62.5784 9.10244 57.4343Z"
      fill="#E70020" />
  </g>
</svg>