<svg width="987" height="338" viewBox="0 0 987 338" fill="none" xmlns="http://www.w3.org/2000/svg">
<rect x="85" y="64" width="837" height="241" rx="25" fill="url(#paint0_linear_409_44)"/>
<g filter="url(#filter0_d_409_44)">
<path d="M140.446 146.048V136.864H153.102V146.048H140.446ZM138.43 180.432V177.632L141.006 149.128H152.542L155.174 177.632V180.432H138.43ZM202.685 133.616H199.885V158.816H202.685V168H181.517V158.816H184.205V149.576H176.365V158.816H179.053V168H157.885V158.816H160.685V133.616H157.885V124.432H179.053V133.616H176.365V142.128H184.205V133.616H181.517V124.432H202.685V133.616ZM246.17 158.816H248.41V168H226.458V158.816H229.818L228.922 154.336H221.306L220.41 158.816H223.77V168H204.618V158.816H206.858L216.322 124.432H236.706L246.17 158.816ZM222.538 148.4H227.69L225.394 137.256H224.834L222.538 148.4ZM275.869 154.224H287.013V168H249.997V159.936L267.245 133.616H261.421V138.208H250.277V124.432H286.117V132.496L268.925 158.816H275.869V154.224ZM327.76 168.784C320.704 168.784 315.253 166.992 311.408 163.408C307.6 159.824 305.696 154.093 305.696 146.216C305.696 131.171 313.013 123.648 327.648 123.648C331.194 123.648 334.48 124.077 337.504 124.936C340.565 125.795 342.842 126.747 344.336 127.792V141.792H330.896V137.76C330.896 136.341 330.578 135.296 329.944 134.624C329.309 133.952 328.357 133.616 327.088 133.616C325.818 133.616 324.866 133.952 324.232 134.624C323.597 135.296 323.28 136.341 323.28 137.76V154.672C323.28 156.091 323.597 157.136 324.232 157.808C324.866 158.48 325.818 158.816 327.088 158.816C328.357 158.816 329.309 158.48 329.944 157.808C330.578 157.136 330.896 156.091 330.896 154.672V150.136H344.336V164.64C342.805 165.685 340.528 166.637 337.504 167.496C334.517 168.355 331.269 168.784 327.76 168.784ZM367.652 168.784C360.82 168.784 355.537 166.992 351.804 163.408C348.108 159.824 346.26 154.093 346.26 146.216C346.26 138.339 348.108 132.608 351.804 129.024C355.537 125.44 360.82 123.648 367.652 123.648C374.484 123.648 379.748 125.44 383.444 129.024C387.177 132.608 389.044 138.339 389.044 146.216C389.044 154.093 387.177 159.824 383.444 163.408C379.748 166.992 374.484 168.784 367.652 168.784ZM367.652 158.816C368.921 158.816 369.873 158.48 370.508 157.808C371.142 157.136 371.46 156.091 371.46 154.672V137.76C371.46 136.341 371.142 135.296 370.508 134.624C369.873 133.952 368.921 133.616 367.652 133.616C366.382 133.616 365.43 133.952 364.796 134.624C364.161 135.296 363.844 136.341 363.844 137.76V154.672C363.844 156.128 364.161 157.192 364.796 157.864C365.43 158.499 366.382 158.816 367.652 158.816ZM452.865 133.616H450.065V158.816H452.865V168H431.697V158.816H434.385V139.216L424.865 168H416.577L406.777 139.496V158.816H409.465V168H391.097V158.816H393.897V133.616H391.097V124.432H416.745L422.569 141.904L428.169 124.432H452.865V133.616ZM455.232 158.816H458.032V133.616H455.232V124.432H479.816C484.632 124.432 488.309 125.477 490.848 127.568C493.386 129.621 494.656 132.963 494.656 137.592C494.656 142.221 493.386 145.581 490.848 147.672C488.309 149.725 484.632 150.752 479.816 150.752H473.712V158.816H479.088V168H455.232V158.816ZM475.616 142.8C477.781 142.8 478.864 141.605 478.864 139.216V137.2C478.864 135.968 478.584 135.072 478.024 134.512C477.501 133.915 476.698 133.616 475.616 133.616H473.712V142.8H475.616ZM496.725 168V158.816H499.525V133.616H496.725V124.432H520.357V133.616H515.205V158.816H520.245V153.664H531.389V168H496.725ZM533.461 168V158.816H536.261V133.616H533.461V124.432H571.261V141.344H558.717V133.616H551.941V142.464H556.869V148.848H551.941V158.816H558.717V149.968H571.261V168H533.461ZM615.309 137.984H605.677V133.616H602.093V158.816H606.013V168H582.493V158.816H586.413V133.616H582.829V137.984H573.197V124.432H615.309V137.984ZM652.303 158.816H654.543V168H632.591V158.816H635.951L635.055 154.336H627.439L626.543 158.816H629.903V168H610.751V158.816H612.991L622.455 124.432H642.839L652.303 158.816ZM628.671 148.4H633.823L631.527 137.256H630.967L628.671 148.4ZM656.466 158.816H659.266V133.672H656.466V124.432H679.202C685.437 124.432 690.383 126.149 694.042 129.584C697.738 132.981 699.586 138.525 699.586 146.216C699.586 153.907 697.738 159.469 694.042 162.904C690.383 166.301 685.437 168 679.202 168H656.466V158.816ZM678.194 158.816C679.463 158.816 680.415 158.48 681.05 157.808C681.685 157.136 682.002 156.091 682.002 154.672V137.76C682.002 134.997 680.733 133.616 678.194 133.616H674.946V158.816H678.194ZM722.68 168.784C715.848 168.784 710.565 166.992 706.832 163.408C703.136 159.824 701.288 154.093 701.288 146.216C701.288 138.339 703.136 132.608 706.832 129.024C710.565 125.44 715.848 123.648 722.68 123.648C729.512 123.648 734.776 125.44 738.472 129.024C742.205 132.608 744.072 138.339 744.072 146.216C744.072 154.093 742.205 159.824 738.472 163.408C734.776 166.992 729.512 168.784 722.68 168.784ZM722.68 158.816C723.949 158.816 724.901 158.48 725.536 157.808C726.171 157.136 726.488 156.091 726.488 154.672V137.76C726.488 136.341 726.171 135.296 725.536 134.624C724.901 133.952 723.949 133.616 722.68 133.616C721.411 133.616 720.459 133.952 719.824 134.624C719.189 135.296 718.872 136.341 718.872 137.76V154.672C718.872 156.128 719.189 157.192 719.824 157.864C720.459 158.499 721.411 158.816 722.68 158.816ZM804.841 137.984H795.209V133.616H791.625V158.816H795.545V168H772.025V158.816H775.945V133.616H772.361V137.984H762.729V124.432H804.841V137.984ZM827.854 168.784C821.992 168.784 817.456 167.496 814.246 164.92C811.072 162.344 809.486 158.163 809.486 152.376V133.616H806.686V124.432H827.406V133.616H825.166V155.232C825.166 156.464 825.427 157.379 825.95 157.976C826.51 158.536 827.331 158.816 828.414 158.816C829.496 158.816 830.299 158.536 830.822 157.976C831.382 157.379 831.662 156.464 831.662 155.232V133.616H829.422V124.432H848.63V133.616H845.83V152.376C845.83 158.163 844.28 162.344 841.182 164.92C838.083 167.496 833.64 168.784 827.854 168.784ZM138.786 235.816H141.586V210.616H138.786V201.432H164.49C169.306 201.432 172.983 202.421 175.522 204.4C178.06 206.379 179.33 209.589 179.33 214.032C179.33 216.533 178.826 218.699 177.818 220.528C176.81 222.357 175.372 223.627 173.506 224.336L173.562 224.896C177.146 225.456 178.938 227.659 178.938 231.504V235.816H181.57V245H163.818V231.84C163.818 230.384 163.594 229.283 163.146 228.536C162.735 227.789 162.063 227.285 161.13 227.024C160.234 226.763 158.946 226.632 157.266 226.632V235.816H160.962V245H138.786V235.816ZM160.29 219.8C161.372 219.8 162.175 219.52 162.698 218.96C163.258 218.363 163.538 217.448 163.538 216.216V214.2C163.538 212.968 163.258 212.072 162.698 211.512C162.175 210.915 161.372 210.616 160.29 210.616H157.266V219.8H160.29ZM183.725 245V235.816H186.525V210.616H183.725V201.432H221.525V218.344H208.981V210.616H202.205V219.464H207.133V225.848H202.205V235.816H208.981V226.968H221.525V245H183.725ZM266.021 231H263.221V242.2C261.578 243.133 259.17 243.973 255.997 244.72C252.861 245.429 249.463 245.784 245.805 245.784C238.823 245.784 233.354 243.955 229.397 240.296C225.439 236.6 223.461 230.907 223.461 223.216C223.461 215.339 225.421 209.608 229.341 206.024C233.298 202.44 238.935 200.648 246.253 200.648C249.799 200.648 253.122 201.021 256.221 201.768C259.319 202.515 261.653 203.355 263.221 204.288V217.672H249.221V215.04C249.221 213.472 248.885 212.352 248.213 211.68C247.578 210.971 246.551 210.616 245.133 210.616C243.714 210.616 242.669 210.971 241.997 211.68C241.362 212.352 241.045 213.472 241.045 215.04V231.392C241.045 232.96 241.362 234.099 241.997 234.808C242.669 235.48 243.714 235.816 245.133 235.816C246.551 235.816 247.578 235.48 248.213 234.808C248.885 234.099 249.221 232.96 249.221 231.392V231H246.197V222.656H266.021V231ZM267.751 245V235.816H270.551V210.616H267.751V201.432H289.031V210.616H286.231V235.816H289.031V245H267.751ZM308.777 245.784C305.193 245.784 301.796 245.485 298.585 244.888C295.412 244.253 292.966 243.544 291.249 242.76V231.672H303.569C303.569 232.829 303.83 233.669 304.353 234.192C304.876 234.715 305.828 234.976 307.209 234.976C308.366 234.976 309.188 234.808 309.673 234.472C310.196 234.099 310.457 233.557 310.457 232.848C310.457 232.251 310.214 231.747 309.729 231.336C309.244 230.888 308.404 230.44 307.209 229.992L302.393 228.312C298.249 226.744 295.262 224.896 293.433 222.768C291.641 220.64 290.745 217.765 290.745 214.144C290.745 209.739 292.182 206.397 295.057 204.12C297.969 201.805 302.804 200.648 309.561 200.648C312.809 200.648 315.852 200.984 318.689 201.656C321.564 202.291 323.878 203.149 325.633 204.232V214.256H314.433C314.433 212.389 313.276 211.456 310.961 211.456C309.841 211.456 309.038 211.605 308.553 211.904C308.105 212.165 307.881 212.651 307.881 213.36C307.881 213.995 308.142 214.499 308.665 214.872C309.225 215.245 310.121 215.637 311.353 216.048L316.225 217.728C320.182 219.072 323.057 220.827 324.849 222.992C326.678 225.12 327.593 227.92 327.593 231.392C327.593 236.133 325.988 239.717 322.777 242.144C319.604 244.571 314.937 245.784 308.777 245.784ZM371.077 214.984H361.445V210.616H357.861V235.816H361.781V245H338.261V235.816H342.181V210.616H338.597V214.984H328.965V201.432H371.077V214.984ZM373.147 235.816H375.947V210.616H373.147V201.432H398.851C403.667 201.432 407.344 202.421 409.883 204.4C412.421 206.379 413.691 209.589 413.691 214.032C413.691 216.533 413.187 218.699 412.179 220.528C411.171 222.357 409.733 223.627 407.867 224.336L407.923 224.896C411.507 225.456 413.299 227.659 413.299 231.504V235.816H415.931V245H398.179V231.84C398.179 230.384 397.955 229.283 397.507 228.536C397.096 227.789 396.424 227.285 395.491 227.024C394.595 226.763 393.307 226.632 391.627 226.632V235.816H395.323V245H373.147V235.816ZM394.651 219.8C395.733 219.8 396.536 219.52 397.059 218.96C397.619 218.363 397.899 217.448 397.899 216.216V214.2C397.899 212.968 397.619 212.072 397.059 211.512C396.536 210.915 395.733 210.616 394.651 210.616H391.627V219.8H394.651ZM439.142 245.784C432.31 245.784 427.027 243.992 423.294 240.408C419.598 236.824 417.75 231.093 417.75 223.216C417.75 215.339 419.598 209.608 423.294 206.024C427.027 202.44 432.31 200.648 439.142 200.648C445.974 200.648 451.238 202.44 454.934 206.024C458.667 209.608 460.534 215.339 460.534 223.216C460.534 231.093 458.667 236.824 454.934 240.408C451.238 243.992 445.974 245.784 439.142 245.784ZM439.142 235.816C440.411 235.816 441.363 235.48 441.998 234.808C442.632 234.136 442.95 233.091 442.95 231.672V214.76C442.95 213.341 442.632 212.296 441.998 211.624C441.363 210.952 440.411 210.616 439.142 210.616C437.872 210.616 436.92 210.952 436.286 211.624C435.651 212.296 435.334 213.341 435.334 214.76V231.672C435.334 233.128 435.651 234.192 436.286 234.864C436.92 235.499 437.872 235.816 439.142 235.816ZM501.254 245.784C494.198 245.784 488.748 243.992 484.902 240.408C481.094 236.824 479.19 231.093 479.19 223.216C479.19 208.171 486.508 200.648 501.142 200.648C504.689 200.648 507.974 201.077 510.998 201.936C514.06 202.795 516.337 203.747 517.83 204.792V218.792H504.39V214.76C504.39 213.341 504.073 212.296 503.438 211.624C502.804 210.952 501.852 210.616 500.582 210.616C499.313 210.616 498.361 210.952 497.726 211.624C497.092 212.296 496.774 213.341 496.774 214.76V231.672C496.774 233.091 497.092 234.136 497.726 234.808C498.361 235.48 499.313 235.816 500.582 235.816C501.852 235.816 502.804 235.48 503.438 234.808C504.073 234.136 504.39 233.091 504.39 231.672V227.136H517.83V241.64C516.3 242.685 514.022 243.637 510.998 244.496C508.012 245.355 504.764 245.784 501.254 245.784ZM541.146 245.784C534.314 245.784 529.032 243.992 525.298 240.408C521.602 236.824 519.754 231.093 519.754 223.216C519.754 215.339 521.602 209.608 525.298 206.024C529.032 202.44 534.314 200.648 541.146 200.648C547.978 200.648 553.242 202.44 556.938 206.024C560.672 209.608 562.538 215.339 562.538 223.216C562.538 231.093 560.672 236.824 556.938 240.408C553.242 243.992 547.978 245.784 541.146 245.784ZM541.146 235.816C542.416 235.816 543.368 235.48 544.002 234.808C544.637 234.136 544.954 233.091 544.954 231.672V214.76C544.954 213.341 544.637 212.296 544.002 211.624C543.368 210.952 542.416 210.616 541.146 210.616C539.877 210.616 538.925 210.952 538.29 211.624C537.656 212.296 537.338 213.341 537.338 214.76V231.672C537.338 233.128 537.656 234.192 538.29 234.864C538.925 235.499 539.877 235.816 541.146 235.816ZM596.848 201.432H615.216V210.616H612.416V245H596.68L580.272 219.744V235.816H582.96V245H564.592V235.816H567.392V210.616H564.592V201.432H584.808L599.536 223.888V210.616H596.848V201.432ZM634.454 245V235.816H637.254V210.616H634.454V201.432H672.254V218.344H659.71V210.616H652.934V219.464H657.862V225.848H652.934V235.816H659.71V226.968H672.254V245H634.454ZM647.502 198.072V197.232L653.606 191.856H667.662V193.312L658.534 198.072H647.502ZM715.07 235.816H717.422V245H696.254V235.816H698.55L695.302 231.224H694.742L691.494 235.816H693.79V245H674.19V235.816H677.102L687.854 223.72L676.654 210.616H674.302V201.432H695.302V210.616H693.174L696.254 215.208H696.814L699.894 210.616H697.766V201.432H717.198V210.616H714.286L703.702 222.544L715.07 235.816ZM719.465 245V235.816H722.265V210.616H719.465V201.432H740.745V210.616H737.945V235.816H740.745V245H719.465ZM784.907 214.984H775.275V210.616H771.691V235.816H775.611V245H752.091V235.816H756.011V210.616H752.427V214.984H742.795V201.432H784.907V214.984ZM808.032 245.784C801.2 245.784 795.918 243.992 792.184 240.408C788.488 236.824 786.64 231.093 786.64 223.216C786.64 215.339 788.488 209.608 792.184 206.024C795.918 202.44 801.2 200.648 808.032 200.648C814.864 200.648 820.128 202.44 823.824 206.024C827.558 209.608 829.424 215.339 829.424 223.216C829.424 231.093 827.558 236.824 823.824 240.408C820.128 243.992 814.864 245.784 808.032 245.784ZM808.032 235.816C809.302 235.816 810.254 235.48 810.888 234.808C811.523 234.136 811.84 233.091 811.84 231.672V214.76C811.84 213.341 811.523 212.296 810.888 211.624C810.254 210.952 809.302 210.616 808.032 210.616C806.763 210.616 805.811 210.952 805.176 211.624C804.542 212.296 804.224 213.341 804.224 214.76V231.672C804.224 233.128 804.542 234.192 805.176 234.864C805.811 235.499 806.763 235.816 808.032 235.816ZM834.054 232.736L831.478 204.232V201.432H848.222V204.232L845.59 232.736H834.054ZM833.494 245V235.816H846.15V245H833.494Z" fill="white"/>
</g>
<path d="M763.207 53.6622C755.924 53.6622 750 47.7468 750 40.4791C750 33.2114 755.924 27.2959 763.207 27.2959C770.491 27.2959 776.409 33.2114 776.409 40.4791C776.409 47.7468 770.485 53.6622 763.207 53.6622ZM763.207 29.923C757.379 29.923 752.643 34.653 752.643 40.4731C752.643 46.2932 757.385 51.0232 763.207 51.0232C769.029 51.0232 773.772 46.2932 773.772 40.4731C773.772 34.653 769.035 29.923 763.207 29.923Z" fill="url(#paint1_linear_409_44)"/>
<path d="M843.751 18.2113L834.672 23.811L829.065 14.7443L825.026 17.2343L830.628 26.3011L821.548 31.9008L824.042 35.9397L833.127 30.34L838.735 39.4068L842.773 36.9167L837.166 27.8499L846.251 22.2502L843.751 18.2113Z" fill="url(#paint2_linear_409_44)"/>
<path d="M967.944 175.515L959.658 172.036L963.142 163.762L959.45 162.213L955.966 170.493L947.68 167.014L946.129 170.696L954.415 174.175L950.937 182.449L954.624 183.998L958.107 175.724L966.393 179.203L967.944 175.515Z" fill="url(#paint3_linear_409_44)"/>
<path d="M891.253 124.379C890.609 124.379 890.042 123.903 889.953 123.247C889.852 122.527 890.353 121.859 891.074 121.758L964.729 111.417C965.438 111.309 966.113 111.816 966.22 112.536C966.321 113.257 965.82 113.925 965.098 114.026L891.444 124.367C891.385 124.379 891.319 124.379 891.259 124.379H891.253Z" fill="url(#paint4_linear_409_44)"/>
<path d="M930.398 106.901C929.754 106.901 929.187 106.424 929.098 105.769C928.996 105.048 929.497 104.381 930.219 104.28L983.495 96.7978C984.193 96.6846 984.879 97.1969 984.987 97.9177C985.088 98.6385 984.587 99.3057 983.865 99.407L930.589 106.889C930.529 106.901 930.464 106.901 930.404 106.901H930.398Z" fill="url(#paint5_linear_409_44)"/>
<g clip-path="url(#clip0_409_44)">
<path d="M928.16 50.8602L967.688 30.6003L958.454 46.3458L928.16 50.8602Z" fill="#009F22"/>
<path d="M969.48 61.2448L928.16 50.8602L958.454 46.3458L969.48 61.2448Z" fill="#18C641"/>
<path d="M967.688 30.6003L958.454 46.3458L969.48 61.2448L967.688 30.6003Z" fill="#C0FC8B"/>
</g>
<g clip-path="url(#clip1_409_44)">
<path d="M936.96 293.411L980.622 301.566L963.685 308.372L936.96 293.411Z" fill="#009F22"/>
<path d="M963.293 326.903L936.96 293.411L963.685 308.372L963.293 326.903Z" fill="#18C641"/>
<path d="M980.622 301.566L963.685 308.372L963.293 326.903L980.622 301.566Z" fill="#C0FC8B"/>
</g>
<g clip-path="url(#clip2_409_44)">
<path d="M917 43.0536L932.876 18.0049L932.898 30.1923L917 43.0536Z" fill="#009F22"/>
<path d="M944.291 35.0277L917 43.0536L932.899 30.1923L944.291 35.0277Z" fill="#18C641"/>
<path d="M932.876 18.0049L932.899 30.1923L944.291 35.0277L932.876 18.0049Z" fill="#C0FC8B"/>
</g>
<g clip-path="url(#clip3_409_44)">
<path d="M932.907 280.408L960.79 270.306L953.352 279.96L932.907 280.408Z" fill="#009F22"/>
<path d="M959.405 290.754L932.907 280.408L953.352 279.96L959.405 290.754Z" fill="#18C641"/>
<path d="M960.79 270.306L953.352 279.96L959.405 290.754L960.79 270.306Z" fill="#C0FC8B"/>
</g>
<path d="M142.778 53.0383C136.207 53.0383 130.868 47.7059 130.868 41.1446C130.868 34.5832 136.214 29.2508 142.778 29.2508C149.341 29.2508 154.688 34.5832 154.688 41.1446C154.688 47.7059 149.341 53.0383 142.778 53.0383ZM142.778 31.6215C137.519 31.6215 133.242 35.8928 133.242 41.1378C133.242 46.3829 137.519 50.6542 142.778 50.6542C148.037 50.6542 152.307 46.3829 152.307 41.1378C152.307 35.8928 148.03 31.6215 142.778 31.6215Z" fill="url(#paint6_linear_409_44)"/>
<path d="M133.296 333.881L143.262 327.145L150.008 337.097L154.439 334.095L147.694 324.149L157.661 317.413L154.655 312.981L144.695 319.717L137.95 309.771L133.511 312.766L140.256 322.719L130.296 329.455L133.296 333.881Z" fill="url(#paint7_linear_409_44)"/>
<path d="M15.5327 134.575L25.0353 138.101L21.5046 147.59L25.7347 149.162L29.2653 139.672L38.7612 143.198L40.3348 138.974L30.8323 135.448L34.3697 125.965L30.1396 124.394L26.6089 133.883L17.1064 130.358L15.5327 134.575Z" fill="url(#paint8_linear_409_44)"/>
<path d="M104.337 188.55C105.064 188.517 105.723 189.027 105.857 189.766C106.005 190.572 105.467 191.344 104.66 191.492L22.1903 206.622C21.3968 206.777 20.6099 206.24 20.462 205.434C20.314 204.628 20.852 203.856 21.659 203.708L104.129 188.577C104.196 188.564 104.27 188.557 104.337 188.557V188.55Z" fill="url(#paint9_linear_409_44)"/>
<path d="M61.0816 210.088C61.8079 210.054 62.4669 210.565 62.6014 211.303C62.7494 212.109 62.2114 212.882 61.4044 213.029L1.75283 223.976C0.972722 224.131 0.172436 223.593 0.0244839 222.787C-0.123468 221.982 0.414539 221.209 1.22155 221.061L60.8731 210.115C60.9403 210.101 61.0143 210.095 61.0816 210.095V210.088Z" fill="url(#paint10_linear_409_44)"/>
<g clip-path="url(#clip4_409_44)">
<path d="M57.9203 42.8466L11.6539 29.2665L30.6911 23.7667L57.9203 42.8466Z" fill="#009F22"/>
<path d="M33.1397 3.79469L57.9202 42.8467L30.6909 23.7667L33.1397 3.79469Z" fill="#18C641"/>
<path d="M11.6537 29.2665L30.6908 23.7667L33.1396 3.79469L11.6537 29.2665Z" fill="#C0FC8B"/>
</g>
<g clip-path="url(#clip5_409_44)">
<path d="M94.4642 57.8501L73.8042 35.5578L85.8857 38.7283L94.4642 57.8501Z" fill="#009F22"/>
<path d="M93.6612 28.7076L94.4644 57.8501L85.8859 38.7283L93.6612 28.7076Z" fill="#18C641"/>
<path d="M73.8044 35.5578L85.8859 38.7283L93.6611 28.7076L73.8044 35.5578Z" fill="#C0FC8B"/>
</g>
<defs>
<filter id="filter0_d_409_44" x="138.43" y="123.648" width="712.2" height="125.136" filterUnits="userSpaceOnUse" color-interpolation-filters="sRGB">
<feFlood flood-opacity="0" result="BackgroundImageFix"/>
<feColorMatrix in="SourceAlpha" type="matrix" values="0 0 0 0 0 0 0 0 0 0 0 0 0 0 0 0 0 0 127 0" result="hardAlpha"/>
<feOffset dx="2" dy="3"/>
<feComposite in2="hardAlpha" operator="out"/>
<feColorMatrix type="matrix" values="0 0 0 0 0 0 0 0 0 0.294118 0 0 0 0 0.137255 0 0 0 1 0"/>
<feBlend mode="normal" in2="BackgroundImageFix" result="effect1_dropShadow_409_44"/>
<feBlend mode="normal" in="SourceGraphic" in2="effect1_dropShadow_409_44" result="shape"/>
</filter>
<linearGradient id="paint0_linear_409_44" x1="491.5" y1="80.5" x2="492.712" y2="305.001" gradientUnits="userSpaceOnUse">
<stop stop-color="#76B700"/>
<stop offset="1" stop-color="#008000"/>
</linearGradient>
<linearGradient id="paint1_linear_409_44" x1="750.006" y1="40.4731" x2="776.409" y2="40.4731" gradientUnits="userSpaceOnUse">
<stop stop-color="#FFDD05"/>
<stop offset="0.55" stop-color="#FDAE02"/>
<stop offset="1" stop-color="#FD8C00"/>
</linearGradient>
<linearGradient id="paint2_linear_409_44" x1="821.548" y1="27.0755" x2="846.251" y2="27.0755" gradientUnits="userSpaceOnUse">
<stop stop-color="#FFDD05"/>
<stop offset="0.55" stop-color="#FDAE02"/>
<stop offset="1" stop-color="#FD8C00"/>
</linearGradient>
<linearGradient id="paint3_linear_409_44" x1="946.129" y1="173.109" x2="967.944" y2="173.109" gradientUnits="userSpaceOnUse">
<stop stop-color="#FFDD05"/>
<stop offset="0.55" stop-color="#FDAE02"/>
<stop offset="1" stop-color="#FD8C00"/>
</linearGradient>
<linearGradient id="paint4_linear_409_44" x1="889.935" y1="117.892" x2="966.226" y2="117.892" gradientUnits="userSpaceOnUse">
<stop stop-color="#FFDD05"/>
<stop offset="0.55" stop-color="#FDAE02"/>
<stop offset="1" stop-color="#FD8C00"/>
</linearGradient>
<linearGradient id="paint5_linear_409_44" x1="929.08" y1="101.843" x2="984.993" y2="101.843" gradientUnits="userSpaceOnUse">
<stop stop-color="#FFDD05"/>
<stop offset="0.55" stop-color="#FDAE02"/>
<stop offset="1" stop-color="#FD8C00"/>
</linearGradient>
<linearGradient id="paint6_linear_409_44" x1="130.861" y1="41.1446" x2="154.688" y2="41.1446" gradientUnits="userSpaceOnUse">
<stop stop-color="#FFDD05"/>
<stop offset="0.55" stop-color="#FDAE02"/>
<stop offset="1" stop-color="#FD8C00"/>
</linearGradient>
<linearGradient id="paint7_linear_409_44" x1="130.296" y1="323.431" x2="157.661" y2="323.431" gradientUnits="userSpaceOnUse">
<stop stop-color="#FFDD05"/>
<stop offset="0.55" stop-color="#FDAE02"/>
<stop offset="1" stop-color="#FD8C00"/>
</linearGradient>
<linearGradient id="paint8_linear_409_44" x1="15.5327" y1="136.778" x2="40.3348" y2="136.778" gradientUnits="userSpaceOnUse">
<stop stop-color="#FFDD05"/>
<stop offset="0.55" stop-color="#FDAE02"/>
<stop offset="1" stop-color="#FD8C00"/>
</linearGradient>
<linearGradient id="paint9_linear_409_44" x1="20.4418" y1="197.603" x2="105.884" y2="197.603" gradientUnits="userSpaceOnUse">
<stop stop-color="#FFDD05"/>
<stop offset="0.55" stop-color="#FDAE02"/>
<stop offset="1" stop-color="#FD8C00"/>
</linearGradient>
<linearGradient id="paint10_linear_409_44" x1="-0.00241646" y1="217.045" x2="62.6283" y2="217.045" gradientUnits="userSpaceOnUse">
<stop stop-color="#FFDD05"/>
<stop offset="0.55" stop-color="#FDAE02"/>
<stop offset="1" stop-color="#FD8C00"/>
</linearGradient>
<clipPath id="clip0_409_44">
<rect width="40.8703" height="37.5239" fill="white" transform="translate(963.371 71.6116) rotate(-149.487)"/>
</clipPath>
<clipPath id="clip1_409_44">
<rect width="40.8703" height="37.5239" fill="white" transform="translate(952.118 331.366) rotate(-111.77)"/>
</clipPath>
<clipPath id="clip2_409_44">
<rect width="27.2879" height="25.0536" fill="white" transform="translate(944.288 43.062) rotate(-179.982)"/>
</clipPath>
<clipPath id="clip3_409_44">
<rect width="27.2879" height="25.0536" fill="white" transform="translate(954.488 297.108) rotate(-142.266)"/>
</clipPath>
<clipPath id="clip4_409_44">
<rect width="44.3676" height="40.7348" fill="white" transform="translate(45.6973 0.195938) rotate(74.0087)"/>
</clipPath>
<clipPath id="clip5_409_44">
<rect width="27.9665" height="25.6767" fill="white" transform="translate(101.621 30.8147) rotate(104.827)"/>
</clipPath>
</defs>
</svg>
