<svg width="127" height="215" viewBox="0 0 127 215" fill="none" xmlns="http://www.w3.org/2000/svg">
<path d="M5.58154 76.5753C51.8429 37.8885 108.266 92.0627 56.3968 130.994C33.7462 148.015 63.5251 154.502 26.482 153.187C25.0292 138.144 23.6868 133.68 26.9833 128.536C32.9645 119.191 43.2194 117.467 49.1496 107.242C55.8361 95.7191 47.5099 82.264 30.7725 87.1543C13.0156 92.353 18.81 99.938 5.58154 76.5662V76.5753Z" fill="#00D6CA"/>
<path d="M20.6625 178.01C21.2402 159.365 48.2409 160.472 47.6631 178.963C47.0854 197.508 20.0847 196.709 20.6625 178.01Z" fill="#00D6CA"/>
<g style="mix-blend-mode:screen">
<path d="M34.3926 153.804C32.1496 153.804 29.5328 153.749 26.4657 153.64H26.0919L26.0579 153.232C25.7945 150.51 25.5311 148.124 25.3017 146.028C24.2652 136.556 23.8404 132.628 26.6271 128.282C29.5413 123.727 33.509 120.914 37.3407 118.202C41.4698 115.271 45.7434 112.25 48.785 107.006C51.7586 101.889 51.7841 96.1092 48.853 91.9176C45.3696 86.9365 38.6576 85.3216 30.8837 87.5989C26.3213 88.9326 23.3391 90.4296 21.1556 91.5093C15.1574 94.5033 15.0214 94.2584 7.70626 81.2206C6.9586 79.8869 6.13448 78.4171 5.2169 76.8021L5.02148 76.4574L5.31885 76.2124C21.334 62.8208 40.5353 59.1826 56.6949 66.4772C68.479 71.7939 76.202 81.9465 77.3745 93.6233C78.6998 106.924 71.3422 120.316 56.6439 131.348C46.7884 138.752 47.0518 144.087 47.2217 147.616C47.2982 149.249 47.3661 150.664 46.3976 151.717C45.0637 153.169 41.7927 153.786 34.4011 153.786L34.3926 153.804ZM26.865 152.742C39.1589 153.169 44.299 152.715 45.7859 151.1C46.491 150.329 46.4401 149.213 46.3636 147.679C46.1852 143.951 45.9048 138.307 56.1426 130.622C70.5776 119.789 77.8162 106.688 76.5163 93.7321C75.3864 82.382 67.8418 72.5107 56.355 67.321C40.5862 60.1988 21.8353 63.7009 6.13448 76.6842C6.97559 78.1631 7.73175 79.524 8.42843 80.7579C13.1353 89.1413 17.2559 92.4498 20.7903 90.6836C22.9993 89.5858 26.0239 88.0707 30.6543 86.7188C38.7681 84.3417 45.8284 86.0837 49.5242 91.3732C52.6677 95.8733 52.6592 102.043 49.4987 107.487C46.3551 112.894 42.0136 115.979 37.808 118.955C33.8658 121.749 30.1445 124.389 27.3238 128.79C24.7155 132.863 25.1063 136.411 26.1428 145.919C26.3637 147.915 26.6101 150.175 26.8565 152.742H26.865Z" fill="#00D6CA"/>
</g>
<g style="mix-blend-mode:screen">
<path d="M34.2054 192.917C34.027 192.917 33.8486 192.917 33.6702 192.917C26.9837 192.681 19.9235 187.917 20.2293 178.01C20.3992 172.602 22.7782 168.32 26.9328 165.943C31.5462 163.312 37.6464 163.539 42.0983 166.496C46.117 169.173 48.241 173.6 48.0711 178.99C47.7737 188.634 40.7644 192.926 34.1884 192.926L34.2054 192.917ZM21.0874 178.028C20.7986 187.31 27.4255 191.783 33.7042 192C40.0253 192.236 46.9581 188.235 47.2385 178.953C47.3914 173.909 45.4118 169.754 41.665 167.259C37.451 164.464 31.6991 164.246 27.3491 166.732C23.4663 168.946 21.2489 172.956 21.0874 178.028Z" fill="#00D6CA"/>
</g>
<path d="M34.3502 157.886C32.0562 157.886 29.4139 157.832 26.3468 157.723L22.6425 157.596L22.2602 153.658C21.9968 150.955 21.7419 148.587 21.5125 146.509C20.425 136.583 19.8813 131.602 23.4751 125.986L23.5601 125.85L24.2568 126.367L24.1718 126.494C20.7564 131.829 21.2916 136.692 22.3536 146.4C22.583 148.487 22.8379 150.855 23.1013 153.568L23.4072 156.716L26.3723 156.825C41.215 157.351 45.9729 156.734 48.5132 153.967C49.2524 153.159 49.7366 152.234 50 151.136L50.8241 151.354C50.5268 152.615 49.9745 153.677 49.1249 154.602C46.9329 156.979 43.373 157.895 34.3502 157.895V157.886Z" fill="#00D6CA"/>
<path d="M47.9779 100.491L47.1368 100.364C47.1962 99.9287 47.2217 99.4932 47.2217 99.0758C47.2217 97.724 46.9328 96.4628 46.3551 95.3197C44.9448 92.5071 41.9116 90.8104 38.0289 90.6744C37.4597 90.6562 36.8734 90.6744 36.2787 90.7106L36.2192 89.8034C36.848 89.758 37.4597 89.7489 38.0544 89.7671C42.243 89.9122 45.548 91.7812 47.1028 94.8932C47.74 96.1725 48.0713 97.5788 48.0713 99.0758C48.0713 99.5385 48.0373 100.019 47.9779 100.491Z" fill="#00D6CA"/>
<path d="M16.8988 97.1435C16.8138 97.1435 16.7289 97.1435 16.6439 97.1435C12.09 96.9802 10.1614 93.5415 4.42648 83.3346C3.67882 82.0008 2.8547 80.5401 1.94561 78.9251L0 75.4865L2.96515 73.0096C10.3398 66.8401 18.2667 62.6121 26.5249 60.4255L26.7288 61.3056C18.5895 63.4559 10.7646 67.6385 3.49191 73.7264L1.12149 75.7133L2.67628 78.4624C3.59386 80.0774 4.41798 81.5472 5.15715 82.8718C10.7136 92.7703 12.5828 96.1001 16.6694 96.2453C17.6549 96.2816 18.632 96.082 19.8299 95.6102L20.1273 96.463C18.9209 96.9439 17.9098 97.1616 16.8988 97.1616V97.1435Z" fill="#00D6CA"/>
<path d="M70.1609 124.226L69.5322 123.609C76.7199 115.217 80.5262 105.935 80.5262 96.7532C80.5262 94.8298 80.3563 92.8972 80.0334 90.9919L80.8661 90.8286C81.2059 92.7884 81.3758 94.7753 81.3758 96.7532C81.3758 106.162 77.5016 115.661 70.1609 124.217V124.226Z" fill="#00D6CA"/>
<path d="M33.6276 196.99H33.5426C25.021 196.682 16.3975 190.277 16.3975 178.609C16.3975 178.364 16.3975 178.11 16.406 177.856C16.4739 175.615 16.8478 173.501 17.519 171.568L18.3176 171.886C17.6804 173.728 17.3235 175.742 17.2556 177.883C17.2556 178.128 17.2471 178.364 17.2471 178.6C17.2471 189.687 25.4543 195.784 33.5681 196.065L33.6191 196.972L33.6276 196.99ZM49.7957 187.736L49.0481 187.301C50.2885 184.896 50.9597 182.138 51.0531 179.09C51.0531 178.854 51.0616 178.609 51.0616 178.373C51.0616 174.68 50.1695 171.396 48.4108 168.61L49.116 168.102C50.9767 171.042 51.9112 174.499 51.9112 178.373C51.9112 178.618 51.9112 178.863 51.9027 179.117C51.8008 182.311 51.0956 185.205 49.7872 187.736H49.7957Z" fill="#00D6CA"/>
<path d="M55.9385 102.75C91.9195 72.6555 135.819 114.799 95.4624 145.084C77.8415 158.322 101.002 163.366 72.1916 162.35C71.0616 150.655 70.0166 147.18 72.5824 143.179C77.2383 135.912 85.2076 134.569 89.8295 126.612C95.0376 117.648 88.5551 107.178 75.539 110.988C61.7243 115.035 66.2358 120.932 55.9385 102.75Z" fill="#005A9C"/>
<path d="M67.6717 181.666C68.122 167.168 89.1244 168.03 88.6741 182.41C88.2238 196.836 67.2214 196.21 67.6717 181.666Z" fill="#0087EB"/>
<g style="mix-blend-mode:screen">
<path d="M78.3257 162.931C76.584 162.931 74.5534 162.885 72.1915 162.804H71.8176L71.7752 162.395C71.5712 160.272 71.3673 158.421 71.1889 156.797C70.3818 149.403 70.0504 146.336 72.2339 142.925C74.5109 139.368 77.6035 137.173 80.5941 135.059C83.7972 132.791 87.1106 130.441 89.4641 126.385C91.758 122.438 91.775 117.984 89.515 114.763C86.8303 110.925 81.6391 109.682 75.6409 111.433C72.098 112.467 69.7786 113.629 68.0878 114.472C63.347 116.84 63.1261 116.45 57.5017 106.434C56.9239 105.4 56.2782 104.256 55.5646 102.995L55.3691 102.65L55.6665 102.406C68.1473 91.9626 83.126 89.1319 95.7257 94.8206C104.919 98.976 110.959 106.897 111.868 116.024C112.905 126.403 107.161 136.864 95.7002 145.465C88.0792 151.19 88.2746 155.309 88.4105 158.031C88.47 159.329 88.5295 160.445 87.7479 161.298C86.6943 162.45 84.12 162.94 78.3172 162.94L78.3257 162.931ZM72.5823 161.915C82.0555 162.241 86.0146 161.896 87.1446 160.662C87.6629 160.091 87.6289 159.247 87.5694 158.077C87.425 155.155 87.2126 150.737 95.2159 144.721C106.414 136.32 112.03 126.158 111.027 116.115C110.152 107.323 104.307 99.6746 95.4029 95.6553C83.1854 90.139 68.6741 92.8427 56.4906 102.868C57.1278 103.993 57.7056 105.019 58.2323 105.962C61.863 112.434 65.0292 114.996 67.731 113.647C69.4472 112.785 71.8091 111.614 75.42 110.553C81.7751 108.693 87.2976 110.063 90.2032 114.209C92.6756 117.739 92.6671 122.584 90.1862 126.857C87.7309 131.085 84.3409 133.489 81.0614 135.812C78.0028 137.98 75.1141 140.031 72.9306 143.442C70.9255 146.581 71.2229 149.33 72.03 156.698C72.2 158.231 72.3869 159.955 72.5738 161.915H72.5823Z" fill="#0087EB"/>
</g>
<g style="mix-blend-mode:screen">
<path d="M78.2068 193.352C75.9893 193.352 73.7718 192.735 71.9197 191.501C68.7676 189.406 67.1108 185.903 67.2383 181.648C67.4762 173.891 73.228 170.57 78.4871 170.752C83.9332 170.942 89.3282 175.016 89.0988 182.428C88.9714 186.675 87.0852 190.041 83.7972 191.919C82.098 192.889 80.1524 193.361 78.2068 193.361V193.352ZM68.0964 181.684C67.9775 185.613 69.4983 188.825 72.3784 190.739C75.607 192.88 80.0334 193.035 83.3979 191.111C86.4055 189.396 88.1302 186.303 88.2492 182.392C88.4701 175.261 83.3299 171.831 78.4617 171.659C73.6189 171.487 68.3173 174.553 68.0964 181.684Z" fill="#0087EB"/>
</g>
<g style="mix-blend-mode:screen">
<path d="M78.3681 167.023C76.5584 167.023 74.4768 166.978 72.0639 166.896L68.3596 166.769L67.9773 162.831C67.7819 160.799 67.5865 159.021 67.4166 157.442L67.3996 157.288C66.5245 149.313 66.0912 145.312 69.0818 140.639C70.0843 139.069 71.2653 137.636 72.7011 136.257L73.2704 136.928C71.894 138.262 70.747 139.641 69.787 141.147C66.9748 145.547 67.3996 149.431 68.2407 157.179L68.2577 157.333C68.4276 158.912 68.623 160.699 68.8184 162.741L69.1243 165.889L72.0894 165.998C84.035 166.424 87.6968 165.916 89.8803 163.539C91.5795 161.688 91.4691 159.492 91.3926 157.887C91.3671 157.324 91.3331 156.698 91.4096 156.027L92.2507 156.126C92.1827 156.725 92.2167 157.288 92.2422 157.841C92.3272 159.52 92.4461 162.051 90.4835 164.183C88.5634 166.27 85.7427 167.05 78.3681 167.05V167.023Z" fill="#0087EB"/>
<path d="M88.1044 121.677L87.2718 121.495C87.3483 121.078 87.3907 120.661 87.3907 120.252C87.3907 119.372 87.2038 118.547 86.83 117.803C85.9719 116.088 84.1112 114.981 81.7153 114.754L81.7918 113.847C84.4766 114.101 86.5836 115.38 87.5777 117.367C88.0195 118.238 88.2404 119.209 88.2404 120.243C88.2404 120.706 88.1979 121.187 88.1044 121.659V121.677Z" fill="#0087EB"/>
<path d="M64.7407 119.771C64.6642 119.771 64.5877 119.771 64.5198 119.771C60.4671 119.626 58.7679 116.605 54.2395 108.539C53.6617 107.505 53.016 106.371 52.3108 105.109L50.3652 101.671L53.3304 99.194C60.739 92.9972 69.0822 89.1866 77.4679 88.1704L77.5613 89.0686C69.3286 90.0666 61.1298 93.8137 53.8486 99.9107L51.4782 101.898L53.033 104.647C53.7467 105.899 54.3839 107.042 54.9616 108.076C59.3201 115.843 60.9514 118.746 64.5453 118.873C66.2105 118.955 67.6633 118.202 69.3541 117.358C70.0083 117.031 70.7219 116.677 71.5461 116.305L71.8774 117.14C71.0703 117.503 70.3651 117.857 69.7194 118.183C68.0032 119.045 66.5079 119.789 64.7407 119.789V119.771Z" fill="#0087EB"/>
<path d="M108.844 138.035L108.181 137.472C112.701 131.385 114.995 124.997 114.995 118.474C114.995 116.886 114.851 115.289 114.57 113.711L115.403 113.538C115.692 115.162 115.836 116.823 115.836 118.465C115.836 125.197 113.483 131.775 108.835 138.026L108.844 138.035Z" fill="#0087EB"/>
</g>
<path d="M77.663 197.435C70.5858 197.181 63.415 191.855 63.415 182.138C63.415 181.929 63.415 181.721 63.4235 181.512C63.7464 171.042 71.6053 166.406 78.6146 166.669C83.9587 166.859 88.7675 169.808 91.1634 174.354L90.4242 174.798C88.1727 170.516 83.6358 167.749 78.5891 167.576C71.9961 167.349 64.579 171.686 64.2731 181.548C64.2731 181.748 64.2647 181.948 64.2647 182.147C64.2647 191.284 71.0191 196.301 77.6885 196.537L77.663 197.444V197.435Z" fill="#0087EB"/>
<path d="M90.7129 58.6382C90.7129 62.0496 88.1216 64.8077 84.9356 64.8077C81.7495 64.8077 79.1582 62.0405 79.1582 58.6382C79.1582 55.2359 81.7495 52.4686 84.9356 52.4686C88.1216 52.4686 90.7129 55.2359 90.7129 58.6382Z" fill="#00D6CA"/>
<path d="M88.7846 29.8318C90.2016 29.8318 91.3504 28.6051 91.3504 27.0918C91.3504 25.5786 90.2016 24.3518 88.7846 24.3518C87.3675 24.3518 86.2188 25.5786 86.2188 27.0918C86.2188 28.6051 87.3675 29.8318 88.7846 29.8318Z" fill="#00D6CA"/>
<path d="M108.054 5.48002C109.471 5.48002 110.619 4.25327 110.619 2.74001C110.619 1.22674 109.471 0 108.054 0C106.637 0 105.488 1.22674 105.488 2.74001C105.488 4.25327 106.637 5.48002 108.054 5.48002Z" fill="#00D6CA"/>
<path d="M124.273 50.4088C125.779 50.4088 127 49.1048 127 47.4964C127 45.8879 125.779 44.584 124.273 44.584C122.766 44.584 121.545 45.8879 121.545 47.4964C121.545 49.1048 122.766 50.4088 124.273 50.4088Z" fill="#00D6CA"/>
<path d="M11.7155 167.513C11.7155 168.556 10.9254 169.4 9.94835 169.4C8.97129 169.4 8.18115 168.556 8.18115 167.513C8.18115 166.469 8.97129 165.625 9.94835 165.625C10.9254 165.625 11.7155 166.469 11.7155 167.513Z" fill="#00D6CA"/>
<path d="M50.892 211.58C52.7548 211.58 54.265 209.967 54.265 207.978C54.265 205.988 52.7548 204.376 50.892 204.376C49.0292 204.376 47.519 205.988 47.519 207.978C47.519 209.967 49.0292 211.58 50.892 211.58Z" fill="#00D6CA"/>
<path d="M20.3906 49.2112C20.3906 51.3887 18.7339 53.1579 16.6948 53.1579C14.6558 53.1579 12.999 51.3887 12.999 49.2112C12.999 47.0337 14.6558 45.2645 16.6948 45.2645C18.7339 45.2645 20.3906 47.0337 20.3906 49.2112Z" fill="#00D6CA"/>
<path d="M36.7629 25.2044C36.7629 26.2478 35.9728 27.0916 34.9957 27.0916C34.0187 27.0916 33.2285 26.2478 33.2285 25.2044C33.2285 24.161 34.0187 23.3173 34.9957 23.3173C35.9728 23.3173 36.7629 24.161 36.7629 25.2044Z" fill="#00D6CA"/>
<path d="M103.882 75.7766C105.299 75.7766 106.448 74.5499 106.448 73.0366C106.448 71.5234 105.299 70.2966 103.882 70.2966C102.465 70.2966 101.316 71.5234 101.316 73.0366C101.316 74.5499 102.465 75.7766 103.882 75.7766Z" fill="#0087EB"/>
<path d="M65.0209 6.51431C65.0209 8.60107 63.4406 10.2886 61.4865 10.2886C59.5324 10.2886 57.9521 8.60107 57.9521 6.51431C57.9521 4.42755 59.5324 2.73999 61.4865 2.73999C63.4406 2.73999 65.0209 4.42755 65.0209 6.51431Z" fill="#0087EB"/>
<path d="M68.8777 43.3774C68.8777 44.0397 68.3765 44.575 67.7563 44.575C67.136 44.575 66.6348 44.0397 66.6348 43.3774C66.6348 42.7151 67.136 42.1798 67.7563 42.1798C68.3765 42.1798 68.8777 42.7151 68.8777 43.3774Z" fill="#0087EB"/>
<path d="M102.752 162.196C104.615 162.196 106.125 160.583 106.125 158.594C106.125 156.605 104.615 154.992 102.752 154.992C100.89 154.992 99.3794 156.605 99.3794 158.594C99.3794 160.583 100.89 162.196 102.752 162.196Z" fill="#0087EB"/>
<path d="M102.277 184.143C102.277 184.715 101.843 185.168 101.317 185.168C100.79 185.168 100.356 184.706 100.356 184.143C100.356 183.581 100.79 183.118 101.317 183.118C101.843 183.118 102.277 183.581 102.277 184.143Z" fill="#0087EB"/>
<path d="M114.8 201.971C114.8 202.543 114.366 202.997 113.839 202.997C113.313 202.997 112.879 202.534 112.879 201.971C112.879 201.409 113.313 200.946 113.839 200.946C114.366 200.946 114.8 201.409 114.8 201.971Z" fill="#0087EB"/>
<path d="M87.9856 215C89.4918 215 90.7128 213.696 90.7128 212.088C90.7128 210.479 89.4918 209.175 87.9856 209.175C86.4793 209.175 85.2583 210.479 85.2583 212.088C85.2583 213.696 86.4793 215 87.9856 215Z" fill="#0087EB"/>
</svg>
