<svg width="48" height="48" viewBox="0 0 48 48" fill="none" xmlns="http://www.w3.org/2000/svg">
  <g clip-path="url(#clip0_83_626)">
    <path
      d="M48 24C48 10.7449 37.2551 0 24 0C10.7449 0 0 10.7449 0 24C0 35.9787 8.77511 45.9093 20.2489 47.7084V30.9369H14.1547V24H20.2489V18.7129C20.2489 12.6969 23.8329 9.376 29.3156 9.376C31.9431 9.376 34.688 9.84533 34.688 9.84533V15.7511H31.6622C28.6827 15.7511 27.7511 17.6 27.7511 19.4987V24H34.4071L33.344 30.9369H27.7511V47.7084C39.2249 45.9093 48 35.9787 48 24Z"
      fill="white" />
    <path
      d="M33.3405 30.9369L34.4036 24H27.7476V19.4986C27.7476 17.6 28.6756 15.7511 31.6587 15.7511H34.6845V9.84531C34.6845 9.84531 31.9396 9.37598 29.312 9.37598C23.8293 9.37598 20.2453 12.6969 20.2453 18.7129V24H14.1511V30.9369H20.2453V47.7084C21.4685 47.9004 22.72 48 23.9965 48C25.2729 48 26.5245 47.9004 27.7476 47.7084V30.9369H33.3405Z"
      fill="black" />
  </g>
  <defs>
    <clipPath id="clip0_83_626">
      <rect width="48" height="48" fill="white" />
    </clipPath>
  </defs>
</svg>