<svg width="24" height="24" viewBox="0 0 24 24" fill="none" xmlns="http://www.w3.org/2000/svg">
  <g clip-path="url(#clip0_26_72)">
    <path
      d="M24 12C24 5.37244 18.6276 0 12 0C5.37244 0 0 5.37244 0 12C0 17.9893 4.38756 22.9547 10.1244 23.8542V15.4684H7.07733V12H10.1244V9.35645C10.1244 6.34844 11.9164 4.688 14.6578 4.688C15.9716 4.688 17.344 4.92267 17.344 4.92267V7.87556H15.8311C14.3413 7.87556 13.8756 8.8 13.8756 9.74933V12H17.2036L16.672 15.4684H13.8756V23.8542C19.6124 22.9547 24 17.9893 24 12Z"
      fill="#84BD00" />
    <path
      d="M16.6702 15.4684L17.2018 12H13.8738V9.74933C13.8738 8.8 14.3378 7.87556 15.8293 7.87556H17.3422V4.92267C17.3422 4.92267 15.9698 4.688 14.656 4.688C11.9147 4.688 10.1227 6.34844 10.1227 9.35644V12H7.07556V15.4684H10.1227V23.8542C10.7342 23.9502 11.36 24 11.9982 24C12.6365 24 13.2622 23.9502 13.8738 23.8542V15.4684H16.6702Z"
      fill="white" />
  </g>
  <defs>
    <clipPath id="clip0_26_72">
      <rect width="24" height="24" fill="white" />
    </clipPath>
  </defs>
</svg>