<svg width="24" height="24" viewBox="0 0 24 24" fill="none" xmlns="http://www.w3.org/2000/svg">
  <g clip-path="url(#clip0_26_75)">
    <path
      d="M12 24C18.6274 24 24 18.6274 24 12C24 5.37258 18.6274 0 12 0C5.37258 0 0 5.37258 0 12C0 18.6274 5.37258 24 12 24Z"
      fill="#84BD00" />
    <path
      d="M9.57511 18.912C15.4364 18.912 18.6418 14.0569 18.6418 9.84533C18.6418 9.70667 18.6382 9.56978 18.6329 9.43289C19.2551 8.98311 19.7956 8.42133 20.2222 7.78311C19.6516 8.03733 19.0364 8.208 18.3929 8.28444C19.0507 7.88978 19.5556 7.26578 19.7938 6.52267C19.1787 6.88711 18.496 7.15378 17.7707 7.296C17.1893 6.67733 16.3609 6.28978 15.4453 6.28978C13.6853 6.28978 12.2578 7.71733 12.2578 9.47555C12.2578 9.72622 12.2862 9.968 12.3413 10.2027C9.69244 10.0693 7.344 8.80178 5.77422 6.87289C5.50044 7.344 5.34222 7.89155 5.34222 8.47467C5.34222 9.58044 5.904 10.5564 6.76088 11.1271C6.23822 11.1111 5.74755 10.9671 5.31733 10.7289C5.31733 10.7413 5.31733 10.7556 5.31733 10.7698C5.31733 12.3129 6.416 13.6018 7.87377 13.8933C7.60533 13.9662 7.32444 14.0053 7.03466 14.0053C6.83022 14.0053 6.62933 13.9858 6.43555 13.9484C6.84088 15.2142 8.01777 16.1351 9.41155 16.1618C8.32 17.0169 6.94755 17.5253 5.45422 17.5253C5.19644 17.5253 4.944 17.5111 4.69333 17.4809C6.10311 18.384 7.77777 18.912 9.57688 18.912"
      fill="white" />
  </g>
  <defs>
    <clipPath id="clip0_26_75">
      <rect width="24" height="24" fill="white" />
    </clipPath>
  </defs>
</svg>