<svg width="49" height="48" viewBox="0 0 49 48" fill="none" xmlns="http://www.w3.org/2000/svg">
  <g clip-path="url(#clip0_83_629)">
    <path
      d="M24.6641 48C37.9189 48 48.6641 37.2548 48.6641 24C48.6641 10.7452 37.9189 0 24.6641 0C11.4092 0 0.664062 10.7452 0.664062 24C0.664062 37.2548 11.4092 48 24.6641 48Z"
      fill="white" />
    <path
      d="M19.8143 37.824C31.537 37.824 37.9477 28.1138 37.9477 19.6907C37.9477 19.4134 37.9406 19.1396 37.9299 18.8658C39.1743 17.9663 40.2552 16.8427 41.1086 15.5663C39.9672 16.0747 38.737 16.416 37.4499 16.5689C38.7654 15.7796 39.7752 14.5316 40.2517 13.0454C39.0214 13.7743 37.6561 14.3076 36.2054 14.592C35.0428 13.3547 33.3859 12.5796 31.5548 12.5796C28.0348 12.5796 25.1797 15.4347 25.1797 18.9511C25.1797 19.4525 25.2366 19.936 25.3468 20.4054C20.049 20.1387 15.3521 17.6036 12.2126 13.7458C11.665 14.688 11.3486 15.7831 11.3486 16.9494C11.3486 19.1609 12.4721 21.1129 14.1859 22.2543C13.1406 22.2223 12.1592 21.9343 11.2988 21.4578C11.2988 21.4827 11.2988 21.5111 11.2988 21.5396C11.2988 24.6258 13.4961 27.2036 16.4117 27.7867C15.8748 27.9325 15.313 28.0107 14.7334 28.0107C14.3246 28.0107 13.9228 27.9716 13.5352 27.8969C14.3459 30.4285 16.6997 32.2703 19.4872 32.3236C17.3041 34.0338 14.5592 35.0507 11.5726 35.0507C11.057 35.0507 10.5521 35.0223 10.0508 34.9618C12.8703 36.768 16.2197 37.824 19.8179 37.824"
      fill="black" />
  </g>
  <defs>
    <clipPath id="clip0_83_629">
      <rect width="48" height="48" fill="white" transform="translate(0.664062)" />
    </clipPath>
  </defs>
</svg>