<svg width="24" height="24" viewBox="0 0 24 24" fill="none" xmlns="http://www.w3.org/2000/svg">
  <g clip-path="url(#clip0_26_186)">
    <path
      d="M12 24C18.6274 24 24 18.6274 24 12C24 5.37258 18.6274 0 12 0C5.37258 0 0 5.37258 0 12C0 18.6274 5.37258 24 12 24Z"
      fill="#84BD00" />
    <path
      d="M9.57511 18.912C15.4364 18.912 18.6418 14.0569 18.6418 9.84535C18.6418 9.70668 18.6382 9.56979 18.6329 9.43291C19.2551 8.98313 19.7956 8.42135 20.2222 7.78313C19.6516 8.03735 19.0364 8.20802 18.3929 8.28446C19.0507 7.88979 19.5556 7.26579 19.7938 6.52268C19.1787 6.88713 18.496 7.15379 17.7707 7.29602C17.1893 6.67735 16.3609 6.28979 15.4453 6.28979C13.6853 6.28979 12.2578 7.71735 12.2578 9.47557C12.2578 9.72624 12.2862 9.96802 12.3413 10.2027C9.69244 10.0694 7.344 8.80179 5.77422 6.87291C5.50044 7.34402 5.34222 7.89157 5.34222 8.47468C5.34222 9.58046 5.904 10.5565 6.76088 11.1271C6.23822 11.1111 5.74755 10.9671 5.31733 10.7289C5.31733 10.7413 5.31733 10.7556 5.31733 10.7698C5.31733 12.3129 6.416 13.6018 7.87377 13.8934C7.60533 13.9662 7.32444 14.0053 7.03466 14.0053C6.83022 14.0053 6.62933 13.9858 6.43555 13.9485C6.84088 15.2142 8.01777 16.1351 9.41155 16.1618C8.32 17.0169 6.94755 17.5253 5.45422 17.5253C5.19644 17.5253 4.944 17.5111 4.69333 17.4809C6.10311 18.384 7.77777 18.912 9.57688 18.912"
      fill="#343A40" />
  </g>
  <defs>
    <clipPath id="clip0_26_186">
      <rect width="24" height="24" fill="white" />
    </clipPath>
  </defs>
</svg>