<svg width="24" height="24" viewBox="0 0 24 24" fill="none" xmlns="http://www.w3.org/2000/svg">
  <g clip-path="url(#clip0_26_78)">
    <path
      d="M12 24C18.6274 24 24 18.6274 24 12C24 5.37258 18.6274 0 12 0C5.37258 0 0 5.37258 0 12C0 18.6274 5.37258 24 12 24Z"
      fill="#84BD00" />
    <path
      d="M19.6658 8.14933C19.4827 7.46133 18.9404 6.91911 18.2507 6.73422C17.0027 6.4 12 6.4 12 6.4C12 6.4 6.99733 6.4 5.74933 6.73422C5.06133 6.91911 4.51911 7.45956 4.33422 8.14933C4 9.39733 4 12 4 12C4 12 4 14.6027 4.33422 15.8507C4.51733 16.5387 5.05956 17.0809 5.74933 17.2658C6.99733 17.6 12 17.6 12 17.6C12 17.6 17.0027 17.6 18.2507 17.2658C18.9387 17.0809 19.4809 16.5404 19.6658 15.8507C20 14.6027 20 12 20 12C20 12 20 9.39733 19.6658 8.14933ZM10.4 14.4V9.6L14.5564 12L10.4 14.4Z"
      fill="white" />
  </g>
  <defs>
    <clipPath id="clip0_26_78">
      <rect width="24" height="24" fill="white" />
    </clipPath>
  </defs>
</svg>