<svg width="49" height="48" viewBox="0 0 49 48" fill="none" xmlns="http://www.w3.org/2000/svg">
  <g clip-path="url(#clip0_83_632)">
    <path
      d="M24.3359 48C37.5908 48 48.3359 37.2548 48.3359 24C48.3359 10.7452 37.5908 0 24.3359 0C11.0811 0 0.335938 10.7452 0.335938 24C0.335938 37.2548 11.0811 48 24.3359 48Z"
      fill="white" />
    <path
      d="M39.6675 16.2987C39.3013 14.9227 38.2168 13.8383 36.8373 13.4685C34.3413 12.8 24.3359 12.8 24.3359 12.8C24.3359 12.8 14.3306 12.8 11.8346 13.4685C10.4586 13.8383 9.37416 14.9192 9.00438 16.2987C8.33594 18.7947 8.33594 24 8.33594 24C8.33594 24 8.33594 29.2054 9.00438 31.7014C9.3706 33.0774 10.455 34.1618 11.8346 34.5316C14.3306 35.2001 24.3359 35.2 24.3359 35.2C24.3359 35.2 34.3413 35.2001 36.8373 34.5316C38.2133 34.1618 39.2977 33.0809 39.6675 31.7014C40.3359 29.2054 40.3359 24 40.3359 24C40.3359 24 40.3359 18.7947 39.6675 16.2987ZM21.1359 28.8V19.2L29.4488 24L21.1359 28.8Z"
      fill="black" />
  </g>
  <defs>
    <clipPath id="clip0_83_632">
      <rect width="48" height="48" fill="white" transform="translate(0.335938)" />
    </clipPath>
  </defs>
</svg>