<svg width="24" height="24" viewBox="0 0 24 24" fill="none" xmlns="http://www.w3.org/2000/svg">
  <g clip-path="url(#clip0_26_189)">
    <path
      d="M12 24C18.6274 24 24 18.6274 24 12C24 5.37258 18.6274 0 12 0C5.37258 0 0 5.37258 0 12C0 18.6274 5.37258 24 12 24Z"
      fill="#84BD00" />
    <path
      d="M19.6658 8.14924C19.4827 7.46124 18.9404 6.91901 18.2507 6.73412C17.0027 6.3999 12 6.3999 12 6.3999C12 6.3999 6.99733 6.3999 5.74933 6.73412C5.06133 6.91901 4.51911 7.45946 4.33422 8.14924C4 9.39724 4 11.9999 4 11.9999C4 11.9999 4 14.6026 4.33422 15.8506C4.51733 16.5386 5.05956 17.0808 5.74933 17.2657C6.99733 17.5999 12 17.5999 12 17.5999C12 17.5999 17.0027 17.5999 18.2507 17.2657C18.9387 17.0808 19.4809 16.5403 19.6658 15.8506C20 14.6026 20 11.9999 20 11.9999C20 11.9999 20 9.39724 19.6658 8.14924ZM10.4 14.3999V9.5999L14.5564 11.9999L10.4 14.3999Z"
      fill="#343A40" />
  </g>
  <defs>
    <clipPath id="clip0_26_189">
      <rect width="24" height="24" fill="white" />
    </clipPath>
  </defs>
</svg>