<svg width="229" height="78" viewBox="0 0 229 78" fill="none" xmlns="http://www.w3.org/2000/svg">
  <g opacity="0.5">
    <path d="M20.075 0L37.4605 10.0375V30.1125L20.075 40.15L2.68954 30.1125V10.0375L20.075 0Z" fill="#84BD00" />
    <path d="M6.85053 12.4399L20.075 4.80472L33.2995 12.4399V27.7102L20.075 35.3453L6.85053 27.7102V12.4399Z"
      fill="#84BD00" stroke="white" stroke-width="2" stroke-miterlimit="1.03528" />
    <path d="M60.225 0L77.6105 10.0375V30.1125L60.225 40.15L42.8395 30.1125V10.0375L60.225 0Z" fill="#84BD00" />
    <path d="M47.0005 12.4399L60.225 4.80472L73.4495 12.4399V27.7102L60.225 35.3453L47.0005 27.7102V12.4399Z"
      fill="#84BD00" stroke="white" stroke-width="2" stroke-miterlimit="1.03528" />
    <path d="M39.785 32.85L57.1705 42.8875V62.9625L39.785 73L22.3995 62.9625V42.8875L39.785 32.85Z" fill="#84BD00" />
    <path d="M26.5605 45.2897L39.785 37.6546L53.0095 45.2897V60.56L39.785 68.1952L26.5605 60.56V45.2897Z" fill="#84BD00"
      stroke="white" stroke-width="2" stroke-miterlimit="1.03528" />
  </g>
  <mask id="path-7-outside-1_83_659" maskUnits="userSpaceOnUse" x="47" y="12" width="179" height="58" fill="black">
    <rect fill="white" x="47" y="12" width="179" height="58" />
    <path
      d="M53.7263 34V15.8H63.0343C65.4263 15.8 67.2116 16.242 68.3903 17.126C69.5689 17.9927 70.1583 19.1367 70.1583 20.558C70.1583 21.494 69.9069 22.3173 69.4043 23.028C68.9189 23.7213 68.2256 24.276 67.3243 24.692C66.4403 25.0907 65.3829 25.29 64.1523 25.29L64.6723 24.042C65.9549 24.042 67.0729 24.2413 68.0263 24.64C68.9796 25.0213 69.7163 25.5847 70.2363 26.33C70.7736 27.058 71.0423 27.9507 71.0423 29.008C71.0423 30.5853 70.4009 31.816 69.1183 32.7C67.8529 33.5667 65.9983 34 63.5543 34H53.7263ZM58.8223 30.282H63.1383C64.0223 30.282 64.6896 30.1347 65.1403 29.84C65.6083 29.528 65.8423 29.06 65.8423 28.436C65.8423 27.812 65.6083 27.3527 65.1403 27.058C64.6896 26.746 64.0223 26.59 63.1383 26.59H58.4583V23.028H62.3583C63.2249 23.028 63.8749 22.8807 64.3083 22.586C64.7416 22.2913 64.9583 21.8493 64.9583 21.26C64.9583 20.6707 64.7416 20.2373 64.3083 19.96C63.8749 19.6653 63.2249 19.518 62.3583 19.518H58.8223V30.282ZM78.4407 22.846H86.8907V26.694H78.4407V22.846ZM78.8047 30.022H88.3207V34H73.7087V15.8H87.9827V19.778H78.8047V30.022ZM91.1774 34V15.8H95.4154L105.451 27.916H103.449V15.8H108.493V34H104.255L94.2194 21.884H96.2214V34H91.1774ZM116.857 22.846H125.307V26.694H116.857V22.846ZM117.221 30.022H126.737V34H112.125V15.8H126.399V19.778H117.221V30.022ZM134.377 23.782H142.775V27.76H134.377V23.782ZM134.741 34H129.593V15.8H143.867V19.778H134.741V34ZM146.275 34V15.8H151.423V34H146.275ZM164.16 34.364C162.721 34.364 161.386 34.1387 160.156 33.688C158.942 33.22 157.885 32.5613 156.984 31.712C156.1 30.8627 155.406 29.866 154.904 28.722C154.401 27.5607 154.15 26.2867 154.15 24.9C154.15 23.5133 154.401 22.248 154.904 21.104C155.406 19.9427 156.1 18.9373 156.984 18.088C157.885 17.2387 158.942 16.5887 160.156 16.138C161.386 15.67 162.721 15.436 164.16 15.436C165.841 15.436 167.34 15.7307 168.658 16.32C169.992 16.9093 171.102 17.7587 171.986 18.868L168.71 21.832C168.12 21.1387 167.47 20.61 166.76 20.246C166.066 19.882 165.286 19.7 164.42 19.7C163.674 19.7 162.99 19.8213 162.366 20.064C161.742 20.3067 161.204 20.662 160.754 21.13C160.32 21.5807 159.974 22.1267 159.714 22.768C159.471 23.4093 159.35 24.12 159.35 24.9C159.35 25.68 159.471 26.3907 159.714 27.032C159.974 27.6733 160.32 28.228 160.754 28.696C161.204 29.1467 161.742 29.4933 162.366 29.736C162.99 29.9787 163.674 30.1 164.42 30.1C165.286 30.1 166.066 29.918 166.76 29.554C167.47 29.19 168.12 28.6613 168.71 27.968L171.986 30.932C171.102 32.024 169.992 32.8733 168.658 33.48C167.34 34.0693 165.841 34.364 164.16 34.364ZM174.281 34V15.8H179.429V34H174.281ZM192.269 34.364C190.813 34.364 189.47 34.13 188.239 33.662C187.009 33.194 185.934 32.5353 185.015 31.686C184.114 30.8193 183.412 29.814 182.909 28.67C182.407 27.526 182.155 26.2693 182.155 24.9C182.155 23.5307 182.407 22.274 182.909 21.13C183.412 19.986 184.114 18.9893 185.015 18.14C185.934 17.2733 187.009 16.606 188.239 16.138C189.47 15.67 190.813 15.436 192.269 15.436C193.743 15.436 195.086 15.67 196.299 16.138C197.53 16.606 198.596 17.2733 199.497 18.14C200.399 18.9893 201.101 19.986 201.603 21.13C202.123 22.274 202.383 23.5307 202.383 24.9C202.383 26.2693 202.123 27.5347 201.603 28.696C201.101 29.84 200.399 30.8367 199.497 31.686C198.596 32.5353 197.53 33.194 196.299 33.662C195.086 34.13 193.743 34.364 192.269 34.364ZM192.269 30.1C192.963 30.1 193.604 29.9787 194.193 29.736C194.8 29.4933 195.32 29.1467 195.753 28.696C196.204 28.228 196.551 27.6733 196.793 27.032C197.053 26.3907 197.183 25.68 197.183 24.9C197.183 24.1027 197.053 23.392 196.793 22.768C196.551 22.1267 196.204 21.5807 195.753 21.13C195.32 20.662 194.8 20.3067 194.193 20.064C193.604 19.8213 192.963 19.7 192.269 19.7C191.576 19.7 190.926 19.8213 190.319 20.064C189.73 20.3067 189.21 20.662 188.759 21.13C188.326 21.5807 187.979 22.1267 187.719 22.768C187.477 23.392 187.355 24.1027 187.355 24.9C187.355 25.68 187.477 26.3907 187.719 27.032C187.979 27.6733 188.326 28.228 188.759 28.696C189.21 29.1467 189.73 29.4933 190.319 29.736C190.926 29.9787 191.576 30.1 192.269 30.1ZM211.476 34.364C209.985 34.364 208.546 34.182 207.16 33.818C205.79 33.4367 204.672 32.9513 203.806 32.362L205.496 28.566C206.31 29.086 207.246 29.5193 208.304 29.866C209.378 30.1953 210.444 30.36 211.502 30.36C212.212 30.36 212.784 30.2993 213.218 30.178C213.651 30.0393 213.963 29.866 214.154 29.658C214.362 29.4327 214.466 29.1727 214.466 28.878C214.466 28.462 214.275 28.1327 213.894 27.89C213.512 27.6473 213.018 27.448 212.412 27.292C211.805 27.136 211.129 26.98 210.384 26.824C209.656 26.668 208.919 26.4687 208.174 26.226C207.446 25.9833 206.778 25.6713 206.172 25.29C205.565 24.8913 205.071 24.38 204.69 23.756C204.308 23.1147 204.118 22.3087 204.118 21.338C204.118 20.246 204.412 19.258 205.002 18.374C205.608 17.49 206.51 16.7793 207.706 16.242C208.902 15.7047 210.392 15.436 212.178 15.436C213.374 15.436 214.544 15.5747 215.688 15.852C216.849 16.112 217.88 16.502 218.782 17.022L217.196 20.844C216.329 20.376 215.471 20.0293 214.622 19.804C213.772 19.5613 212.949 19.44 212.152 19.44C211.441 19.44 210.869 19.518 210.436 19.674C210.002 19.8127 209.69 20.0033 209.5 20.246C209.309 20.4887 209.214 20.766 209.214 21.078C209.214 21.4767 209.396 21.7973 209.76 22.04C210.141 22.2653 210.635 22.456 211.242 22.612C211.866 22.7507 212.542 22.898 213.27 23.054C214.015 23.21 214.752 23.4093 215.48 23.652C216.225 23.8773 216.901 24.1893 217.508 24.588C218.114 24.9693 218.6 25.4807 218.964 26.122C219.345 26.746 219.536 27.5347 219.536 28.488C219.536 29.5453 219.232 30.5247 218.626 31.426C218.036 32.31 217.144 33.0207 215.948 33.558C214.769 34.0953 213.278 34.364 211.476 34.364Z" />
    <path
      d="M55.1194 54.846H63.5694V58.694H55.1194V54.846ZM55.4834 62.022H64.9994V66H50.3874V47.8H64.6614V51.778H55.4834V62.022ZM65.8318 66L73.7878 54.95L73.7618 58.616L66.1178 47.8H71.9158L76.8038 54.846L74.3338 54.872L79.1438 47.8H84.7078L77.0638 58.408V54.768L85.1238 66H79.1958L74.2298 58.59H76.5958L71.7078 66H65.8318ZM95.2876 66.364C93.8489 66.364 92.5142 66.1387 91.2836 65.688C90.0702 65.22 89.0129 64.5613 88.1116 63.712C87.2276 62.8627 86.5342 61.866 86.0316 60.722C85.5289 59.5607 85.2776 58.2867 85.2776 56.9C85.2776 55.5133 85.5289 54.248 86.0316 53.104C86.5342 51.9427 87.2276 50.9373 88.1116 50.088C89.0129 49.2387 90.0702 48.5887 91.2836 48.138C92.5142 47.67 93.8489 47.436 95.2876 47.436C96.9689 47.436 98.4682 47.7307 99.7856 48.32C101.12 48.9093 102.23 49.7587 103.114 50.868L99.8376 53.832C99.2482 53.1387 98.5982 52.61 97.8876 52.246C97.1942 51.882 96.4142 51.7 95.5476 51.7C94.8022 51.7 94.1176 51.8213 93.4936 52.064C92.8696 52.3067 92.3322 52.662 91.8816 53.13C91.4482 53.5807 91.1016 54.1267 90.8416 54.768C90.5989 55.4093 90.4776 56.12 90.4776 56.9C90.4776 57.68 90.5989 58.3907 90.8416 59.032C91.1016 59.6733 91.4482 60.228 91.8816 60.696C92.3322 61.1467 92.8696 61.4933 93.4936 61.736C94.1176 61.9787 94.8022 62.1 95.5476 62.1C96.4142 62.1 97.1942 61.918 97.8876 61.554C98.5982 61.19 99.2482 60.6613 99.8376 59.968L103.114 62.932C102.23 64.024 101.12 64.8733 99.7856 65.48C98.4682 66.0693 96.9689 66.364 95.2876 66.364ZM105.409 66V47.8H110.557V61.918H119.241V66H105.409ZM129.498 66.364C126.812 66.364 124.714 65.6273 123.206 64.154C121.698 62.6807 120.944 60.592 120.944 57.888V47.8H126.092V57.732C126.092 59.292 126.396 60.41 127.002 61.086C127.626 61.762 128.476 62.1 129.55 62.1C130.625 62.1 131.466 61.762 132.072 61.086C132.679 60.41 132.982 59.292 132.982 57.732V47.8H138.052V57.888C138.052 60.592 137.298 62.6807 135.79 64.154C134.282 65.6273 132.185 66.364 129.498 66.364ZM147.936 66.364C146.445 66.364 145.006 66.182 143.62 65.818C142.25 65.4367 141.132 64.9513 140.266 64.362L141.956 60.566C142.77 61.086 143.706 61.5193 144.764 61.866C145.838 62.1953 146.904 62.36 147.962 62.36C148.672 62.36 149.244 62.2993 149.678 62.178C150.111 62.0393 150.423 61.866 150.614 61.658C150.822 61.4327 150.926 61.1727 150.926 60.878C150.926 60.462 150.735 60.1327 150.354 59.89C149.972 59.6473 149.478 59.448 148.872 59.292C148.265 59.136 147.589 58.98 146.844 58.824C146.116 58.668 145.379 58.4687 144.634 58.226C143.906 57.9833 143.238 57.6713 142.632 57.29C142.025 56.8913 141.531 56.38 141.15 55.756C140.768 55.1147 140.578 54.3087 140.578 53.338C140.578 52.246 140.872 51.258 141.462 50.374C142.068 49.49 142.97 48.7793 144.166 48.242C145.362 47.7047 146.852 47.436 148.638 47.436C149.834 47.436 151.004 47.5747 152.148 47.852C153.309 48.112 154.34 48.502 155.242 49.022L153.656 52.844C152.789 52.376 151.931 52.0293 151.082 51.804C150.232 51.5613 149.409 51.44 148.612 51.44C147.901 51.44 147.329 51.518 146.896 51.674C146.462 51.8127 146.15 52.0033 145.96 52.246C145.769 52.4887 145.674 52.766 145.674 53.078C145.674 53.4767 145.856 53.7973 146.22 54.04C146.601 54.2653 147.095 54.456 147.702 54.612C148.326 54.7507 149.002 54.898 149.73 55.054C150.475 55.21 151.212 55.4093 151.94 55.652C152.685 55.8773 153.361 56.1893 153.968 56.588C154.574 56.9693 155.06 57.4807 155.424 58.122C155.805 58.746 155.996 59.5347 155.996 60.488C155.996 61.5453 155.692 62.5247 155.086 63.426C154.496 64.31 153.604 65.0207 152.408 65.558C151.229 66.0953 149.738 66.364 147.936 66.364ZM158.374 66V47.8H163.522V66H158.374ZM172.723 66L164.949 47.8H170.513L177.065 63.556H173.789L180.497 47.8H185.593L177.793 66H172.723ZM195.608 66.364C194.152 66.364 192.809 66.13 191.578 65.662C190.348 65.194 189.273 64.5353 188.354 63.686C187.453 62.8193 186.751 61.814 186.248 60.67C185.746 59.526 185.494 58.2693 185.494 56.9C185.494 55.5307 185.746 54.274 186.248 53.13C186.751 51.986 187.453 50.9893 188.354 50.14C189.273 49.2733 190.348 48.606 191.578 48.138C192.809 47.67 194.152 47.436 195.608 47.436C197.082 47.436 198.425 47.67 199.638 48.138C200.869 48.606 201.935 49.2733 202.836 50.14C203.738 50.9893 204.44 51.986 204.942 53.13C205.462 54.274 205.722 55.5307 205.722 56.9C205.722 58.2693 205.462 59.5347 204.942 60.696C204.44 61.84 203.738 62.8367 202.836 63.686C201.935 64.5353 200.869 65.194 199.638 65.662C198.425 66.13 197.082 66.364 195.608 66.364ZM195.608 62.1C196.302 62.1 196.943 61.9787 197.532 61.736C198.139 61.4933 198.659 61.1467 199.092 60.696C199.543 60.228 199.89 59.6733 200.132 59.032C200.392 58.3907 200.522 57.68 200.522 56.9C200.522 56.1027 200.392 55.392 200.132 54.768C199.89 54.1267 199.543 53.5807 199.092 53.13C198.659 52.662 198.139 52.3067 197.532 52.064C196.943 51.8213 196.302 51.7 195.608 51.7C194.915 51.7 194.265 51.8213 193.658 52.064C193.069 52.3067 192.549 52.662 192.098 53.13C191.665 53.5807 191.318 54.1267 191.058 54.768C190.816 55.392 190.694 56.1027 190.694 56.9C190.694 57.68 190.816 58.3907 191.058 59.032C191.318 59.6733 191.665 60.228 192.098 60.696C192.549 61.1467 193.069 61.4933 193.658 61.736C194.265 61.9787 194.915 62.1 195.608 62.1ZM214.815 66.364C213.324 66.364 211.885 66.182 210.499 65.818C209.129 65.4367 208.011 64.9513 207.145 64.362L208.835 60.566C209.649 61.086 210.585 61.5193 211.643 61.866C212.717 62.1953 213.783 62.36 214.841 62.36C215.551 62.36 216.123 62.2993 216.557 62.178C216.99 62.0393 217.302 61.866 217.493 61.658C217.701 61.4327 217.805 61.1727 217.805 60.878C217.805 60.462 217.614 60.1327 217.233 59.89C216.851 59.6473 216.357 59.448 215.751 59.292C215.144 59.136 214.468 58.98 213.723 58.824C212.995 58.668 212.258 58.4687 211.513 58.226C210.785 57.9833 210.117 57.6713 209.511 57.29C208.904 56.8913 208.41 56.38 208.029 55.756C207.647 55.1147 207.457 54.3087 207.457 53.338C207.457 52.246 207.751 51.258 208.341 50.374C208.947 49.49 209.849 48.7793 211.045 48.242C212.241 47.7047 213.731 47.436 215.517 47.436C216.713 47.436 217.883 47.5747 219.027 47.852C220.188 48.112 221.219 48.502 222.121 49.022L220.535 52.844C219.668 52.376 218.81 52.0293 217.961 51.804C217.111 51.5613 216.288 51.44 215.491 51.44C214.78 51.44 214.208 51.518 213.775 51.674C213.341 51.8127 213.029 52.0033 212.839 52.246C212.648 52.4887 212.553 52.766 212.553 53.078C212.553 53.4767 212.735 53.7973 213.099 54.04C213.48 54.2653 213.974 54.456 214.581 54.612C215.205 54.7507 215.881 54.898 216.609 55.054C217.354 55.21 218.091 55.4093 218.819 55.652C219.564 55.8773 220.24 56.1893 220.847 56.588C221.453 56.9693 221.939 57.4807 222.303 58.122C222.684 58.746 222.875 59.5347 222.875 60.488C222.875 61.5453 222.571 62.5247 221.965 63.426C221.375 64.31 220.483 65.0207 219.287 65.558C218.108 66.0953 216.617 66.364 214.815 66.364Z" />
  </mask>
  <path
    d="M53.7263 34V15.8H63.0343C65.4263 15.8 67.2116 16.242 68.3903 17.126C69.5689 17.9927 70.1583 19.1367 70.1583 20.558C70.1583 21.494 69.9069 22.3173 69.4043 23.028C68.9189 23.7213 68.2256 24.276 67.3243 24.692C66.4403 25.0907 65.3829 25.29 64.1523 25.29L64.6723 24.042C65.9549 24.042 67.0729 24.2413 68.0263 24.64C68.9796 25.0213 69.7163 25.5847 70.2363 26.33C70.7736 27.058 71.0423 27.9507 71.0423 29.008C71.0423 30.5853 70.4009 31.816 69.1183 32.7C67.8529 33.5667 65.9983 34 63.5543 34H53.7263ZM58.8223 30.282H63.1383C64.0223 30.282 64.6896 30.1347 65.1403 29.84C65.6083 29.528 65.8423 29.06 65.8423 28.436C65.8423 27.812 65.6083 27.3527 65.1403 27.058C64.6896 26.746 64.0223 26.59 63.1383 26.59H58.4583V23.028H62.3583C63.2249 23.028 63.8749 22.8807 64.3083 22.586C64.7416 22.2913 64.9583 21.8493 64.9583 21.26C64.9583 20.6707 64.7416 20.2373 64.3083 19.96C63.8749 19.6653 63.2249 19.518 62.3583 19.518H58.8223V30.282ZM78.4407 22.846H86.8907V26.694H78.4407V22.846ZM78.8047 30.022H88.3207V34H73.7087V15.8H87.9827V19.778H78.8047V30.022ZM91.1774 34V15.8H95.4154L105.451 27.916H103.449V15.8H108.493V34H104.255L94.2194 21.884H96.2214V34H91.1774ZM116.857 22.846H125.307V26.694H116.857V22.846ZM117.221 30.022H126.737V34H112.125V15.8H126.399V19.778H117.221V30.022ZM134.377 23.782H142.775V27.76H134.377V23.782ZM134.741 34H129.593V15.8H143.867V19.778H134.741V34ZM146.275 34V15.8H151.423V34H146.275ZM164.16 34.364C162.721 34.364 161.386 34.1387 160.156 33.688C158.942 33.22 157.885 32.5613 156.984 31.712C156.1 30.8627 155.406 29.866 154.904 28.722C154.401 27.5607 154.15 26.2867 154.15 24.9C154.15 23.5133 154.401 22.248 154.904 21.104C155.406 19.9427 156.1 18.9373 156.984 18.088C157.885 17.2387 158.942 16.5887 160.156 16.138C161.386 15.67 162.721 15.436 164.16 15.436C165.841 15.436 167.34 15.7307 168.658 16.32C169.992 16.9093 171.102 17.7587 171.986 18.868L168.71 21.832C168.12 21.1387 167.47 20.61 166.76 20.246C166.066 19.882 165.286 19.7 164.42 19.7C163.674 19.7 162.99 19.8213 162.366 20.064C161.742 20.3067 161.204 20.662 160.754 21.13C160.32 21.5807 159.974 22.1267 159.714 22.768C159.471 23.4093 159.35 24.12 159.35 24.9C159.35 25.68 159.471 26.3907 159.714 27.032C159.974 27.6733 160.32 28.228 160.754 28.696C161.204 29.1467 161.742 29.4933 162.366 29.736C162.99 29.9787 163.674 30.1 164.42 30.1C165.286 30.1 166.066 29.918 166.76 29.554C167.47 29.19 168.12 28.6613 168.71 27.968L171.986 30.932C171.102 32.024 169.992 32.8733 168.658 33.48C167.34 34.0693 165.841 34.364 164.16 34.364ZM174.281 34V15.8H179.429V34H174.281ZM192.269 34.364C190.813 34.364 189.47 34.13 188.239 33.662C187.009 33.194 185.934 32.5353 185.015 31.686C184.114 30.8193 183.412 29.814 182.909 28.67C182.407 27.526 182.155 26.2693 182.155 24.9C182.155 23.5307 182.407 22.274 182.909 21.13C183.412 19.986 184.114 18.9893 185.015 18.14C185.934 17.2733 187.009 16.606 188.239 16.138C189.47 15.67 190.813 15.436 192.269 15.436C193.743 15.436 195.086 15.67 196.299 16.138C197.53 16.606 198.596 17.2733 199.497 18.14C200.399 18.9893 201.101 19.986 201.603 21.13C202.123 22.274 202.383 23.5307 202.383 24.9C202.383 26.2693 202.123 27.5347 201.603 28.696C201.101 29.84 200.399 30.8367 199.497 31.686C198.596 32.5353 197.53 33.194 196.299 33.662C195.086 34.13 193.743 34.364 192.269 34.364ZM192.269 30.1C192.963 30.1 193.604 29.9787 194.193 29.736C194.8 29.4933 195.32 29.1467 195.753 28.696C196.204 28.228 196.551 27.6733 196.793 27.032C197.053 26.3907 197.183 25.68 197.183 24.9C197.183 24.1027 197.053 23.392 196.793 22.768C196.551 22.1267 196.204 21.5807 195.753 21.13C195.32 20.662 194.8 20.3067 194.193 20.064C193.604 19.8213 192.963 19.7 192.269 19.7C191.576 19.7 190.926 19.8213 190.319 20.064C189.73 20.3067 189.21 20.662 188.759 21.13C188.326 21.5807 187.979 22.1267 187.719 22.768C187.477 23.392 187.355 24.1027 187.355 24.9C187.355 25.68 187.477 26.3907 187.719 27.032C187.979 27.6733 188.326 28.228 188.759 28.696C189.21 29.1467 189.73 29.4933 190.319 29.736C190.926 29.9787 191.576 30.1 192.269 30.1ZM211.476 34.364C209.985 34.364 208.546 34.182 207.16 33.818C205.79 33.4367 204.672 32.9513 203.806 32.362L205.496 28.566C206.31 29.086 207.246 29.5193 208.304 29.866C209.378 30.1953 210.444 30.36 211.502 30.36C212.212 30.36 212.784 30.2993 213.218 30.178C213.651 30.0393 213.963 29.866 214.154 29.658C214.362 29.4327 214.466 29.1727 214.466 28.878C214.466 28.462 214.275 28.1327 213.894 27.89C213.512 27.6473 213.018 27.448 212.412 27.292C211.805 27.136 211.129 26.98 210.384 26.824C209.656 26.668 208.919 26.4687 208.174 26.226C207.446 25.9833 206.778 25.6713 206.172 25.29C205.565 24.8913 205.071 24.38 204.69 23.756C204.308 23.1147 204.118 22.3087 204.118 21.338C204.118 20.246 204.412 19.258 205.002 18.374C205.608 17.49 206.51 16.7793 207.706 16.242C208.902 15.7047 210.392 15.436 212.178 15.436C213.374 15.436 214.544 15.5747 215.688 15.852C216.849 16.112 217.88 16.502 218.782 17.022L217.196 20.844C216.329 20.376 215.471 20.0293 214.622 19.804C213.772 19.5613 212.949 19.44 212.152 19.44C211.441 19.44 210.869 19.518 210.436 19.674C210.002 19.8127 209.69 20.0033 209.5 20.246C209.309 20.4887 209.214 20.766 209.214 21.078C209.214 21.4767 209.396 21.7973 209.76 22.04C210.141 22.2653 210.635 22.456 211.242 22.612C211.866 22.7507 212.542 22.898 213.27 23.054C214.015 23.21 214.752 23.4093 215.48 23.652C216.225 23.8773 216.901 24.1893 217.508 24.588C218.114 24.9693 218.6 25.4807 218.964 26.122C219.345 26.746 219.536 27.5347 219.536 28.488C219.536 29.5453 219.232 30.5247 218.626 31.426C218.036 32.31 217.144 33.0207 215.948 33.558C214.769 34.0953 213.278 34.364 211.476 34.364Z"
    fill="#212529" />
  <path
    d="M55.1194 54.846H63.5694V58.694H55.1194V54.846ZM55.4834 62.022H64.9994V66H50.3874V47.8H64.6614V51.778H55.4834V62.022ZM65.8318 66L73.7878 54.95L73.7618 58.616L66.1178 47.8H71.9158L76.8038 54.846L74.3338 54.872L79.1438 47.8H84.7078L77.0638 58.408V54.768L85.1238 66H79.1958L74.2298 58.59H76.5958L71.7078 66H65.8318ZM95.2876 66.364C93.8489 66.364 92.5142 66.1387 91.2836 65.688C90.0702 65.22 89.0129 64.5613 88.1116 63.712C87.2276 62.8627 86.5342 61.866 86.0316 60.722C85.5289 59.5607 85.2776 58.2867 85.2776 56.9C85.2776 55.5133 85.5289 54.248 86.0316 53.104C86.5342 51.9427 87.2276 50.9373 88.1116 50.088C89.0129 49.2387 90.0702 48.5887 91.2836 48.138C92.5142 47.67 93.8489 47.436 95.2876 47.436C96.9689 47.436 98.4682 47.7307 99.7856 48.32C101.12 48.9093 102.23 49.7587 103.114 50.868L99.8376 53.832C99.2482 53.1387 98.5982 52.61 97.8876 52.246C97.1942 51.882 96.4142 51.7 95.5476 51.7C94.8022 51.7 94.1176 51.8213 93.4936 52.064C92.8696 52.3067 92.3322 52.662 91.8816 53.13C91.4482 53.5807 91.1016 54.1267 90.8416 54.768C90.5989 55.4093 90.4776 56.12 90.4776 56.9C90.4776 57.68 90.5989 58.3907 90.8416 59.032C91.1016 59.6733 91.4482 60.228 91.8816 60.696C92.3322 61.1467 92.8696 61.4933 93.4936 61.736C94.1176 61.9787 94.8022 62.1 95.5476 62.1C96.4142 62.1 97.1942 61.918 97.8876 61.554C98.5982 61.19 99.2482 60.6613 99.8376 59.968L103.114 62.932C102.23 64.024 101.12 64.8733 99.7856 65.48C98.4682 66.0693 96.9689 66.364 95.2876 66.364ZM105.409 66V47.8H110.557V61.918H119.241V66H105.409ZM129.498 66.364C126.812 66.364 124.714 65.6273 123.206 64.154C121.698 62.6807 120.944 60.592 120.944 57.888V47.8H126.092V57.732C126.092 59.292 126.396 60.41 127.002 61.086C127.626 61.762 128.476 62.1 129.55 62.1C130.625 62.1 131.466 61.762 132.072 61.086C132.679 60.41 132.982 59.292 132.982 57.732V47.8H138.052V57.888C138.052 60.592 137.298 62.6807 135.79 64.154C134.282 65.6273 132.185 66.364 129.498 66.364ZM147.936 66.364C146.445 66.364 145.006 66.182 143.62 65.818C142.25 65.4367 141.132 64.9513 140.266 64.362L141.956 60.566C142.77 61.086 143.706 61.5193 144.764 61.866C145.838 62.1953 146.904 62.36 147.962 62.36C148.672 62.36 149.244 62.2993 149.678 62.178C150.111 62.0393 150.423 61.866 150.614 61.658C150.822 61.4327 150.926 61.1727 150.926 60.878C150.926 60.462 150.735 60.1327 150.354 59.89C149.972 59.6473 149.478 59.448 148.872 59.292C148.265 59.136 147.589 58.98 146.844 58.824C146.116 58.668 145.379 58.4687 144.634 58.226C143.906 57.9833 143.238 57.6713 142.632 57.29C142.025 56.8913 141.531 56.38 141.15 55.756C140.768 55.1147 140.578 54.3087 140.578 53.338C140.578 52.246 140.872 51.258 141.462 50.374C142.068 49.49 142.97 48.7793 144.166 48.242C145.362 47.7047 146.852 47.436 148.638 47.436C149.834 47.436 151.004 47.5747 152.148 47.852C153.309 48.112 154.34 48.502 155.242 49.022L153.656 52.844C152.789 52.376 151.931 52.0293 151.082 51.804C150.232 51.5613 149.409 51.44 148.612 51.44C147.901 51.44 147.329 51.518 146.896 51.674C146.462 51.8127 146.15 52.0033 145.96 52.246C145.769 52.4887 145.674 52.766 145.674 53.078C145.674 53.4767 145.856 53.7973 146.22 54.04C146.601 54.2653 147.095 54.456 147.702 54.612C148.326 54.7507 149.002 54.898 149.73 55.054C150.475 55.21 151.212 55.4093 151.94 55.652C152.685 55.8773 153.361 56.1893 153.968 56.588C154.574 56.9693 155.06 57.4807 155.424 58.122C155.805 58.746 155.996 59.5347 155.996 60.488C155.996 61.5453 155.692 62.5247 155.086 63.426C154.496 64.31 153.604 65.0207 152.408 65.558C151.229 66.0953 149.738 66.364 147.936 66.364ZM158.374 66V47.8H163.522V66H158.374ZM172.723 66L164.949 47.8H170.513L177.065 63.556H173.789L180.497 47.8H185.593L177.793 66H172.723ZM195.608 66.364C194.152 66.364 192.809 66.13 191.578 65.662C190.348 65.194 189.273 64.5353 188.354 63.686C187.453 62.8193 186.751 61.814 186.248 60.67C185.746 59.526 185.494 58.2693 185.494 56.9C185.494 55.5307 185.746 54.274 186.248 53.13C186.751 51.986 187.453 50.9893 188.354 50.14C189.273 49.2733 190.348 48.606 191.578 48.138C192.809 47.67 194.152 47.436 195.608 47.436C197.082 47.436 198.425 47.67 199.638 48.138C200.869 48.606 201.935 49.2733 202.836 50.14C203.738 50.9893 204.44 51.986 204.942 53.13C205.462 54.274 205.722 55.5307 205.722 56.9C205.722 58.2693 205.462 59.5347 204.942 60.696C204.44 61.84 203.738 62.8367 202.836 63.686C201.935 64.5353 200.869 65.194 199.638 65.662C198.425 66.13 197.082 66.364 195.608 66.364ZM195.608 62.1C196.302 62.1 196.943 61.9787 197.532 61.736C198.139 61.4933 198.659 61.1467 199.092 60.696C199.543 60.228 199.89 59.6733 200.132 59.032C200.392 58.3907 200.522 57.68 200.522 56.9C200.522 56.1027 200.392 55.392 200.132 54.768C199.89 54.1267 199.543 53.5807 199.092 53.13C198.659 52.662 198.139 52.3067 197.532 52.064C196.943 51.8213 196.302 51.7 195.608 51.7C194.915 51.7 194.265 51.8213 193.658 52.064C193.069 52.3067 192.549 52.662 192.098 53.13C191.665 53.5807 191.318 54.1267 191.058 54.768C190.816 55.392 190.694 56.1027 190.694 56.9C190.694 57.68 190.816 58.3907 191.058 59.032C191.318 59.6733 191.665 60.228 192.098 60.696C192.549 61.1467 193.069 61.4933 193.658 61.736C194.265 61.9787 194.915 62.1 195.608 62.1ZM214.815 66.364C213.324 66.364 211.885 66.182 210.499 65.818C209.129 65.4367 208.011 64.9513 207.145 64.362L208.835 60.566C209.649 61.086 210.585 61.5193 211.643 61.866C212.717 62.1953 213.783 62.36 214.841 62.36C215.551 62.36 216.123 62.2993 216.557 62.178C216.99 62.0393 217.302 61.866 217.493 61.658C217.701 61.4327 217.805 61.1727 217.805 60.878C217.805 60.462 217.614 60.1327 217.233 59.89C216.851 59.6473 216.357 59.448 215.751 59.292C215.144 59.136 214.468 58.98 213.723 58.824C212.995 58.668 212.258 58.4687 211.513 58.226C210.785 57.9833 210.117 57.6713 209.511 57.29C208.904 56.8913 208.41 56.38 208.029 55.756C207.647 55.1147 207.457 54.3087 207.457 53.338C207.457 52.246 207.751 51.258 208.341 50.374C208.947 49.49 209.849 48.7793 211.045 48.242C212.241 47.7047 213.731 47.436 215.517 47.436C216.713 47.436 217.883 47.5747 219.027 47.852C220.188 48.112 221.219 48.502 222.121 49.022L220.535 52.844C219.668 52.376 218.81 52.0293 217.961 51.804C217.111 51.5613 216.288 51.44 215.491 51.44C214.78 51.44 214.208 51.518 213.775 51.674C213.341 51.8127 213.029 52.0033 212.839 52.246C212.648 52.4887 212.553 52.766 212.553 53.078C212.553 53.4767 212.735 53.7973 213.099 54.04C213.48 54.2653 213.974 54.456 214.581 54.612C215.205 54.7507 215.881 54.898 216.609 55.054C217.354 55.21 218.091 55.4093 218.819 55.652C219.564 55.8773 220.24 56.1893 220.847 56.588C221.453 56.9693 221.939 57.4807 222.303 58.122C222.684 58.746 222.875 59.5347 222.875 60.488C222.875 61.5453 222.571 62.5247 221.965 63.426C221.375 64.31 220.483 65.0207 219.287 65.558C218.108 66.0953 216.617 66.364 214.815 66.364Z"
    fill="#84BD00" />
  <path
    d="M53.7262 34H50.7263V37H53.7262V34ZM53.7262 15.8V12.8H50.7263V15.8H53.7262ZM68.3902 17.126L66.5903 19.526L66.6016 19.5345L66.6131 19.543L68.3902 17.126ZM69.4043 23.028L66.955 21.2956L66.9508 21.3016L66.9466 21.3076L69.4043 23.028ZM67.3243 24.692L68.5576 27.4268L68.5695 27.4214L68.5814 27.4159L67.3243 24.692ZM64.1523 25.29L61.383 24.1362L59.6523 28.29H64.1523V25.29ZM64.6723 24.042V21.042H62.6723L61.903 22.8882L64.6723 24.042ZM68.0263 24.64L66.8688 27.4077L66.8904 27.4168L66.9121 27.4254L68.0263 24.64ZM70.2363 26.33L67.7759 28.0465L67.7988 28.0794L67.8225 28.1116L70.2363 26.33ZM69.1183 32.7L70.8135 35.1751L70.8207 35.1702L69.1183 32.7ZM58.8223 30.282H55.8223V33.282H58.8223V30.282ZM65.1402 29.84L66.782 32.3509L66.7932 32.3436L66.8043 32.3362L65.1402 29.84ZM65.1402 27.058L63.4326 29.5246L63.4864 29.5618L63.5418 29.5967L65.1402 27.058ZM58.4583 26.59H55.4583V29.59H58.4583V26.59ZM58.4583 23.028V20.028H55.4583V23.028H58.4583ZM64.3083 22.586L65.9952 25.0668L65.9952 25.0668L64.3083 22.586ZM64.3083 19.96L62.6213 22.4408L62.6559 22.4643L62.6911 22.4868L64.3083 19.96ZM58.8223 19.518V16.518H55.8223V19.518H58.8223ZM56.7262 34V15.8H50.7263V34H56.7262ZM53.7262 18.8H63.0343V12.8H53.7262V18.8ZM63.0343 18.8C65.1496 18.8 66.1657 19.2076 66.5903 19.526L70.1903 14.726C68.2575 13.2764 65.7029 12.8 63.0343 12.8V18.8ZM66.6131 19.543C67.0495 19.8639 67.1583 20.1235 67.1583 20.558H73.1583C73.1583 18.1499 72.0883 16.1215 70.1674 14.709L66.6131 19.543ZM67.1583 20.558C67.1583 20.9228 67.0719 21.1303 66.955 21.2956L71.8535 24.7604C72.7419 23.5043 73.1583 22.0652 73.1583 20.558H67.1583ZM66.9466 21.3076C66.8146 21.4961 66.5706 21.7357 66.0671 21.9681L68.5814 27.4159C69.8806 26.8163 71.0232 25.9466 71.8619 24.7484L66.9466 21.3076ZM66.0909 21.9572C65.684 22.1407 65.0681 22.29 64.1523 22.29V28.29C65.6977 28.29 67.1965 28.0406 68.5576 27.4268L66.0909 21.9572ZM66.9215 26.4438L67.4415 25.1958L61.903 22.8882L61.383 24.1362L66.9215 26.4438ZM64.6723 27.042C65.6504 27.042 66.359 27.1946 66.8688 27.4077L69.1837 21.8723C67.7868 21.2881 66.2594 21.042 64.6723 21.042V27.042ZM66.9121 27.4254C67.3948 27.6185 67.6329 27.8417 67.7759 28.0465L72.6966 24.6135C71.7996 23.3277 70.5644 22.4241 69.1404 21.8546L66.9121 27.4254ZM67.8225 28.1116C67.9176 28.2404 68.0423 28.4801 68.0423 29.008H74.0423C74.0423 27.4213 73.6296 25.8756 72.65 24.5484L67.8225 28.1116ZM68.0423 29.008C68.0423 29.6135 67.8739 29.9141 67.4158 30.2298L70.8207 35.1702C72.9279 33.7179 74.0423 31.5572 74.0423 29.008H68.0423ZM67.423 30.2249C66.8732 30.6015 65.723 31 63.5543 31V37C66.2735 37 68.8327 36.5318 70.8135 35.1751L67.423 30.2249ZM63.5543 31H53.7262V37H63.5543V31ZM58.8223 33.282H63.1383V27.282H58.8223V33.282ZM63.1383 33.282C64.2676 33.282 65.6217 33.1096 66.782 32.3509L63.4985 27.3291C63.6462 27.2325 63.7257 27.2264 63.655 27.242C63.585 27.2575 63.4225 27.282 63.1383 27.282V33.282ZM66.8043 32.3362C68.209 31.3997 68.8423 29.9339 68.8423 28.436H62.8423C62.8423 28.3712 62.8558 28.1688 62.9835 27.9134C63.1174 27.6455 63.3094 27.455 63.4762 27.3438L66.8043 32.3362ZM68.8423 28.436C68.8423 26.9377 68.2038 25.4417 66.7387 24.5193L63.5418 29.5967C63.3526 29.4776 63.1401 29.2728 62.9936 28.9853C62.8551 28.7134 62.8423 28.4989 62.8423 28.436H68.8423ZM66.8479 24.5914C65.6732 23.7782 64.2904 23.59 63.1383 23.59V29.59C63.4129 29.59 63.5627 29.6151 63.6189 29.6282C63.6739 29.6411 63.5841 29.6295 63.4326 29.5246L66.8479 24.5914ZM63.1383 23.59H58.4583V29.59H63.1383V23.59ZM61.4583 26.59V23.028H55.4583V26.59H61.4583ZM58.4583 26.028H62.3582V20.028H58.4583V26.028ZM62.3582 26.028C63.4712 26.028 64.8348 25.8558 65.9952 25.0668L62.6213 20.1052C62.7868 19.9927 62.8868 19.9794 62.8326 19.9917C62.7788 20.0039 62.6311 20.028 62.3582 20.028V26.028ZM65.9952 25.0668C67.3626 24.1369 67.9583 22.6981 67.9583 21.26H61.9583C61.9583 21.1862 61.9729 20.9763 62.102 20.713C62.2377 20.4361 62.4361 20.2311 62.6213 20.1052L65.9952 25.0668ZM67.9583 21.26C67.9583 19.8226 67.3579 18.35 65.9254 17.4332L62.6911 22.4868C62.4814 22.3526 62.2612 22.1322 62.1125 21.8346C61.9722 21.5542 61.9583 21.3317 61.9583 21.26H67.9583ZM65.9952 17.4792C64.8348 16.6902 63.4712 16.518 62.3582 16.518V22.518C62.6311 22.518 62.7788 22.5421 62.8326 22.5543C62.8868 22.5666 62.7868 22.5533 62.6213 22.4408L65.9952 17.4792ZM62.3582 16.518H58.8223V22.518H62.3582V16.518ZM55.8223 19.518V30.282H61.8223V19.518H55.8223ZM78.4407 22.846V19.846H75.4407V22.846H78.4407ZM86.8907 22.846H89.8907V19.846H86.8907V22.846ZM86.8907 26.694V29.694H89.8907V26.694H86.8907ZM78.4407 26.694H75.4407V29.694H78.4407V26.694ZM78.8047 30.022H75.8047V33.022H78.8047V30.022ZM88.3207 30.022H91.3207V27.022H88.3207V30.022ZM88.3207 34V37H91.3207V34H88.3207ZM73.7087 34H70.7087V37H73.7087V34ZM73.7087 15.8V12.8H70.7087V15.8H73.7087ZM87.9827 15.8H90.9827V12.8H87.9827V15.8ZM87.9827 19.778V22.778H90.9827V19.778H87.9827ZM78.8047 19.778V16.778H75.8047V19.778H78.8047ZM78.4407 25.846H86.8907V19.846H78.4407V25.846ZM83.8907 22.846V26.694H89.8907V22.846H83.8907ZM86.8907 23.694H78.4407V29.694H86.8907V23.694ZM81.4407 26.694V22.846H75.4407V26.694H81.4407ZM78.8047 33.022H88.3207V27.022H78.8047V33.022ZM85.3207 30.022V34H91.3207V30.022H85.3207ZM88.3207 31H73.7087V37H88.3207V31ZM76.7087 34V15.8H70.7087V34H76.7087ZM73.7087 18.8H87.9827V12.8H73.7087V18.8ZM84.9827 15.8V19.778H90.9827V15.8H84.9827ZM87.9827 16.778H78.8047V22.778H87.9827V16.778ZM75.8047 19.778V30.022H81.8047V19.778H75.8047ZM91.1774 34H88.1774V37H91.1774V34ZM91.1774 15.8V12.8H88.1774V15.8H91.1774ZM95.4154 15.8L97.7258 13.8863L96.826 12.8H95.4154V15.8ZM105.451 27.916V30.916H111.832L107.762 26.0023L105.451 27.916ZM103.449 27.916H100.449V30.916H103.449V27.916ZM103.449 15.8V12.8H100.449V15.8H103.449ZM108.493 15.8H111.493V12.8H108.493V15.8ZM108.493 34V37H111.493V34H108.493ZM104.255 34L101.945 35.9137L102.845 37H104.255V34ZM94.2194 21.884V18.884H87.8389L91.9091 23.7977L94.2194 21.884ZM96.2214 21.884H99.2214V18.884H96.2214V21.884ZM96.2214 34V37H99.2214V34H96.2214ZM94.1774 34V15.8H88.1774V34H94.1774ZM91.1774 18.8H95.4154V12.8H91.1774V18.8ZM93.1051 17.7137L103.141 29.8297L107.762 26.0023L97.7258 13.8863L93.1051 17.7137ZM105.451 24.916H103.449V30.916H105.451V24.916ZM106.449 27.916V15.8H100.449V27.916H106.449ZM103.449 18.8H108.493V12.8H103.449V18.8ZM105.493 15.8V34H111.493V15.8H105.493ZM108.493 31H104.255V37H108.493V31ZM106.566 32.0863L96.5298 19.9703L91.9091 23.7977L101.945 35.9137L106.566 32.0863ZM94.2194 24.884H96.2214V18.884H94.2194V24.884ZM93.2214 21.884V34H99.2214V21.884H93.2214ZM96.2214 31H91.1774V37H96.2214V31ZM116.857 22.846V19.846H113.857V22.846H116.857ZM125.307 22.846H128.307V19.846H125.307V22.846ZM125.307 26.694V29.694H128.307V26.694H125.307ZM116.857 26.694H113.857V29.694H116.857V26.694ZM117.221 30.022H114.221V33.022H117.221V30.022ZM126.737 30.022H129.737V27.022H126.737V30.022ZM126.737 34V37H129.737V34H126.737ZM112.125 34H109.125V37H112.125V34ZM112.125 15.8V12.8H109.125V15.8H112.125ZM126.399 15.8H129.399V12.8H126.399V15.8ZM126.399 19.778V22.778H129.399V19.778H126.399ZM117.221 19.778V16.778H114.221V19.778H117.221ZM116.857 25.846H125.307V19.846H116.857V25.846ZM122.307 22.846V26.694H128.307V22.846H122.307ZM125.307 23.694H116.857V29.694H125.307V23.694ZM119.857 26.694V22.846H113.857V26.694H119.857ZM117.221 33.022H126.737V27.022H117.221V33.022ZM123.737 30.022V34H129.737V30.022H123.737ZM126.737 31H112.125V37H126.737V31ZM115.125 34V15.8H109.125V34H115.125ZM112.125 18.8H126.399V12.8H112.125V18.8ZM123.399 15.8V19.778H129.399V15.8H123.399ZM126.399 16.778H117.221V22.778H126.399V16.778ZM114.221 19.778V30.022H120.221V19.778H114.221ZM134.377 23.782V20.782H131.377V23.782H134.377ZM142.775 23.782H145.775V20.782H142.775V23.782ZM142.775 27.76V30.76H145.775V27.76H142.775ZM134.377 27.76H131.377V30.76H134.377V27.76ZM134.741 34V37H137.741V34H134.741ZM129.593 34H126.593V37H129.593V34ZM129.593 15.8V12.8H126.593V15.8H129.593ZM143.867 15.8H146.867V12.8H143.867V15.8ZM143.867 19.778V22.778H146.867V19.778H143.867ZM134.741 19.778V16.778H131.741V19.778H134.741ZM134.377 26.782H142.775V20.782H134.377V26.782ZM139.775 23.782V27.76H145.775V23.782H139.775ZM142.775 24.76H134.377V30.76H142.775V24.76ZM137.377 27.76V23.782H131.377V27.76H137.377ZM134.741 31H129.593V37H134.741V31ZM132.593 34V15.8H126.593V34H132.593ZM129.593 18.8H143.867V12.8H129.593V18.8ZM140.867 15.8V19.778H146.867V15.8H140.867ZM143.867 16.778H134.741V22.778H143.867V16.778ZM131.741 19.778V34H137.741V19.778H131.741ZM146.275 34H143.275V37H146.275V34ZM146.275 15.8V12.8H143.275V15.8H146.275ZM151.423 15.8H154.423V12.8H151.423V15.8ZM151.423 34V37H154.423V34H151.423ZM149.275 34V15.8H143.275V34H149.275ZM146.275 18.8H151.423V12.8H146.275V18.8ZM148.423 15.8V34H154.423V15.8H148.423ZM151.423 31H146.275V37H151.423V31ZM160.156 33.688L159.076 36.487L159.1 36.4962L159.124 36.5051L160.156 33.688ZM156.984 31.712L154.905 33.8753L154.916 33.8854L154.926 33.8954L156.984 31.712ZM154.904 28.722L152.15 29.9137L152.154 29.9213L152.157 29.9288L154.904 28.722ZM154.904 21.104L157.65 22.3108L157.654 22.3033L157.657 22.2957L154.904 21.104ZM156.984 18.088L154.926 15.9046L154.916 15.9146L154.905 15.9247L156.984 18.088ZM160.156 16.138L161.2 18.9503L161.211 18.9462L161.222 18.9421L160.156 16.138ZM168.658 16.32L167.433 19.0585L167.439 19.0614L167.446 19.0644L168.658 16.32ZM171.986 18.868L173.998 21.0926L176.088 19.2021L174.332 16.9984L171.986 18.868ZM168.71 21.832L166.424 23.7749L168.428 26.1326L170.722 24.0566L168.71 21.832ZM166.76 20.246L165.365 22.9022L165.379 22.9092L165.392 22.9161L166.76 20.246ZM162.366 20.064L163.453 22.86L162.366 20.064ZM160.754 21.13L158.593 19.0491L158.591 19.0507L160.754 21.13ZM159.714 22.768L156.933 21.6409L156.92 21.6735L156.908 21.7063L159.714 22.768ZM159.714 27.032L156.908 28.0937L156.92 28.1265L156.933 28.1591L159.714 27.032ZM160.754 28.696L158.552 30.7342L158.592 30.7765L158.632 30.8173L160.754 28.696ZM162.366 29.736L163.453 26.94L162.366 29.736ZM166.76 29.554L165.392 26.8839L165.379 26.8908L165.365 26.8978L166.76 29.554ZM168.71 27.968L170.722 25.7434L168.428 23.6674L166.424 26.0251L168.71 27.968ZM171.986 30.932L174.317 32.8196L176.104 30.6125L173.998 28.7074L171.986 30.932ZM168.658 33.48L169.883 36.2185L169.891 36.2148L169.899 36.2111L168.658 33.48ZM164.16 31.364C163.039 31.364 162.057 31.1893 161.187 30.8709L159.124 36.5051C160.716 37.088 162.403 37.364 164.16 37.364V31.364ZM161.235 30.889C160.366 30.5538 159.645 30.0981 159.041 29.5286L154.926 33.8954C156.125 35.0246 157.518 35.8862 159.076 36.487L161.235 30.889ZM159.062 29.5487C158.467 28.9767 157.998 28.3068 157.65 27.5152L152.157 29.9288C152.815 31.4252 153.732 32.7486 154.905 33.8753L159.062 29.5487ZM157.657 27.5303C157.332 26.7799 157.15 25.9163 157.15 24.9H151.15C151.15 26.657 151.47 28.3415 152.15 29.9137L157.657 27.5303ZM157.15 24.9C157.15 23.883 157.332 23.0346 157.65 22.3108L152.157 19.8972C151.47 21.4614 151.15 23.1436 151.15 24.9H157.15ZM157.657 22.2957C158.006 21.4877 158.475 20.8158 159.062 20.2513L154.905 15.9247C153.725 17.0589 152.806 18.3976 152.15 19.9123L157.657 22.2957ZM159.041 20.2714C159.637 19.7097 160.346 19.2676 161.2 18.9503L159.111 13.3257C157.539 13.9097 156.133 14.7676 154.926 15.9046L159.041 20.2714ZM161.222 18.9421C162.082 18.6151 163.052 18.436 164.16 18.436V12.436C162.39 12.436 160.691 12.7249 159.089 13.3339L161.222 18.9421ZM164.16 18.436C165.488 18.436 166.559 18.6677 167.433 19.0585L169.883 13.5815C168.122 12.7936 166.194 12.436 164.16 12.436V18.436ZM167.446 19.0644C168.35 19.4638 169.066 20.0183 169.639 20.7376L174.332 16.9984C173.137 15.4991 171.634 14.3549 169.869 13.5756L167.446 19.0644ZM169.973 16.6434L166.697 19.6074L170.722 24.0566L173.998 21.0926L169.973 16.6434ZM170.995 19.8891C170.186 18.937 169.234 18.1429 168.127 17.5759L165.392 22.9161C165.706 23.0771 166.054 23.3403 166.424 23.7749L170.995 19.8891ZM168.154 17.5898C166.986 16.9767 165.719 16.7 164.42 16.7V22.7C164.853 22.7 165.146 22.7873 165.365 22.9022L168.154 17.5898ZM164.42 16.7C163.344 16.7 162.286 16.8761 161.278 17.268L163.453 22.86C163.693 22.7666 164.004 22.7 164.42 22.7V16.7ZM161.278 17.268C160.262 17.6634 159.354 18.258 158.593 19.0491L162.915 23.2109C163.054 23.066 163.222 22.9499 163.453 22.86L161.278 17.268ZM158.591 19.0507C157.866 19.8045 157.322 20.6836 156.933 21.6409L162.494 23.8951C162.626 23.5698 162.774 23.3568 162.916 23.2093L158.591 19.0507ZM156.908 21.7063C156.52 22.7302 156.35 23.8067 156.35 24.9H162.35C162.35 24.4333 162.422 24.0885 162.519 23.8297L156.908 21.7063ZM156.35 24.9C156.35 25.9933 156.52 27.0698 156.908 28.0937L162.519 25.9703C162.422 25.7115 162.35 25.3667 162.35 24.9H156.35ZM156.933 28.1591C157.318 29.108 157.852 29.9782 158.552 30.7342L162.955 26.6578C162.788 26.4778 162.629 26.2387 162.494 25.9049L156.933 28.1591ZM158.632 30.8173C159.392 31.5769 160.287 32.1463 161.278 32.532L163.453 26.94C163.197 26.8403 163.017 26.7164 162.875 26.5747L158.632 30.8173ZM161.278 32.532C162.286 32.9239 163.344 33.1 164.42 33.1V27.1C164.004 27.1 163.693 27.0334 163.453 26.94L161.278 32.532ZM164.42 33.1C165.719 33.1 166.986 32.8233 168.154 32.2102L165.365 26.8978C165.146 27.0127 164.853 27.1 164.42 27.1V33.1ZM168.127 32.2241C169.234 31.6571 170.186 30.863 170.995 29.9109L166.424 26.0251C166.054 26.4597 165.706 26.7229 165.392 26.8839L168.127 32.2241ZM166.697 30.1926L169.973 33.1566L173.998 28.7074L170.722 25.7434L166.697 30.1926ZM169.654 29.0444C169.076 29.7585 168.346 30.3263 167.416 30.7489L169.899 36.2111C171.639 35.4203 173.127 34.2895 174.317 32.8196L169.654 29.0444ZM167.433 30.7415C166.559 31.1323 165.488 31.364 164.16 31.364V37.364C166.194 37.364 168.122 37.0064 169.883 36.2185L167.433 30.7415ZM174.281 34H171.281V37H174.281V34ZM174.281 15.8V12.8H171.281V15.8H174.281ZM179.429 15.8H182.429V12.8H179.429V15.8ZM179.429 34V37H182.429V34H179.429ZM177.281 34V15.8H171.281V34H177.281ZM174.281 18.8H179.429V12.8H174.281V18.8ZM176.429 15.8V34H182.429V15.8H176.429ZM179.429 31H174.281V37H179.429V31ZM188.239 33.662L187.173 36.4661L188.239 33.662ZM185.015 31.686L182.936 33.8485L182.957 33.8689L182.979 33.8888L185.015 31.686ZM182.909 28.67L180.163 29.8768V29.8768L182.909 28.67ZM182.909 21.13L180.163 19.9232V19.9232L182.909 21.13ZM185.015 18.14L187.073 20.3234L187.074 20.3222L185.015 18.14ZM188.239 16.138L187.173 13.3339L188.239 16.138ZM196.299 16.138L195.22 18.937L195.227 18.9396L195.233 18.9421L196.299 16.138ZM199.497 18.14L197.418 20.3025L197.429 20.313L197.44 20.3234L199.497 18.14ZM201.603 21.13L198.857 22.3368L198.865 22.3542L198.872 22.3714L201.603 21.13ZM201.603 28.696L198.865 27.47L198.861 27.4796L198.857 27.4892L201.603 28.696ZM199.497 31.686L201.555 33.8694L199.497 31.686ZM196.299 33.662L195.233 30.8579L195.227 30.8604L195.22 30.863L196.299 33.662ZM194.193 29.736L193.079 26.9506L193.065 26.9562L193.051 26.962L194.193 29.736ZM195.753 28.696L193.593 26.6151L193.591 26.6167L195.753 28.696ZM196.793 27.032L194.013 25.9049L194 25.9375L193.988 25.9703L196.793 27.032ZM196.793 22.768L193.988 23.8297L194.005 23.8761L194.024 23.9218L196.793 22.768ZM195.753 21.13L193.552 23.1682L193.591 23.2105L193.632 23.2513L195.753 21.13ZM194.193 20.064L193.051 22.838L193.065 22.8438L193.079 22.8494L194.193 20.064ZM190.319 20.064L189.205 17.2786L189.191 17.2842L189.177 17.29L190.319 20.064ZM188.759 21.13L186.599 19.0491L186.597 19.0507L188.759 21.13ZM187.719 22.768L184.939 21.6409L184.931 21.6607L184.923 21.6807L187.719 22.768ZM187.719 27.032L184.914 28.0937L184.926 28.1265L184.939 28.1591L187.719 27.032ZM188.759 28.696L186.558 30.7342L186.597 30.7765L186.638 30.8173L188.759 28.696ZM190.319 29.736L189.177 32.51L189.191 32.5158L189.205 32.5214L190.319 29.736ZM192.269 31.364C191.139 31.364 190.162 31.1834 189.306 30.8579L187.173 36.4661C188.779 37.0766 190.488 37.364 192.269 37.364V31.364ZM189.306 30.8579C188.415 30.5191 187.674 30.0583 187.052 29.4832L182.979 33.8888C184.194 35.0123 185.603 35.8689 187.173 36.4661L189.306 30.8579ZM187.095 29.5235C186.476 28.9285 186.001 28.2478 185.656 27.4632L180.163 29.8768C180.824 31.3802 181.752 32.7101 182.936 33.8485L187.095 29.5235ZM185.656 27.4632C185.336 26.7347 185.155 25.894 185.155 24.9H179.155C179.155 26.6447 179.478 28.3173 180.163 29.8768L185.656 27.4632ZM185.155 24.9C185.155 23.906 185.336 23.0653 185.656 22.3368L180.163 19.9232C179.478 21.4827 179.155 23.1553 179.155 24.9H185.155ZM185.656 22.3368C185.998 21.5579 186.467 20.8942 187.073 20.3234L182.958 15.9566C181.761 17.0845 180.826 18.4141 180.163 19.9232L185.656 22.3368ZM187.074 20.3222C187.694 19.7375 188.428 19.2761 189.306 18.9421L187.173 13.3339C185.59 13.9359 184.174 14.8092 182.957 15.9578L187.074 20.3222ZM189.306 18.9421C190.162 18.6166 191.139 18.436 192.269 18.436V12.436C190.488 12.436 188.779 12.7234 187.173 13.3339L189.306 18.9421ZM192.269 18.436C193.422 18.436 194.394 18.6183 195.22 18.937L197.379 13.339C195.779 12.7217 194.063 12.436 192.269 12.436V18.436ZM195.233 18.9421C196.107 19.2743 196.823 19.7304 197.418 20.3025L201.577 15.9775C200.369 14.8163 198.954 13.9377 197.366 13.3339L195.233 18.9421ZM197.44 20.3234C198.046 20.8942 198.515 21.5579 198.857 22.3368L204.35 19.9232C203.687 18.4141 202.752 17.0845 201.555 15.9566L197.44 20.3234ZM198.872 22.3714C199.2 23.0916 199.383 23.9201 199.383 24.9H205.383C205.383 23.1413 205.047 21.4563 204.335 19.8886L198.872 22.3714ZM199.383 24.9C199.383 25.8794 199.2 26.723 198.865 27.47L204.342 29.922C205.047 28.3463 205.383 26.6592 205.383 24.9H199.383ZM198.857 27.4892C198.515 28.2681 198.046 28.9318 197.44 29.5026L201.555 33.8694C202.752 32.7415 203.687 31.4119 204.35 29.9028L198.857 27.4892ZM197.44 29.5026C196.843 30.0653 196.119 30.5209 195.233 30.8579L197.366 36.4661C198.941 35.8671 200.349 35.0054 201.555 33.8694L197.44 29.5026ZM195.22 30.863C194.394 31.1817 193.422 31.364 192.269 31.364V37.364C194.063 37.364 195.779 37.0783 197.379 36.461L195.22 30.863ZM192.269 33.1C193.32 33.1 194.353 32.9146 195.336 32.51L193.051 26.962C192.855 27.0428 192.606 27.1 192.269 27.1V33.1ZM195.308 32.5214C196.292 32.1278 197.174 31.547 197.916 30.7753L193.591 26.6167C193.466 26.7463 193.309 26.8589 193.079 26.9506L195.308 32.5214ZM197.914 30.7769C198.662 30.0003 199.221 29.0935 199.599 28.0937L193.988 25.9703C193.881 26.2532 193.746 26.4557 193.593 26.6151L197.914 30.7769ZM199.574 28.1591C199.996 27.117 200.183 26.0174 200.183 24.9H194.183C194.183 25.3426 194.111 25.6643 194.013 25.9049L199.574 28.1591ZM200.183 24.9C200.183 23.7765 200 22.6632 199.563 21.6142L194.024 23.9218C194.107 24.1208 194.183 24.4288 194.183 24.9H200.183ZM199.599 21.7063C199.218 20.6979 198.649 19.7824 197.875 19.0087L193.632 23.2513C193.76 23.379 193.884 23.5554 193.988 23.8297L199.599 21.7063ZM197.955 19.0918C197.211 18.289 196.317 17.6824 195.308 17.2786L193.079 22.8494C193.283 22.9309 193.429 23.035 193.552 23.1682L197.955 19.0918ZM195.336 17.29C194.353 16.8854 193.32 16.7 192.269 16.7V22.7C192.606 22.7 192.855 22.7572 193.051 22.838L195.336 17.29ZM192.269 16.7C191.218 16.7 190.188 16.8856 189.205 17.2786L191.434 22.8494C191.665 22.757 191.934 22.7 192.269 22.7V16.7ZM189.177 17.29C188.196 17.6938 187.331 18.288 186.599 19.0491L190.92 23.2109C191.089 23.036 191.264 22.9195 191.462 22.838L189.177 17.29ZM186.597 19.0507C185.872 19.8045 185.327 20.6836 184.939 21.6409L190.5 23.8951C190.632 23.5698 190.78 23.3568 190.922 23.2093L186.597 19.0507ZM184.923 21.6807C184.523 22.7106 184.355 23.8001 184.355 24.9H190.355C190.355 24.4052 190.431 24.0734 190.516 23.8553L184.923 21.6807ZM184.355 24.9C184.355 25.9933 184.526 27.0698 184.914 28.0937L190.525 25.9703C190.427 25.7115 190.355 25.3667 190.355 24.9H184.355ZM184.939 28.1591C185.324 29.108 185.858 29.9782 186.558 30.7342L190.961 26.6578C190.794 26.4778 190.635 26.2387 190.5 25.9049L184.939 28.1591ZM186.638 30.8173C187.369 31.5481 188.222 32.1166 189.177 32.51L191.462 26.962C191.239 26.8701 191.051 26.7453 190.881 26.5747L186.638 30.8173ZM189.205 32.5214C190.188 32.9144 191.218 33.1 192.269 33.1V27.1C191.934 27.1 191.665 27.043 191.434 26.9506L189.205 32.5214ZM207.16 33.818L206.355 36.708L206.376 36.714L206.398 36.7197L207.16 33.818ZM203.806 32.362L201.065 31.1418L200.045 33.4327L202.119 34.8428L203.806 32.362ZM205.496 28.566L207.11 26.0372L204.172 24.1623L202.755 27.3458L205.496 28.566ZM208.304 29.866L207.369 32.7167L207.397 32.7258L207.425 32.7343L208.304 29.866ZM213.218 30.178L214.027 33.0669L214.08 33.052L214.132 33.0353L213.218 30.178ZM214.154 29.658L211.949 27.6231L211.942 27.6308L214.154 29.658ZM213.894 27.89L212.283 30.421L213.894 27.89ZM212.412 27.292L213.159 24.3865V24.3865L212.412 27.292ZM210.384 26.824L209.755 29.7574L209.762 29.7589L209.769 29.7604L210.384 26.824ZM208.174 26.226L207.225 29.0721L207.235 29.0754L207.245 29.0786L208.174 26.226ZM206.172 25.29L204.524 27.7971L204.55 27.8138L204.575 27.8299L206.172 25.29ZM204.69 23.756L202.111 25.2892L202.12 25.3048L202.13 25.3203L204.69 23.756ZM205.002 18.374L202.528 16.6765L202.517 16.6931L202.506 16.7099L205.002 18.374ZM207.706 16.242L206.476 13.5055L207.706 16.242ZM215.688 15.852L214.981 18.7675L215.007 18.7738L215.032 18.7795L215.688 15.852ZM218.782 17.022L221.553 18.1718L222.562 15.7395L220.281 14.4234L218.782 17.022ZM217.196 20.844L215.77 23.4837L218.693 25.0622L219.967 21.9938L217.196 20.844ZM214.622 19.804L213.798 22.6886L213.825 22.6964L213.852 22.7037L214.622 19.804ZM210.436 19.674L211.35 22.5313L211.401 22.5149L211.452 22.4967L210.436 19.674ZM209.5 20.246L207.141 18.3925V18.3925L209.5 20.246ZM209.76 22.04L208.096 24.5361L208.163 24.5813L208.234 24.6228L209.76 22.04ZM211.242 22.612L210.495 25.5175L210.543 25.5298L210.591 25.5406L211.242 22.612ZM213.27 23.054L212.641 25.9874L212.648 25.9889L212.655 25.9904L213.27 23.054ZM215.48 23.652L214.531 26.498L214.571 26.5114L214.612 26.5236L215.48 23.652ZM217.508 24.588L215.86 27.0951L215.886 27.1118L215.911 27.1279L217.508 24.588ZM218.964 26.122L216.355 27.6028L216.379 27.645L216.404 27.6864L218.964 26.122ZM218.626 31.426L216.137 29.7509L216.13 29.7619L218.626 31.426ZM215.948 33.558L214.718 30.8215L214.711 30.8249L214.703 30.8283L215.948 33.558ZM211.476 31.364C210.232 31.364 209.05 31.2125 207.921 30.9163L206.398 36.7197C208.043 37.1515 209.738 37.364 211.476 37.364V31.364ZM207.965 30.928C206.805 30.6051 206.013 30.2348 205.493 29.8812L202.119 34.8428C203.332 35.6679 204.776 36.2682 206.355 36.708L207.965 30.928ZM206.546 33.5822L208.236 29.7862L202.755 27.3458L201.065 31.1418L206.546 33.5822ZM203.882 31.0948C204.938 31.7687 206.108 32.3032 207.369 32.7167L209.238 27.0153C208.385 26.7355 207.683 26.4033 207.11 26.0372L203.882 31.0948ZM207.425 32.7343C208.766 33.1455 210.128 33.36 211.502 33.36V27.36C210.761 27.36 209.991 27.2452 209.183 26.9977L207.425 32.7343ZM211.502 33.36C212.347 33.36 213.224 33.2917 214.027 33.0669L212.409 27.2891C212.345 27.3069 212.077 27.36 211.502 27.36V33.36ZM214.132 33.0353C214.789 32.825 215.668 32.4454 216.365 31.6852L211.942 27.6308C212.114 27.4438 212.265 27.3519 212.32 27.3215C212.376 27.2903 212.38 27.2961 212.303 27.3207L214.132 33.0353ZM216.358 31.6928C217.055 30.9382 217.466 29.96 217.466 28.878H211.466C211.466 28.6639 211.505 28.4225 211.602 28.1798C211.699 27.9392 211.829 27.7538 211.949 27.6232L216.358 31.6928ZM217.466 28.878C217.466 27.3346 216.662 26.0954 215.504 25.359L212.283 30.421C212.143 30.3321 211.914 30.1457 211.726 29.8221C211.533 29.4881 211.466 29.1472 211.466 28.878H217.466ZM215.504 25.359C214.776 24.8955 213.962 24.5931 213.159 24.3865L211.665 30.1975C212.074 30.3029 212.249 30.3991 212.283 30.421L215.504 25.359ZM213.159 24.3865C212.5 24.2171 211.779 24.051 210.998 23.8876L209.769 29.7604C210.479 29.909 211.11 30.0549 211.665 30.1975L213.159 24.3865ZM211.012 23.8906C210.391 23.7574 209.754 23.5856 209.103 23.3734L207.245 29.0786C208.084 29.3517 208.921 29.5786 209.755 29.7574L211.012 23.8906ZM209.122 23.3799C208.606 23.2077 208.158 22.9952 207.768 22.7501L204.575 27.8299C205.399 28.3475 206.286 28.7589 207.225 29.0721L209.122 23.3799ZM207.819 22.7829C207.585 22.6292 207.402 22.4408 207.25 22.1916L202.13 25.3203C202.74 26.3192 203.545 27.1535 204.524 27.7971L207.819 22.7829ZM207.268 22.2228C207.234 22.165 207.118 21.9277 207.118 21.338H201.118C201.118 22.6896 201.383 24.0643 202.111 25.2892L207.268 22.2228ZM207.118 21.338C207.118 20.8208 207.247 20.4149 207.498 20.0381L202.506 16.7099C201.578 18.1011 201.118 19.6712 201.118 21.338H207.118ZM207.475 20.0715C207.708 19.733 208.129 19.3405 208.935 18.9785L206.476 13.5055C204.89 14.2182 203.509 15.247 202.528 16.6765L207.475 20.0715ZM208.935 18.9785C209.632 18.6656 210.672 18.436 212.178 18.436V12.436C210.113 12.436 208.172 12.7437 206.476 13.5055L208.935 18.9785ZM212.178 18.436C213.139 18.436 214.072 18.5472 214.981 18.7675L216.395 12.9364C215.015 12.6021 213.608 12.436 212.178 12.436V18.436ZM215.032 18.7795C215.939 18.9825 216.679 19.2723 217.283 19.6206L220.281 14.4234C219.082 13.7317 217.759 13.2415 216.343 12.9245L215.032 18.7795ZM216.011 15.8722L214.425 19.6942L219.967 21.9938L221.553 18.1718L216.011 15.8722ZM218.621 18.2043C217.571 17.6374 216.494 17.197 215.391 16.9043L213.852 22.7037C214.448 22.8617 215.087 23.1146 215.77 23.4837L218.621 18.2043ZM215.446 16.9194C214.357 16.6083 213.256 16.44 212.152 16.44V22.44C212.642 22.44 213.188 22.5143 213.798 22.6886L215.446 16.9194ZM212.152 16.44C211.262 16.44 210.306 16.5322 209.42 16.8513L211.452 22.4967C211.428 22.5051 211.467 22.4884 211.595 22.471C211.72 22.4539 211.902 22.44 212.152 22.44V16.44ZM209.521 16.8167C208.773 17.0561 207.839 17.5039 207.141 18.3925L211.859 22.0995C211.697 22.3056 211.535 22.4235 211.441 22.4808C211.351 22.5362 211.308 22.5446 211.35 22.5313L209.521 16.8167ZM207.141 18.3925C206.53 19.17 206.214 20.1018 206.214 21.078H212.214C212.214 21.2326 212.189 21.4165 212.122 21.6112C212.055 21.8063 211.96 21.9708 211.859 22.0995L207.141 18.3925ZM206.214 21.078C206.214 22.5898 206.993 23.801 208.096 24.5361L211.424 19.5439C211.56 19.6343 211.78 19.82 211.959 20.1367C212.145 20.4642 212.214 20.8017 212.214 21.078H206.214ZM208.234 24.6228C208.936 25.0376 209.718 25.3177 210.495 25.5175L211.989 19.7065C211.552 19.5943 211.347 19.4931 211.286 19.4572L208.234 24.6228ZM210.591 25.5406C211.223 25.6811 211.907 25.8301 212.641 25.9874L213.898 20.1206C213.177 19.9659 212.508 19.8202 211.893 19.6834L210.591 25.5406ZM212.655 25.9904C213.287 26.1225 213.912 26.2916 214.531 26.498L216.428 20.8059C215.592 20.5271 214.744 20.2975 213.884 20.1176L212.655 25.9904ZM214.612 26.5236C215.101 26.6716 215.511 26.8658 215.86 27.0951L219.155 22.0809C218.291 21.5128 217.349 21.0831 216.348 20.7804L214.612 26.5236ZM215.911 27.1279C216.086 27.2374 216.228 27.3797 216.355 27.6028L221.573 24.6412C220.971 23.5816 220.143 22.7012 219.104 22.0481L215.911 27.1279ZM216.404 27.6864C216.422 27.7166 216.536 27.9225 216.536 28.488H222.536C222.536 27.1468 222.268 25.7754 221.524 24.5576L216.404 27.6864ZM216.536 28.488C216.536 28.9313 216.42 29.3301 216.137 29.7509L221.115 33.1011C222.045 31.7192 222.536 30.1594 222.536 28.488H216.536ZM216.13 29.7619C215.919 30.0775 215.52 30.4613 214.718 30.8215L217.177 36.2945C218.767 35.5801 220.154 34.5425 221.122 33.0901L216.13 29.7619ZM214.703 30.8283C214.037 31.1321 213.006 31.364 211.476 31.364V37.364C213.55 37.364 215.501 37.0586 217.192 36.2877L214.703 30.8283ZM55.1194 54.846V51.846H52.1194V54.846H55.1194ZM63.5694 54.846H66.5694V51.846H63.5694V54.846ZM63.5694 58.694V61.694H66.5694V58.694H63.5694ZM55.1194 58.694H52.1194V61.694H55.1194V58.694ZM55.4834 62.022H52.4834V65.022H55.4834V62.022ZM64.9994 62.022H67.9994V59.022H64.9994V62.022ZM64.9994 66V69H67.9994V66H64.9994ZM50.3874 66H47.3874V69H50.3874V66ZM50.3874 47.8V44.8H47.3874V47.8H50.3874ZM64.6614 47.8H67.6614V44.8H64.6614V47.8ZM64.6614 51.778V54.778H67.6614V51.778H64.6614ZM55.4834 51.778V48.778H52.4834V51.778H55.4834ZM55.1194 57.846H63.5694V51.846H55.1194V57.846ZM60.5694 54.846V58.694H66.5694V54.846H60.5694ZM63.5694 55.694H55.1194V61.694H63.5694V55.694ZM58.1194 58.694V54.846H52.1194V58.694H58.1194ZM55.4834 65.022H64.9994V59.022H55.4834V65.022ZM61.9994 62.022V66H67.9994V62.022H61.9994ZM64.9994 63H50.3874V69H64.9994V63ZM53.3874 66V47.8H47.3874V66H53.3874ZM50.3874 50.8H64.6614V44.8H50.3874V50.8ZM61.6614 47.8V51.778H67.6614V47.8H61.6614ZM64.6614 48.778H55.4834V54.778H64.6614V48.778ZM52.4834 51.778V62.022H58.4834V51.778H52.4834ZM65.8318 66L63.3972 64.2471L59.9751 69H65.8318V66ZM73.7878 54.95L76.7877 54.9713L76.8545 45.5564L71.3532 53.1971L73.7878 54.95ZM73.7618 58.616L71.3119 60.3474L76.6956 67.9652L76.7617 58.6373L73.7618 58.616ZM66.1178 47.8V44.8H60.324L63.6679 49.5314L66.1178 47.8ZM71.9158 47.8L74.3807 46.09L73.4858 44.8H71.9158V47.8ZM76.8038 54.846L76.8354 57.8458L82.4947 57.7863L79.2687 53.136L76.8038 54.846ZM74.3338 54.872L71.8532 53.1848L68.6242 57.9323L74.3654 57.8718L74.3338 54.872ZM79.1438 47.8V44.8H77.5561L76.6632 46.1128L79.1438 47.8ZM84.7078 47.8L87.1417 49.5539L90.5673 44.8H84.7078V47.8ZM77.0638 58.408H74.0638V67.7028L79.4977 60.1619L77.0638 58.408ZM77.0638 54.768L79.5012 53.019L74.0638 45.4417V54.768H77.0638ZM85.1238 66V69H90.9691L87.5612 64.251L85.1238 66ZM79.1958 66L76.7037 67.6702L77.5949 69H79.1958V66ZM74.2298 58.59V55.59H68.6079L71.7377 60.2601L74.2298 58.59ZM76.5958 58.59L79.1 60.2419L82.1687 55.59H76.5958V58.59ZM71.7078 66V69H73.3228L74.212 67.6519L71.7078 66ZM68.2664 67.7529L76.2224 56.7029L71.3532 53.1971L63.3972 64.2471L68.2664 67.7529ZM70.7879 54.9287L70.7619 58.5947L76.7617 58.6373L76.7877 54.9713L70.7879 54.9287ZM76.2117 56.8846L68.5677 46.0686L63.6679 49.5314L71.3119 60.3474L76.2117 56.8846ZM66.1178 50.8H71.9158V44.8H66.1178V50.8ZM69.4509 49.51L74.3389 56.556L79.2687 53.136L74.3807 46.09L69.4509 49.51ZM76.7722 51.8462L74.3022 51.8722L74.3654 57.8718L76.8354 57.8458L76.7722 51.8462ZM76.8144 56.5592L81.6244 49.4872L76.6632 46.1128L71.8532 53.1848L76.8144 56.5592ZM79.1438 50.8H84.7078V44.8H79.1438V50.8ZM82.2739 46.0461L74.6299 56.6541L79.4977 60.1619L87.1417 49.5539L82.2739 46.0461ZM80.0638 58.408V54.768H74.0638V58.408H80.0638ZM74.6264 56.517L82.6864 67.749L87.5612 64.251L79.5012 53.019L74.6264 56.517ZM85.1238 63H79.1958V69H85.1238V63ZM81.6879 64.3298L76.7219 56.9198L71.7377 60.2601L76.7037 67.6702L81.6879 64.3298ZM74.2298 61.59H76.5958V55.59H74.2298V61.59ZM74.0916 56.9381L69.2036 64.3481L74.212 67.6519L79.1 60.2419L74.0916 56.9381ZM71.7078 63H65.8318V69H71.7078V63ZM91.2836 65.688L90.2039 68.487L90.2279 68.4962L90.252 68.5051L91.2836 65.688ZM88.1116 63.712L86.0331 65.8753L86.0436 65.8854L86.0541 65.8954L88.1116 63.712ZM86.0316 60.722L83.2784 61.9137L83.2817 61.9213L83.285 61.9288L86.0316 60.722ZM86.0316 53.104L88.7781 54.3108L88.7814 54.3033L88.7847 54.2957L86.0316 53.104ZM88.1116 50.088L86.0542 47.9046L86.0436 47.9146L86.0331 47.9247L88.1116 50.088ZM91.2836 48.138L92.3281 50.9503L92.339 50.9462L92.3499 50.9421L91.2836 48.138ZM99.7856 48.32L98.5605 51.0585L98.5671 51.0614L98.5738 51.0644L99.7856 48.32ZM103.114 50.868L105.126 53.0926L107.216 51.2021L105.46 48.9984L103.114 50.868ZM99.8376 53.832L97.5517 55.7749L99.5558 58.1326L101.85 56.0566L99.8376 53.832ZM97.8876 52.246L96.4931 54.9022L96.5065 54.9092L96.5199 54.9161L97.8876 52.246ZM93.4936 52.064L94.5809 54.86L93.4936 52.064ZM91.8816 53.13L89.7206 51.0491L89.7191 51.0507L91.8816 53.13ZM90.8416 54.768L88.0613 53.6409L88.0481 53.6735L88.0357 53.7063L90.8416 54.768ZM90.8416 59.032L88.0357 60.0937L88.0481 60.1265L88.0613 60.1591L90.8416 59.032ZM91.8816 60.696L89.6803 62.7342L89.7195 62.7765L89.7602 62.8173L91.8816 60.696ZM93.4936 61.736L94.5809 58.94L93.4936 61.736ZM97.8876 61.554L96.5199 58.8839L96.5065 58.8908L96.4931 58.8978L97.8876 61.554ZM99.8376 59.968L101.85 57.7434L99.5558 55.6674L97.5517 58.0251L99.8376 59.968ZM103.114 62.932L105.445 64.8196L107.232 62.6125L105.126 60.7074L103.114 62.932ZM99.7856 65.48L101.011 68.2185L101.019 68.2148L101.027 68.2111L99.7856 65.48ZM95.2876 63.364C94.1665 63.364 93.1846 63.1893 92.3152 62.8709L90.252 68.5051C91.8439 69.088 93.5313 69.364 95.2876 69.364V63.364ZM92.3632 62.889C91.4941 62.5538 90.7733 62.0981 90.169 61.5286L86.0541 65.8954C87.2525 67.0246 88.6463 67.8862 90.2039 68.487L92.3632 62.889ZM90.19 61.5487C89.5947 60.9767 89.1259 60.3068 88.7781 59.5152L83.285 61.9288C83.9425 63.4252 84.8604 64.7486 86.0331 65.8753L90.19 61.5487ZM88.7847 59.5303C88.4599 58.7799 88.2776 57.9163 88.2776 56.9H82.2776C82.2776 58.657 82.5979 60.3415 83.2784 61.9137L88.7847 59.5303ZM88.2776 56.9C88.2776 55.883 88.4601 55.0346 88.7781 54.3108L83.285 51.8972C82.5977 53.4614 82.2776 55.1436 82.2776 56.9H88.2776ZM88.7847 54.2957C89.1344 53.4877 89.6025 52.8158 90.19 52.2513L86.0331 47.9247C84.8526 49.0589 83.934 50.3976 83.2784 51.9123L88.7847 54.2957ZM90.169 52.2714C90.765 51.7097 91.4738 51.2676 92.3281 50.9503L90.239 45.3257C88.6667 45.9097 87.2608 46.7676 86.0542 47.9046L90.169 52.2714ZM92.3499 50.9421C93.2097 50.6151 94.1795 50.436 95.2876 50.436V44.436C93.5183 44.436 91.8187 44.7249 90.2172 45.3339L92.3499 50.9421ZM95.2876 50.436C96.6158 50.436 97.687 50.6677 98.5605 51.0585L101.011 45.5815C99.2495 44.7936 97.322 44.436 95.2876 44.436V50.436ZM98.5738 51.0644C99.4783 51.4638 100.194 52.0183 100.767 52.7376L105.46 48.9984C104.265 47.4991 102.762 46.3549 100.997 45.5756L98.5738 51.0644ZM101.101 48.6434L97.8248 51.6074L101.85 56.0566L105.126 53.0926L101.101 48.6434ZM102.123 51.8891C101.314 50.937 100.362 50.1429 99.2552 49.5759L96.5199 54.9161C96.8341 55.0771 97.1823 55.3403 97.5517 55.7749L102.123 51.8891ZM99.2821 49.5898C98.1142 48.9767 96.8473 48.7 95.5476 48.7V54.7C95.9812 54.7 96.2743 54.7873 96.4931 54.9022L99.2821 49.5898ZM95.5476 48.7C94.4723 48.7 93.414 48.8761 92.4062 49.268L94.5809 54.86C94.8211 54.7666 95.1322 54.7 95.5476 54.7V48.7ZM92.4062 49.268C91.3894 49.6634 90.4824 50.258 89.7206 51.0491L94.0425 55.2109C94.1821 55.066 94.3497 54.9499 94.5809 54.86L92.4062 49.268ZM89.7191 51.0507C88.9942 51.8045 88.4494 52.6836 88.0613 53.6409L93.6218 55.8951C93.7537 55.5698 93.9022 55.3568 94.0441 55.2093L89.7191 51.0507ZM88.0357 53.7063C87.6483 54.7302 87.4776 55.8067 87.4776 56.9H93.4776C93.4776 56.4333 93.5495 56.0885 93.6474 55.8297L88.0357 53.7063ZM87.4776 56.9C87.4776 57.9933 87.6483 59.0698 88.0357 60.0937L93.6474 57.9703C93.5495 57.7115 93.4776 57.3667 93.4776 56.9H87.4776ZM88.0613 60.1591C88.446 61.108 88.9803 61.9782 89.6803 62.7342L94.0828 58.6578C93.9162 58.4778 93.7571 58.2387 93.6218 57.9049L88.0613 60.1591ZM89.7602 62.8173C90.5198 63.5769 91.4145 64.1463 92.4062 64.532L94.5809 58.94C94.3246 58.8403 94.1446 58.7164 94.0029 58.5747L89.7602 62.8173ZM92.4062 64.532C93.414 64.9239 94.4723 65.1 95.5476 65.1V59.1C95.1322 59.1 94.8211 59.0334 94.5809 58.94L92.4062 64.532ZM95.5476 65.1C96.8473 65.1 98.1142 64.8233 99.2821 64.2102L96.4931 58.8978C96.2743 59.0127 95.9812 59.1 95.5476 59.1V65.1ZM99.2552 64.2241C100.362 63.6571 101.314 62.863 102.123 61.9109L97.5517 58.0251C97.1823 58.4597 96.8341 58.7229 96.5199 58.8839L99.2552 64.2241ZM97.8248 62.1926L101.101 65.1566L105.126 60.7074L101.85 57.7434L97.8248 62.1926ZM100.782 61.0444C100.204 61.7585 99.4738 62.3263 98.5441 62.7489L101.027 68.2111C102.767 67.4203 104.255 66.2895 105.445 64.8196L100.782 61.0444ZM98.5605 62.7415C97.687 63.1323 96.6158 63.364 95.2876 63.364V69.364C97.322 69.364 99.2495 69.0064 101.011 68.2185L98.5605 62.7415ZM105.409 66H102.409V69H105.409V66ZM105.409 47.8V44.8H102.409V47.8H105.409ZM110.557 47.8H113.557V44.8H110.557V47.8ZM110.557 61.918H107.557V64.918H110.557V61.918ZM119.241 61.918H122.241V58.918H119.241V61.918ZM119.241 66V69H122.241V66H119.241ZM108.409 66V47.8H102.409V66H108.409ZM105.409 50.8H110.557V44.8H105.409V50.8ZM107.557 47.8V61.918H113.557V47.8H107.557ZM110.557 64.918H119.241V58.918H110.557V64.918ZM116.241 61.918V66H122.241V61.918H116.241ZM119.241 63H105.409V69H119.241V63ZM123.206 64.154L125.303 62.0082L123.206 64.154ZM120.944 47.8V44.8H117.944V47.8H120.944ZM126.092 47.8H129.092V44.8H126.092V47.8ZM127.002 61.086L124.77 63.0897L124.784 63.1054L124.798 63.1208L127.002 61.086ZM132.072 61.086L129.84 59.0823L132.072 61.086ZM132.982 47.8V44.8H129.982V47.8H132.982ZM138.052 47.8H141.052V44.8H138.052V47.8ZM135.79 64.154L133.694 62.0082L135.79 64.154ZM129.498 63.364C127.37 63.364 126.108 62.7947 125.303 62.0082L121.11 66.2998C123.321 68.46 126.253 69.364 129.498 69.364V63.364ZM125.303 62.0082C124.524 61.2474 123.944 60.0241 123.944 57.888H117.944C117.944 61.1599 118.872 64.1139 121.11 66.2998L125.303 62.0082ZM123.944 57.888V47.8H117.944V57.888H123.944ZM120.944 50.8H126.092V44.8H120.944V50.8ZM123.092 47.8V57.732H129.092V47.8H123.092ZM123.092 57.732C123.092 59.5441 123.419 61.5848 124.77 63.0897L129.235 59.0823C129.319 59.1756 129.277 59.1826 129.215 58.9549C129.152 58.723 129.092 58.332 129.092 57.732H123.092ZM124.798 63.1208C126.086 64.5168 127.792 65.1 129.55 65.1V59.1C129.327 59.1 129.232 59.0653 129.217 59.0591C129.208 59.0557 129.209 59.0551 129.213 59.0583C129.218 59.0615 129.216 59.0611 129.207 59.0512L124.798 63.1208ZM129.55 65.1C131.306 65.1 133.024 64.5166 134.305 63.0897L129.84 59.0823C129.836 59.086 129.841 59.0806 129.852 59.0726C129.863 59.0646 129.871 59.0618 129.868 59.0631C129.863 59.065 129.774 59.1 129.55 59.1V65.1ZM134.305 63.0897C135.656 61.5848 135.982 59.5441 135.982 57.732H129.982C129.982 58.332 129.922 58.723 129.859 58.9549C129.798 59.1826 129.756 59.1756 129.84 59.0823L134.305 63.0897ZM135.982 57.732V47.8H129.982V57.732H135.982ZM132.982 50.8H138.052V44.8H132.982V50.8ZM135.052 47.8V57.888H141.052V47.8H135.052ZM135.052 57.888C135.052 60.0241 134.472 61.2474 133.694 62.0082L137.887 66.2998C140.124 64.1139 141.052 61.1599 141.052 57.888H135.052ZM133.694 62.0082C132.889 62.7947 131.626 63.364 129.498 63.364V69.364C132.744 69.364 135.676 68.46 137.887 66.2998L133.694 62.0082ZM143.62 65.818L142.815 68.708L142.836 68.714L142.858 68.7197L143.62 65.818ZM140.266 64.362L137.525 63.1418L136.505 65.4327L138.579 66.8428L140.266 64.362ZM141.956 60.566L143.57 58.0372L140.632 56.1623L139.215 59.3458L141.956 60.566ZM144.764 61.866L143.829 64.7167L143.857 64.7258L143.885 64.7343L144.764 61.866ZM149.678 62.178L150.487 65.0669L150.54 65.0521L150.592 65.0353L149.678 62.178ZM150.614 61.658L148.409 59.6231L148.402 59.6308L150.614 61.658ZM150.354 59.89L148.743 62.421V62.421L150.354 59.89ZM148.872 59.292L149.619 56.3865L148.872 59.292ZM146.844 58.824L146.215 61.7574L146.222 61.7589L146.229 61.7604L146.844 58.824ZM144.634 58.226L143.685 61.072L143.695 61.0754L143.705 61.0786L144.634 58.226ZM142.632 57.29L140.984 59.7971L141.01 59.8138L141.035 59.8299L142.632 57.29ZM141.15 55.756L138.571 57.2892L138.58 57.3048L138.59 57.3204L141.15 55.756ZM141.462 50.374L138.988 48.6765L138.977 48.6931L138.966 48.7099L141.462 50.374ZM144.166 48.242L142.936 45.5055L144.166 48.242ZM152.148 47.852L151.441 50.7676L151.467 50.7738L151.492 50.7795L152.148 47.852ZM155.242 49.022L158.013 50.1718L159.022 47.7395L156.741 46.4234L155.242 49.022ZM153.656 52.844L152.23 55.4837L155.153 57.0622L156.427 53.9938L153.656 52.844ZM151.082 51.804L150.258 54.6886L150.285 54.6964L150.312 54.7037L151.082 51.804ZM146.896 51.674L147.81 54.5313L147.861 54.5149L147.912 54.4967L146.896 51.674ZM145.96 52.246L143.601 50.3925V50.3925L145.96 52.246ZM146.22 54.04L144.556 56.5361L144.623 56.5813L144.694 56.6228L146.22 54.04ZM147.702 54.612L146.955 57.5175L147.003 57.5298L147.051 57.5406L147.702 54.612ZM149.73 55.054L149.101 57.9874L149.108 57.9889L149.115 57.9904L149.73 55.054ZM151.94 55.652L150.991 58.4981L151.031 58.5114L151.072 58.5236L151.94 55.652ZM153.968 56.588L152.32 59.0951L152.346 59.1118L152.371 59.1279L153.968 56.588ZM155.424 58.122L152.815 59.6028L152.839 59.645L152.864 59.6864L155.424 58.122ZM155.086 63.426L152.597 61.7509L152.59 61.7619L155.086 63.426ZM152.408 65.558L151.178 62.8215L151.171 62.8249L151.163 62.8283L152.408 65.558ZM147.936 63.364C146.692 63.364 145.51 63.2125 144.381 62.9163L142.858 68.7197C144.503 69.1515 146.198 69.364 147.936 69.364V63.364ZM144.425 62.928C143.265 62.6051 142.473 62.2348 141.953 61.8812L138.579 66.8428C139.792 67.6679 141.236 68.2682 142.815 68.708L144.425 62.928ZM143.006 65.5822L144.696 61.7862L139.215 59.3458L137.525 63.1418L143.006 65.5822ZM140.342 63.0948C141.397 63.7687 142.568 64.3032 143.829 64.7167L145.698 59.0153C144.845 58.7355 144.143 58.4033 143.57 58.0372L140.342 63.0948ZM143.885 64.7343C145.226 65.1455 146.588 65.36 147.962 65.36V59.36C147.221 59.36 146.451 59.2452 145.643 58.9977L143.885 64.7343ZM147.962 65.36C148.807 65.36 149.684 65.2918 150.487 65.0669L148.869 59.2891C148.805 59.3069 148.537 59.36 147.962 59.36V65.36ZM150.592 65.0353C151.249 64.825 152.128 64.4454 152.825 63.6852L148.402 59.6308C148.574 59.4438 148.725 59.3519 148.78 59.3215C148.836 59.2903 148.84 59.2961 148.763 59.3207L150.592 65.0353ZM152.818 63.6928C153.515 62.9382 153.926 61.96 153.926 60.878H147.926C147.926 60.6639 147.965 60.4225 148.062 60.1798C148.159 59.9392 148.289 59.7538 148.409 59.6232L152.818 63.6928ZM153.926 60.878C153.926 59.3346 153.122 58.0954 151.964 57.359L148.743 62.421C148.603 62.3321 148.374 62.1457 148.186 61.8221C147.993 61.4881 147.926 61.1472 147.926 60.878H153.926ZM151.964 57.359C151.236 56.8955 150.422 56.5931 149.619 56.3865L148.125 62.1975C148.534 62.3029 148.709 62.3991 148.743 62.421L151.964 57.359ZM149.619 56.3865C148.96 56.2171 148.239 56.051 147.458 55.8876L146.229 61.7604C146.939 61.909 147.57 62.0549 148.125 62.1975L149.619 56.3865ZM147.472 55.8906C146.851 55.7574 146.214 55.5856 145.562 55.3734L143.705 61.0786C144.544 61.3517 145.381 61.5786 146.215 61.7574L147.472 55.8906ZM145.582 55.3799C145.066 55.2077 144.618 54.9952 144.228 54.7501L141.035 59.8299C141.859 60.3475 142.746 60.7589 143.685 61.072L145.582 55.3799ZM144.279 54.7829C144.045 54.6292 143.862 54.4408 143.71 54.1917L138.59 57.3204C139.2 58.3192 140.005 59.1535 140.984 59.7971L144.279 54.7829ZM143.728 54.2228C143.694 54.165 143.578 53.9277 143.578 53.338H137.578C137.578 54.6896 137.843 56.0643 138.571 57.2892L143.728 54.2228ZM143.578 53.338C143.578 52.8208 143.707 52.4149 143.958 52.0381L138.966 48.7099C138.038 50.1011 137.578 51.6712 137.578 53.338H143.578ZM143.935 52.0715C144.168 51.733 144.589 51.3405 145.395 50.9785L142.936 45.5055C141.35 46.2182 139.969 47.247 138.988 48.6765L143.935 52.0715ZM145.395 50.9785C146.092 50.6656 147.132 50.436 148.638 50.436V44.436C146.573 44.436 144.632 44.7437 142.936 45.5055L145.395 50.9785ZM148.638 50.436C149.599 50.436 150.532 50.5472 151.441 50.7676L152.855 44.9365C151.475 44.6021 150.068 44.436 148.638 44.436V50.436ZM151.492 50.7795C152.399 50.9825 153.139 51.2723 153.743 51.6206L156.741 46.4234C155.542 45.7317 154.219 45.2415 152.803 44.9245L151.492 50.7795ZM152.471 47.8722L150.885 51.6942L156.427 53.9938L158.013 50.1718L152.471 47.8722ZM155.081 50.2043C154.031 49.6374 152.954 49.197 151.851 48.9043L150.312 54.7037C150.908 54.8617 151.547 55.1146 152.23 55.4837L155.081 50.2043ZM151.906 48.9194C150.817 48.6083 149.716 48.44 148.612 48.44V54.44C149.102 54.44 149.648 54.5143 150.258 54.6886L151.906 48.9194ZM148.612 48.44C147.722 48.44 146.766 48.5322 145.88 48.8513L147.912 54.4967C147.888 54.5051 147.927 54.4884 148.055 54.471C148.18 54.4539 148.362 54.44 148.612 54.44V48.44ZM145.981 48.8167C145.233 49.0561 144.299 49.5039 143.601 50.3925L148.319 54.0995C148.157 54.3056 147.995 54.4235 147.901 54.4808C147.811 54.5362 147.768 54.5446 147.81 54.5313L145.981 48.8167ZM143.601 50.3925C142.99 51.17 142.674 52.1018 142.674 53.078H148.674C148.674 53.2326 148.649 53.4165 148.582 53.6112C148.515 53.8063 148.42 53.9708 148.319 54.0995L143.601 50.3925ZM142.674 53.078C142.674 54.5898 143.453 55.801 144.556 56.5361L147.884 51.5438C148.02 51.6343 148.24 51.82 148.419 52.1367C148.605 52.4642 148.674 52.8017 148.674 53.078H142.674ZM144.694 56.6228C145.396 57.0376 146.178 57.3177 146.955 57.5175L148.449 51.7065C148.012 51.5943 147.807 51.4931 147.746 51.4572L144.694 56.6228ZM147.051 57.5406C147.683 57.6811 148.367 57.8301 149.101 57.9874L150.358 52.1206C149.637 51.9659 148.968 51.8202 148.353 51.6834L147.051 57.5406ZM149.115 57.9904C149.747 58.1225 150.372 58.2916 150.991 58.4981L152.888 52.806C152.052 52.5271 151.204 52.2975 150.344 52.1176L149.115 57.9904ZM151.072 58.5236C151.561 58.6716 151.971 58.8658 152.32 59.0951L155.615 54.0809C154.751 53.5128 153.809 53.0831 152.808 52.7804L151.072 58.5236ZM152.371 59.1279C152.545 59.2374 152.688 59.3797 152.815 59.6028L158.033 56.6412C157.431 55.5816 156.603 54.7012 155.564 54.0481L152.371 59.1279ZM152.864 59.6864C152.882 59.7166 152.996 59.9225 152.996 60.488H158.996C158.996 59.1468 158.728 57.7754 157.984 56.5576L152.864 59.6864ZM152.996 60.488C152.996 60.9313 152.88 61.3301 152.597 61.7509L157.574 65.1011C158.505 63.7192 158.996 62.1594 158.996 60.488H152.996ZM152.59 61.7619C152.379 62.0775 151.98 62.4613 151.178 62.8215L153.637 68.2945C155.227 67.5801 156.614 66.5425 157.582 65.0901L152.59 61.7619ZM151.163 62.8283C150.497 63.1321 149.466 63.364 147.936 63.364V69.364C150.01 69.364 151.961 69.0586 153.652 68.2877L151.163 62.8283ZM158.374 66H155.374V69H158.374V66ZM158.374 47.8V44.8H155.374V47.8H158.374ZM163.522 47.8H166.522V44.8H163.522V47.8ZM163.522 66V69H166.522V66H163.522ZM161.374 66V47.8H155.374V66H161.374ZM158.374 50.8H163.522V44.8H158.374V50.8ZM160.522 47.8V66H166.522V47.8H160.522ZM163.522 63H158.374V69H163.522V63ZM172.723 66L169.965 67.1784L170.743 69H172.723V66ZM164.949 47.8V44.8H160.406L162.191 48.9784L164.949 47.8ZM170.513 47.8L173.284 46.6481L172.515 44.8H170.513V47.8ZM177.065 63.556V66.556H181.562L179.836 62.4041L177.065 63.556ZM173.789 63.556L171.029 62.3808L169.252 66.556H173.789V63.556ZM180.497 47.8V44.8H178.514L177.737 46.6248L180.497 47.8ZM185.593 47.8L188.351 48.9818L190.143 44.8H185.593V47.8ZM177.793 66V69H179.772L180.551 67.1818L177.793 66ZM175.482 64.8216L167.708 46.6216L162.191 48.9784L169.965 67.1784L175.482 64.8216ZM164.949 50.8H170.513V44.8H164.949V50.8ZM167.743 48.9519L174.295 64.7079L179.836 62.4041L173.284 46.6481L167.743 48.9519ZM177.065 60.556H173.789V66.556H177.065V60.556ZM176.55 64.7312L183.258 48.9752L177.737 46.6248L171.029 62.3808L176.55 64.7312ZM180.497 50.8H185.593V44.8H180.497V50.8ZM182.836 46.6182L175.036 64.8182L180.551 67.1818L188.351 48.9818L182.836 46.6182ZM177.793 63H172.723V69H177.793V63ZM191.578 65.662L190.512 68.4661L191.578 65.662ZM188.354 63.686L186.275 65.8485L186.296 65.8689L186.318 65.8888L188.354 63.686ZM186.248 60.67L183.502 61.8768L186.248 60.67ZM186.248 53.13L183.502 51.9232L186.248 53.13ZM188.354 50.14L190.412 52.3234L190.413 52.3222L188.354 50.14ZM191.578 48.138L190.512 45.3339L191.578 48.138ZM199.638 48.138L198.559 50.937L198.565 50.9396L198.572 50.9421L199.638 48.138ZM202.836 50.14L200.757 52.3025L200.768 52.313L200.779 52.3234L202.836 50.14ZM204.942 53.13L202.196 54.3368L202.203 54.3542L202.211 54.3714L204.942 53.13ZM204.942 60.696L202.204 59.47L202.2 59.4796L202.196 59.4892L204.942 60.696ZM202.836 63.686L204.894 65.8694L202.836 63.686ZM199.638 65.662L198.572 62.8579L198.565 62.8604L198.559 62.863L199.638 65.662ZM197.532 61.736L196.418 58.9506L196.404 58.9562L196.39 58.962L197.532 61.736ZM199.092 60.696L196.931 58.6151L196.93 58.6167L199.092 60.696ZM200.132 59.032L197.352 57.9049L197.339 57.9375L197.326 57.9703L200.132 59.032ZM200.132 54.768L197.326 55.8297L197.344 55.8761L197.363 55.9218L200.132 54.768ZM199.092 53.13L196.891 55.1682L196.93 55.2105L196.971 55.2513L199.092 53.13ZM197.532 52.064L196.39 54.838L196.404 54.8438L196.418 54.8494L197.532 52.064ZM193.658 52.064L192.544 49.2786L192.53 49.2842L192.516 49.29L193.658 52.064ZM192.098 53.13L189.937 51.0491L189.936 51.0507L192.098 53.13ZM191.058 54.768L188.278 53.6409L188.27 53.6607L188.262 53.6807L191.058 54.768ZM191.058 59.032L188.252 60.0937L188.265 60.1265L188.278 60.1591L191.058 59.032ZM192.098 60.696L189.897 62.7342L189.936 62.7765L189.977 62.8173L192.098 60.696ZM193.658 61.736L192.516 64.51L192.53 64.5158L192.544 64.5214L193.658 61.736ZM195.608 63.364C194.478 63.364 193.501 63.1834 192.645 62.8579L190.512 68.4661C192.117 69.0766 193.826 69.364 195.608 69.364V63.364ZM192.645 62.8579C191.754 62.5191 191.013 62.0583 190.391 61.4832L186.318 65.8888C187.533 67.0123 188.942 67.8689 190.512 68.4661L192.645 62.8579ZM190.434 61.5235C189.815 60.9285 189.34 60.2478 188.995 59.4632L183.502 61.8768C184.162 63.3802 185.091 64.7101 186.275 65.8485L190.434 61.5235ZM188.995 59.4632C188.675 58.7347 188.494 57.894 188.494 56.9H182.494C182.494 58.6447 182.817 60.3173 183.502 61.8768L188.995 59.4632ZM188.494 56.9C188.494 55.906 188.675 55.0653 188.995 54.3368L183.502 51.9232C182.817 53.4827 182.494 55.1553 182.494 56.9H188.494ZM188.995 54.3368C189.337 53.5579 189.806 52.8942 190.412 52.3234L186.297 47.9566C185.1 49.0845 184.165 50.4141 183.502 51.9232L188.995 54.3368ZM190.413 52.3222C191.033 51.7375 191.766 51.2761 192.645 50.9421L190.512 45.3339C188.929 45.9359 187.513 46.8092 186.296 47.9578L190.413 52.3222ZM192.645 50.9421C193.501 50.6166 194.478 50.436 195.608 50.436V44.436C193.826 44.436 192.117 44.7234 190.512 45.3339L192.645 50.9421ZM195.608 50.436C196.761 50.436 197.733 50.6183 198.559 50.937L200.718 45.339C199.118 44.7217 197.402 44.436 195.608 44.436V50.436ZM198.572 50.9421C199.446 51.2743 200.162 51.7304 200.757 52.3025L204.916 47.9775C203.708 46.8163 202.292 45.9377 200.705 45.3339L198.572 50.9421ZM200.779 52.3234C201.385 52.8942 201.854 53.5579 202.196 54.3368L207.689 51.9232C207.026 50.4141 206.091 49.0845 204.894 47.9566L200.779 52.3234ZM202.211 54.3714C202.539 55.0916 202.722 55.9201 202.722 56.9H208.722C208.722 55.1413 208.386 53.4563 207.673 51.8886L202.211 54.3714ZM202.722 56.9C202.722 57.8794 202.539 58.723 202.204 59.47L207.68 61.922C208.386 60.3463 208.722 58.6592 208.722 56.9H202.722ZM202.196 59.4892C201.854 60.2681 201.385 60.9318 200.779 61.5026L204.894 65.8694C206.091 64.7415 207.026 63.4119 207.689 61.9028L202.196 59.4892ZM200.779 61.5026C200.182 62.0653 199.458 62.5209 198.572 62.8579L200.705 68.4661C202.28 67.8671 203.688 67.0054 204.894 65.8694L200.779 61.5026ZM198.559 62.863C197.733 63.1817 196.761 63.364 195.608 63.364V69.364C197.402 69.364 199.118 69.0783 200.718 68.461L198.559 62.863ZM195.608 65.1C196.659 65.1 197.692 64.9146 198.675 64.51L196.39 58.962C196.194 59.0428 195.944 59.1 195.608 59.1V65.1ZM198.647 64.5214C199.631 64.1278 200.513 63.547 201.255 62.7753L196.93 58.6167C196.805 58.7463 196.647 58.8588 196.418 58.9506L198.647 64.5214ZM201.253 62.7769C202.001 62.0003 202.56 61.0935 202.938 60.0937L197.326 57.9703C197.219 58.2532 197.085 58.4557 196.931 58.6151L201.253 62.7769ZM202.913 60.1591C203.335 59.117 203.522 58.0174 203.522 56.9H197.522C197.522 57.3426 197.45 57.6643 197.352 57.9049L202.913 60.1591ZM203.522 56.9C203.522 55.7765 203.339 54.6632 202.902 53.6142L197.363 55.9218C197.446 56.1208 197.522 56.4288 197.522 56.9H203.522ZM202.938 53.7063C202.557 52.6979 201.987 51.7824 201.214 51.0087L196.971 55.2513C197.099 55.3789 197.223 55.5554 197.326 55.8297L202.938 53.7063ZM201.294 51.0918C200.55 50.289 199.656 49.6824 198.647 49.2786L196.418 54.8494C196.622 54.9309 196.768 55.035 196.891 55.1682L201.294 51.0918ZM198.675 49.29C197.692 48.8854 196.659 48.7 195.608 48.7V54.7C195.944 54.7 196.194 54.7572 196.39 54.838L198.675 49.29ZM195.608 48.7C194.557 48.7 193.526 48.8856 192.544 49.2786L194.773 54.8494C195.004 54.757 195.273 54.7 195.608 54.7V48.7ZM192.516 49.29C191.535 49.6938 190.67 50.288 189.937 51.0491L194.259 55.2109C194.428 55.036 194.603 54.9195 194.801 54.838L192.516 49.29ZM189.936 51.0507C189.211 51.8045 188.666 52.6836 188.278 53.6409L193.839 55.8951C193.97 55.5698 194.119 55.3568 194.261 55.2093L189.936 51.0507ZM188.262 53.6807C187.862 54.7106 187.694 55.8001 187.694 56.9H193.694C193.694 56.4052 193.77 56.0734 193.854 55.8553L188.262 53.6807ZM187.694 56.9C187.694 57.9933 187.865 59.0698 188.252 60.0937L193.864 57.9703C193.766 57.7115 193.694 57.3667 193.694 56.9H187.694ZM188.278 60.1591C188.663 61.108 189.197 61.9782 189.897 62.7342L194.3 58.6578C194.133 58.4778 193.974 58.2387 193.839 57.9049L188.278 60.1591ZM189.977 62.8173C190.708 63.5481 191.561 64.1166 192.516 64.51L194.801 58.962C194.578 58.8701 194.39 58.7453 194.22 58.5747L189.977 62.8173ZM192.544 64.5214C193.526 64.9144 194.557 65.1 195.608 65.1V59.1C195.273 59.1 195.004 59.043 194.773 58.9506L192.544 64.5214ZM210.499 65.818L209.694 68.708L209.715 68.714L209.737 68.7197L210.499 65.818ZM207.145 64.362L204.404 63.1418L203.384 65.4327L205.458 66.8428L207.145 64.362ZM208.835 60.566L210.449 58.0372L207.511 56.1623L206.094 59.3458L208.835 60.566ZM211.643 61.866L210.708 64.7167L210.736 64.7258L210.764 64.7343L211.643 61.866ZM216.557 62.178L217.366 65.0669L217.419 65.0521L217.471 65.0353L216.557 62.178ZM217.493 61.658L215.288 59.6231L215.281 59.6308L217.493 61.658ZM217.233 59.89L215.622 62.421V62.421L217.233 59.89ZM215.751 59.292L216.498 56.3865L215.751 59.292ZM213.723 58.824L213.094 61.7574L213.101 61.7589L213.108 61.7604L213.723 58.824ZM211.513 58.226L210.564 61.072L210.574 61.0754L210.584 61.0786L211.513 58.226ZM209.511 57.29L207.863 59.7971L207.888 59.8138L207.914 59.8299L209.511 57.29ZM208.029 55.756L205.45 57.2892L205.459 57.3048L205.469 57.3204L208.029 55.756ZM208.341 50.374L205.867 48.6765L205.856 48.6931L205.844 48.7099L208.341 50.374ZM211.045 48.242L209.815 45.5055L211.045 48.242ZM219.027 47.852L218.32 50.7676L218.345 50.7738L218.371 50.7795L219.027 47.852ZM222.121 49.022L224.892 50.1718L225.901 47.7395L223.62 46.4234L222.121 49.022ZM220.535 52.844L219.109 55.4837L222.032 57.0622L223.306 53.9938L220.535 52.844ZM217.961 51.804L217.136 54.6886L217.164 54.6964L217.191 54.7037L217.961 51.804ZM213.775 51.674L214.689 54.5313L214.74 54.5149L214.791 54.4967L213.775 51.674ZM212.839 52.246L210.48 50.3925V50.3925L212.839 52.246ZM213.099 54.04L211.435 56.5361L211.502 56.5813L211.572 56.6228L213.099 54.04ZM214.581 54.612L213.834 57.5175L213.881 57.5298L213.93 57.5406L214.581 54.612ZM216.609 55.054L215.98 57.9874L215.987 57.9889L215.994 57.9904L216.609 55.054ZM218.819 55.652L217.87 58.4981L217.91 58.5114L217.95 58.5236L218.819 55.652ZM220.847 56.588L219.199 59.0951L219.224 59.1118L219.25 59.1279L220.847 56.588ZM222.303 58.122L219.694 59.6028L219.718 59.645L219.743 59.6864L222.303 58.122ZM221.965 63.426L219.476 61.7509L219.468 61.7619L221.965 63.426ZM219.287 65.558L218.057 62.8215L218.05 62.8249L218.042 62.8283L219.287 65.558ZM214.815 63.364C213.571 63.364 212.389 63.2125 211.26 62.9163L209.737 68.7197C211.382 69.1515 213.077 69.364 214.815 69.364V63.364ZM211.303 62.928C210.144 62.6051 209.351 62.2348 208.832 61.8812L205.458 66.8428C206.671 67.6679 208.114 68.2682 209.694 68.708L211.303 62.928ZM209.885 65.5822L211.575 61.7862L206.094 59.3458L204.404 63.1418L209.885 65.5822ZM207.221 63.0948C208.276 63.7687 209.447 64.3032 210.708 64.7167L212.577 59.0153C211.724 58.7355 211.022 58.4033 210.449 58.0372L207.221 63.0948ZM210.764 64.7343C212.105 65.1455 213.467 65.36 214.841 65.36V59.36C214.099 59.36 213.329 59.2452 212.522 58.9977L210.764 64.7343ZM214.841 65.36C215.686 65.36 216.562 65.2918 217.366 65.0669L215.748 59.2891C215.684 59.3069 215.416 59.36 214.841 59.36V65.36ZM217.471 65.0353C218.128 64.825 219.007 64.4454 219.704 63.6852L215.281 59.6308C215.453 59.4438 215.604 59.3519 215.659 59.3215C215.715 59.2903 215.719 59.2961 215.642 59.3207L217.471 65.0353ZM219.697 63.6928C220.394 62.9382 220.805 61.96 220.805 60.878H214.805C214.805 60.6639 214.844 60.4225 214.941 60.1798C215.037 59.9392 215.168 59.7538 215.288 59.6232L219.697 63.6928ZM220.805 60.878C220.805 59.3346 220.001 58.0954 218.843 57.359L215.622 62.421C215.482 62.3321 215.253 62.1457 215.065 61.8221C214.872 61.4881 214.805 61.1472 214.805 60.878H220.805ZM218.843 57.359C218.115 56.8955 217.301 56.5931 216.498 56.3865L215.004 62.1975C215.413 62.3029 215.588 62.3991 215.622 62.421L218.843 57.359ZM216.498 56.3865C215.839 56.2171 215.118 56.051 214.337 55.8876L213.108 61.7604C213.818 61.909 214.449 62.0549 215.004 62.1975L216.498 56.3865ZM214.351 55.8906C213.73 55.7574 213.093 55.5856 212.441 55.3734L210.584 61.0786C211.423 61.3517 212.26 61.5786 213.094 61.7574L214.351 55.8906ZM212.461 55.3799C211.945 55.2077 211.497 54.9952 211.107 54.7501L207.914 59.8299C208.738 60.3475 209.625 60.7589 210.564 61.072L212.461 55.3799ZM211.158 54.7829C210.924 54.6292 210.741 54.4408 210.588 54.1917L205.469 57.3204C206.079 58.3192 206.884 59.1535 207.863 59.7971L211.158 54.7829ZM210.607 54.2228C210.573 54.165 210.457 53.9277 210.457 53.338H204.457C204.457 54.6896 204.722 56.0643 205.45 57.2892L210.607 54.2228ZM210.457 53.338C210.457 52.8208 210.586 52.4149 210.837 52.0381L205.844 48.7099C204.917 50.1011 204.457 51.6712 204.457 53.338H210.457ZM210.814 52.0715C211.047 51.733 211.468 51.3405 212.274 50.9785L209.815 45.5055C208.229 46.2182 206.848 47.247 205.867 48.6765L210.814 52.0715ZM212.274 50.9785C212.97 50.6656 214.011 50.436 215.517 50.436V44.436C213.452 44.436 211.511 44.7437 209.815 45.5055L212.274 50.9785ZM215.517 50.436C216.478 50.436 217.411 50.5472 218.32 50.7676L219.733 44.9365C218.354 44.6021 216.947 44.436 215.517 44.436V50.436ZM218.371 50.7795C219.278 50.9825 220.018 51.2723 220.621 51.6206L223.62 46.4234C222.421 45.7317 221.098 45.2415 219.682 44.9245L218.371 50.7795ZM219.35 47.8722L217.764 51.6942L223.306 53.9938L224.892 50.1718L219.35 47.8722ZM221.96 50.2043C220.91 49.6374 219.833 49.197 218.73 48.9043L217.191 54.7037C217.787 54.8617 218.426 55.1146 219.109 55.4837L221.96 50.2043ZM218.785 48.9194C217.696 48.6083 216.595 48.44 215.491 48.44V54.44C215.981 54.44 216.527 54.5143 217.136 54.6886L218.785 48.9194ZM215.491 48.44C214.601 48.44 213.645 48.5322 212.758 48.8513L214.791 54.4967C214.767 54.5051 214.806 54.4884 214.934 54.471C215.059 54.4539 215.241 54.44 215.491 54.44V48.44ZM212.86 48.8167C212.112 49.0561 211.178 49.5039 210.48 50.3925L215.198 54.0995C215.036 54.3056 214.874 54.4235 214.78 54.4808C214.689 54.5362 214.647 54.5446 214.689 54.5313L212.86 48.8167ZM210.48 50.3925C209.869 51.17 209.553 52.1018 209.553 53.078H215.553C215.553 53.2326 215.528 53.4165 215.461 53.6112C215.394 53.8063 215.299 53.9708 215.198 54.0995L210.48 50.3925ZM209.553 53.078C209.553 54.5898 210.332 55.801 211.435 56.5361L214.763 51.5438C214.898 51.6343 215.118 51.82 215.298 52.1367C215.484 52.4642 215.553 52.8017 215.553 53.078H209.553ZM211.572 56.6228C212.274 57.0376 213.057 57.3177 213.834 57.5175L215.328 51.7065C214.891 51.5943 214.686 51.4931 214.625 51.4572L211.572 56.6228ZM213.93 57.5406C214.562 57.6811 215.246 57.8301 215.98 57.9874L217.237 52.1206C216.515 51.9659 215.847 51.8202 215.231 51.6834L213.93 57.5406ZM215.994 57.9904C216.625 58.1225 217.251 58.2916 217.87 58.4981L219.767 52.806C218.931 52.5271 218.082 52.2975 217.223 52.1176L215.994 57.9904ZM217.95 58.5236C218.44 58.6716 218.85 58.8658 219.199 59.0951L222.494 54.0809C221.63 53.5128 220.688 53.0831 219.687 52.7804L217.95 58.5236ZM219.25 59.1279C219.424 59.2374 219.567 59.3797 219.694 59.6028L224.912 56.6412C224.31 55.5816 223.482 54.7012 222.443 54.0481L219.25 59.1279ZM219.743 59.6864C219.761 59.7166 219.875 59.9225 219.875 60.488H225.875C225.875 59.1468 225.607 57.7754 224.862 56.5576L219.743 59.6864ZM219.875 60.488C219.875 60.9313 219.759 61.3301 219.476 61.7509L224.453 65.1011C225.384 63.7192 225.875 62.1594 225.875 60.488H219.875ZM219.468 61.7619C219.258 62.0775 218.859 62.4613 218.057 62.8215L220.516 68.2945C222.106 67.5801 223.493 66.5425 224.461 65.0901L219.468 61.7619ZM218.042 62.8283C217.376 63.1321 216.345 63.364 214.815 63.364V69.364C216.889 69.364 218.84 69.0586 220.531 68.2877L218.042 62.8283Z"
    fill="#F4F5FA" mask="url(#path-7-outside-1_83_659)" />
  <path
    d="M53.7263 34V15.8H63.0343C65.4263 15.8 67.2116 16.242 68.3903 17.126C69.5689 17.9927 70.1583 19.1367 70.1583 20.558C70.1583 21.494 69.9069 22.3173 69.4043 23.028C68.9189 23.7213 68.2256 24.276 67.3243 24.692C66.4403 25.0907 65.3829 25.29 64.1523 25.29L64.6723 24.042C65.9549 24.042 67.0729 24.2413 68.0263 24.64C68.9796 25.0213 69.7163 25.5847 70.2363 26.33C70.7736 27.058 71.0423 27.9507 71.0423 29.008C71.0423 30.5853 70.4009 31.816 69.1183 32.7C67.8529 33.5667 65.9983 34 63.5543 34H53.7263ZM58.8223 30.282H63.1383C64.0223 30.282 64.6896 30.1347 65.1403 29.84C65.6083 29.528 65.8423 29.06 65.8423 28.436C65.8423 27.812 65.6083 27.3527 65.1403 27.058C64.6896 26.746 64.0223 26.59 63.1383 26.59H58.4583V23.028H62.3583C63.2249 23.028 63.8749 22.8807 64.3083 22.586C64.7416 22.2913 64.9583 21.8493 64.9583 21.26C64.9583 20.6707 64.7416 20.2373 64.3083 19.96C63.8749 19.6653 63.2249 19.518 62.3583 19.518H58.8223V30.282ZM78.4407 22.846H86.8907V26.694H78.4407V22.846ZM78.8047 30.022H88.3207V34H73.7087V15.8H87.9827V19.778H78.8047V30.022ZM91.1774 34V15.8H95.4154L105.451 27.916H103.449V15.8H108.493V34H104.255L94.2194 21.884H96.2214V34H91.1774ZM116.857 22.846H125.307V26.694H116.857V22.846ZM117.221 30.022H126.737V34H112.125V15.8H126.399V19.778H117.221V30.022ZM134.377 23.782H142.775V27.76H134.377V23.782ZM134.741 34H129.593V15.8H143.867V19.778H134.741V34ZM146.275 34V15.8H151.423V34H146.275ZM164.16 34.364C162.721 34.364 161.386 34.1387 160.156 33.688C158.942 33.22 157.885 32.5613 156.984 31.712C156.1 30.8627 155.406 29.866 154.904 28.722C154.401 27.5607 154.15 26.2867 154.15 24.9C154.15 23.5133 154.401 22.248 154.904 21.104C155.406 19.9427 156.1 18.9373 156.984 18.088C157.885 17.2387 158.942 16.5887 160.156 16.138C161.386 15.67 162.721 15.436 164.16 15.436C165.841 15.436 167.34 15.7307 168.658 16.32C169.992 16.9093 171.102 17.7587 171.986 18.868L168.71 21.832C168.12 21.1387 167.47 20.61 166.76 20.246C166.066 19.882 165.286 19.7 164.42 19.7C163.674 19.7 162.99 19.8213 162.366 20.064C161.742 20.3067 161.204 20.662 160.754 21.13C160.32 21.5807 159.974 22.1267 159.714 22.768C159.471 23.4093 159.35 24.12 159.35 24.9C159.35 25.68 159.471 26.3907 159.714 27.032C159.974 27.6733 160.32 28.228 160.754 28.696C161.204 29.1467 161.742 29.4933 162.366 29.736C162.99 29.9787 163.674 30.1 164.42 30.1C165.286 30.1 166.066 29.918 166.76 29.554C167.47 29.19 168.12 28.6613 168.71 27.968L171.986 30.932C171.102 32.024 169.992 32.8733 168.658 33.48C167.34 34.0693 165.841 34.364 164.16 34.364ZM174.281 34V15.8H179.429V34H174.281ZM192.269 34.364C190.813 34.364 189.47 34.13 188.239 33.662C187.009 33.194 185.934 32.5353 185.015 31.686C184.114 30.8193 183.412 29.814 182.909 28.67C182.407 27.526 182.155 26.2693 182.155 24.9C182.155 23.5307 182.407 22.274 182.909 21.13C183.412 19.986 184.114 18.9893 185.015 18.14C185.934 17.2733 187.009 16.606 188.239 16.138C189.47 15.67 190.813 15.436 192.269 15.436C193.743 15.436 195.086 15.67 196.299 16.138C197.53 16.606 198.596 17.2733 199.497 18.14C200.399 18.9893 201.101 19.986 201.603 21.13C202.123 22.274 202.383 23.5307 202.383 24.9C202.383 26.2693 202.123 27.5347 201.603 28.696C201.101 29.84 200.399 30.8367 199.497 31.686C198.596 32.5353 197.53 33.194 196.299 33.662C195.086 34.13 193.743 34.364 192.269 34.364ZM192.269 30.1C192.963 30.1 193.604 29.9787 194.193 29.736C194.8 29.4933 195.32 29.1467 195.753 28.696C196.204 28.228 196.551 27.6733 196.793 27.032C197.053 26.3907 197.183 25.68 197.183 24.9C197.183 24.1027 197.053 23.392 196.793 22.768C196.551 22.1267 196.204 21.5807 195.753 21.13C195.32 20.662 194.8 20.3067 194.193 20.064C193.604 19.8213 192.963 19.7 192.269 19.7C191.576 19.7 190.926 19.8213 190.319 20.064C189.73 20.3067 189.21 20.662 188.759 21.13C188.326 21.5807 187.979 22.1267 187.719 22.768C187.477 23.392 187.355 24.1027 187.355 24.9C187.355 25.68 187.477 26.3907 187.719 27.032C187.979 27.6733 188.326 28.228 188.759 28.696C189.21 29.1467 189.73 29.4933 190.319 29.736C190.926 29.9787 191.576 30.1 192.269 30.1ZM211.476 34.364C209.985 34.364 208.546 34.182 207.16 33.818C205.79 33.4367 204.672 32.9513 203.806 32.362L205.496 28.566C206.31 29.086 207.246 29.5193 208.304 29.866C209.378 30.1953 210.444 30.36 211.502 30.36C212.212 30.36 212.784 30.2993 213.218 30.178C213.651 30.0393 213.963 29.866 214.154 29.658C214.362 29.4327 214.466 29.1727 214.466 28.878C214.466 28.462 214.275 28.1327 213.894 27.89C213.512 27.6473 213.018 27.448 212.412 27.292C211.805 27.136 211.129 26.98 210.384 26.824C209.656 26.668 208.919 26.4687 208.174 26.226C207.446 25.9833 206.778 25.6713 206.172 25.29C205.565 24.8913 205.071 24.38 204.69 23.756C204.308 23.1147 204.118 22.3087 204.118 21.338C204.118 20.246 204.412 19.258 205.002 18.374C205.608 17.49 206.51 16.7793 207.706 16.242C208.902 15.7047 210.392 15.436 212.178 15.436C213.374 15.436 214.544 15.5747 215.688 15.852C216.849 16.112 217.88 16.502 218.782 17.022L217.196 20.844C216.329 20.376 215.471 20.0293 214.622 19.804C213.772 19.5613 212.949 19.44 212.152 19.44C211.441 19.44 210.869 19.518 210.436 19.674C210.002 19.8127 209.69 20.0033 209.5 20.246C209.309 20.4887 209.214 20.766 209.214 21.078C209.214 21.4767 209.396 21.7973 209.76 22.04C210.141 22.2653 210.635 22.456 211.242 22.612C211.866 22.7507 212.542 22.898 213.27 23.054C214.015 23.21 214.752 23.4093 215.48 23.652C216.225 23.8773 216.901 24.1893 217.508 24.588C218.114 24.9693 218.6 25.4807 218.964 26.122C219.345 26.746 219.536 27.5347 219.536 28.488C219.536 29.5453 219.232 30.5247 218.626 31.426C218.036 32.31 217.144 33.0207 215.948 33.558C214.769 34.0953 213.278 34.364 211.476 34.364Z"
    fill="#212529" />
  <path
    d="M55.1194 54.846H63.5694V58.694H55.1194V54.846ZM55.4834 62.022H64.9994V66H50.3874V47.8H64.6614V51.778H55.4834V62.022ZM65.8318 66L73.7878 54.95L73.7618 58.616L66.1178 47.8H71.9158L76.8038 54.846L74.3338 54.872L79.1438 47.8H84.7078L77.0638 58.408V54.768L85.1238 66H79.1958L74.2298 58.59H76.5958L71.7078 66H65.8318ZM95.2876 66.364C93.8489 66.364 92.5142 66.1387 91.2836 65.688C90.0702 65.22 89.0129 64.5613 88.1116 63.712C87.2276 62.8627 86.5342 61.866 86.0316 60.722C85.5289 59.5607 85.2776 58.2867 85.2776 56.9C85.2776 55.5133 85.5289 54.248 86.0316 53.104C86.5342 51.9427 87.2276 50.9373 88.1116 50.088C89.0129 49.2387 90.0702 48.5887 91.2836 48.138C92.5142 47.67 93.8489 47.436 95.2876 47.436C96.9689 47.436 98.4682 47.7307 99.7856 48.32C101.12 48.9093 102.23 49.7587 103.114 50.868L99.8376 53.832C99.2482 53.1387 98.5982 52.61 97.8876 52.246C97.1942 51.882 96.4142 51.7 95.5476 51.7C94.8022 51.7 94.1176 51.8213 93.4936 52.064C92.8696 52.3067 92.3322 52.662 91.8816 53.13C91.4482 53.5807 91.1016 54.1267 90.8416 54.768C90.5989 55.4093 90.4776 56.12 90.4776 56.9C90.4776 57.68 90.5989 58.3907 90.8416 59.032C91.1016 59.6733 91.4482 60.228 91.8816 60.696C92.3322 61.1467 92.8696 61.4933 93.4936 61.736C94.1176 61.9787 94.8022 62.1 95.5476 62.1C96.4142 62.1 97.1942 61.918 97.8876 61.554C98.5982 61.19 99.2482 60.6613 99.8376 59.968L103.114 62.932C102.23 64.024 101.12 64.8733 99.7856 65.48C98.4682 66.0693 96.9689 66.364 95.2876 66.364ZM105.409 66V47.8H110.557V61.918H119.241V66H105.409ZM129.498 66.364C126.812 66.364 124.714 65.6273 123.206 64.154C121.698 62.6807 120.944 60.592 120.944 57.888V47.8H126.092V57.732C126.092 59.292 126.396 60.41 127.002 61.086C127.626 61.762 128.476 62.1 129.55 62.1C130.625 62.1 131.466 61.762 132.072 61.086C132.679 60.41 132.982 59.292 132.982 57.732V47.8H138.052V57.888C138.052 60.592 137.298 62.6807 135.79 64.154C134.282 65.6273 132.185 66.364 129.498 66.364ZM147.936 66.364C146.445 66.364 145.006 66.182 143.62 65.818C142.25 65.4367 141.132 64.9513 140.266 64.362L141.956 60.566C142.77 61.086 143.706 61.5193 144.764 61.866C145.838 62.1953 146.904 62.36 147.962 62.36C148.672 62.36 149.244 62.2993 149.678 62.178C150.111 62.0393 150.423 61.866 150.614 61.658C150.822 61.4327 150.926 61.1727 150.926 60.878C150.926 60.462 150.735 60.1327 150.354 59.89C149.972 59.6473 149.478 59.448 148.872 59.292C148.265 59.136 147.589 58.98 146.844 58.824C146.116 58.668 145.379 58.4687 144.634 58.226C143.906 57.9833 143.238 57.6713 142.632 57.29C142.025 56.8913 141.531 56.38 141.15 55.756C140.768 55.1147 140.578 54.3087 140.578 53.338C140.578 52.246 140.872 51.258 141.462 50.374C142.068 49.49 142.97 48.7793 144.166 48.242C145.362 47.7047 146.852 47.436 148.638 47.436C149.834 47.436 151.004 47.5747 152.148 47.852C153.309 48.112 154.34 48.502 155.242 49.022L153.656 52.844C152.789 52.376 151.931 52.0293 151.082 51.804C150.232 51.5613 149.409 51.44 148.612 51.44C147.901 51.44 147.329 51.518 146.896 51.674C146.462 51.8127 146.15 52.0033 145.96 52.246C145.769 52.4887 145.674 52.766 145.674 53.078C145.674 53.4767 145.856 53.7973 146.22 54.04C146.601 54.2653 147.095 54.456 147.702 54.612C148.326 54.7507 149.002 54.898 149.73 55.054C150.475 55.21 151.212 55.4093 151.94 55.652C152.685 55.8773 153.361 56.1893 153.968 56.588C154.574 56.9693 155.06 57.4807 155.424 58.122C155.805 58.746 155.996 59.5347 155.996 60.488C155.996 61.5453 155.692 62.5247 155.086 63.426C154.496 64.31 153.604 65.0207 152.408 65.558C151.229 66.0953 149.738 66.364 147.936 66.364ZM158.374 66V47.8H163.522V66H158.374ZM172.723 66L164.949 47.8H170.513L177.065 63.556H173.789L180.497 47.8H185.593L177.793 66H172.723ZM195.608 66.364C194.152 66.364 192.809 66.13 191.578 65.662C190.348 65.194 189.273 64.5353 188.354 63.686C187.453 62.8193 186.751 61.814 186.248 60.67C185.746 59.526 185.494 58.2693 185.494 56.9C185.494 55.5307 185.746 54.274 186.248 53.13C186.751 51.986 187.453 50.9893 188.354 50.14C189.273 49.2733 190.348 48.606 191.578 48.138C192.809 47.67 194.152 47.436 195.608 47.436C197.082 47.436 198.425 47.67 199.638 48.138C200.869 48.606 201.935 49.2733 202.836 50.14C203.738 50.9893 204.44 51.986 204.942 53.13C205.462 54.274 205.722 55.5307 205.722 56.9C205.722 58.2693 205.462 59.5347 204.942 60.696C204.44 61.84 203.738 62.8367 202.836 63.686C201.935 64.5353 200.869 65.194 199.638 65.662C198.425 66.13 197.082 66.364 195.608 66.364ZM195.608 62.1C196.302 62.1 196.943 61.9787 197.532 61.736C198.139 61.4933 198.659 61.1467 199.092 60.696C199.543 60.228 199.89 59.6733 200.132 59.032C200.392 58.3907 200.522 57.68 200.522 56.9C200.522 56.1027 200.392 55.392 200.132 54.768C199.89 54.1267 199.543 53.5807 199.092 53.13C198.659 52.662 198.139 52.3067 197.532 52.064C196.943 51.8213 196.302 51.7 195.608 51.7C194.915 51.7 194.265 51.8213 193.658 52.064C193.069 52.3067 192.549 52.662 192.098 53.13C191.665 53.5807 191.318 54.1267 191.058 54.768C190.816 55.392 190.694 56.1027 190.694 56.9C190.694 57.68 190.816 58.3907 191.058 59.032C191.318 59.6733 191.665 60.228 192.098 60.696C192.549 61.1467 193.069 61.4933 193.658 61.736C194.265 61.9787 194.915 62.1 195.608 62.1ZM214.815 66.364C213.324 66.364 211.885 66.182 210.499 65.818C209.129 65.4367 208.011 64.9513 207.145 64.362L208.835 60.566C209.649 61.086 210.585 61.5193 211.643 61.866C212.717 62.1953 213.783 62.36 214.841 62.36C215.551 62.36 216.123 62.2993 216.557 62.178C216.99 62.0393 217.302 61.866 217.493 61.658C217.701 61.4327 217.805 61.1727 217.805 60.878C217.805 60.462 217.614 60.1327 217.233 59.89C216.851 59.6473 216.357 59.448 215.751 59.292C215.144 59.136 214.468 58.98 213.723 58.824C212.995 58.668 212.258 58.4687 211.513 58.226C210.785 57.9833 210.117 57.6713 209.511 57.29C208.904 56.8913 208.41 56.38 208.029 55.756C207.647 55.1147 207.457 54.3087 207.457 53.338C207.457 52.246 207.751 51.258 208.341 50.374C208.947 49.49 209.849 48.7793 211.045 48.242C212.241 47.7047 213.731 47.436 215.517 47.436C216.713 47.436 217.883 47.5747 219.027 47.852C220.188 48.112 221.219 48.502 222.121 49.022L220.535 52.844C219.668 52.376 218.81 52.0293 217.961 51.804C217.111 51.5613 216.288 51.44 215.491 51.44C214.78 51.44 214.208 51.518 213.775 51.674C213.341 51.8127 213.029 52.0033 212.839 52.246C212.648 52.4887 212.553 52.766 212.553 53.078C212.553 53.4767 212.735 53.7973 213.099 54.04C213.48 54.2653 213.974 54.456 214.581 54.612C215.205 54.7507 215.881 54.898 216.609 55.054C217.354 55.21 218.091 55.4093 218.819 55.652C219.564 55.8773 220.24 56.1893 220.847 56.588C221.453 56.9693 221.939 57.4807 222.303 58.122C222.684 58.746 222.875 59.5347 222.875 60.488C222.875 61.5453 222.571 62.5247 221.965 63.426C221.375 64.31 220.483 65.0207 219.287 65.558C218.108 66.0953 216.617 66.364 214.815 66.364Z"
    fill="#84BD00" />
  <line x1="115" y1="3.5" x2="229" y2="3.50001" stroke="#84BD00" />
  <line x1="50" y1="77.5" x2="229" y2="77.5" stroke="#84BD00" />
</svg>