<svg width="60" height="63" viewBox="0 0 60 63" fill="none" xmlns="http://www.w3.org/2000/svg">
  <path
    d="M23.6571 56.607V38.8229C23.6571 38.048 23.2762 37.6605 22.5143 37.6605H6.05714C4.38095 37.6605 2.93333 37.0793 1.71429 35.917C0.571429 34.6771 0 33.2048 0 31.5C0 29.7952 0.571429 28.3616 1.71429 27.1993C2.93333 25.9594 4.38095 25.3395 6.05714 25.3395H22.5143C23.2762 25.3395 23.6571 24.952 23.6571 24.1771V6.39299C23.6571 4.6107 24.2667 3.09963 25.4857 1.85978C26.7048 0.619926 28.1905 0 29.9429 0C31.7714 0 33.2952 0.619926 34.5143 1.85978C35.7333 3.09963 36.3429 4.6107 36.3429 6.39299V24.1771C36.3429 24.952 36.7238 25.3395 37.4857 25.3395H53.9429C55.619 25.3395 57.0286 25.9594 58.1714 27.1993C59.3905 28.3616 60 29.7952 60 31.5C60 33.2048 59.3905 34.6771 58.1714 35.917C57.0286 37.0793 55.619 37.6605 53.9429 37.6605H37.4857C36.7238 37.6605 36.3429 38.048 36.3429 38.8229V56.607C36.3429 58.3893 35.7333 59.9004 34.5143 61.1402C33.2952 62.3801 31.7714 63 29.9429 63C28.1905 63 26.7048 62.3801 25.4857 61.1402C24.2667 59.9004 23.6571 58.3893 23.6571 56.607Z"
    fill="#FFF84A" />
</svg>