<svg width="20" height="21" viewBox="0 0 20 21" fill="none" xmlns="http://www.w3.org/2000/svg">
  <path
    d="M7.88571 18.869V12.941C7.88571 12.6827 7.75873 12.5535 7.50476 12.5535H2.01905C1.46032 12.5535 0.977778 12.3598 0.571429 11.9723C0.190476 11.559 0 11.0683 0 10.5C0 9.93173 0.190476 9.45387 0.571429 9.06642C0.977778 8.65314 1.46032 8.44649 2.01905 8.44649H7.50476C7.75873 8.44649 7.88571 8.31734 7.88571 8.05904V2.131C7.88571 1.5369 8.08889 1.03321 8.49524 0.619926C8.90159 0.206642 9.39683 0 9.98095 0C10.5905 0 11.0984 0.206642 11.5048 0.619926C11.9111 1.03321 12.1143 1.5369 12.1143 2.131V8.05904C12.1143 8.31734 12.2413 8.44649 12.4952 8.44649H17.981C18.5397 8.44649 19.0095 8.65314 19.3905 9.06642C19.7968 9.45387 20 9.93173 20 10.5C20 11.0683 19.7968 11.559 19.3905 11.9723C19.0095 12.3598 18.5397 12.5535 17.981 12.5535H12.4952C12.2413 12.5535 12.1143 12.6827 12.1143 12.941V18.869C12.1143 19.4631 11.9111 19.9668 11.5048 20.3801C11.0984 20.7934 10.5905 21 9.98095 21C9.39683 21 8.90159 20.7934 8.49524 20.3801C8.08889 19.9668 7.88571 19.4631 7.88571 18.869Z"
    fill="#84BD00" />
</svg>